<?xml version="1.0" standalone="no"?>
<!DOCTYPE svg PUBLIC "-//W3C//DTD SVG 1.1//EN" "http://www.w3.org/Graphics/SVG/1.1/DTD/svg11.dtd" >
<svg xmlns="http://www.w3.org/2000/svg" xmlns:xlink="http://www.w3.org/1999/xlink" version="1.1">
<metadata>
Created by FontForge 20170924 at Tue Nov 11 00:03:55 2014
 By Ina Marlov,,,
Copyright (c) 2011-2013, Sol Matas (www.huertatipografica.com.ar), with Reserved Font Name "Bitter".
</metadata>
<defs>
<font id="Bitter-Italic" horiz-adv-x="604" >
  <font-face 
    font-family="Bitter-Italic"
    font-weight="400"
    font-style="italic"
    font-stretch="normal"
    units-per-em="1000"
    panose-1="0 0 5 0 0 0 0 0 0 0"
    ascent="770"
    descent="-230"
    x-height="530"
    cap-height="700"
    bbox="-143 -300 1190 976"
    underline-thickness="50"
    underline-position="-150"
    slope="-9"
    unicode-range="U+000D-FB02"
  />
<missing-glyph horiz-adv-x="563" 
d="M63 0v700h500v-700h-500zM313 395l170 255h-340zM343 350l170 -255v510zM143 50h340l-170 255zM113 605v-510l170 255z" />
    <glyph glyph-name="fi" unicode="fi" horiz-adv-x="657" 
d="M513 80l85 -25l-8 -55h-185l72 450h-236l-75 -470q-35 -220 -210 -220q-18 0 -36.5 2.5t-27.5 5.5l-10 2l12 70h72q81 0 102 120l77 490h-94l10 65l96 10l10 60q16 99 68.5 147t175.5 48q44 0 94.5 -5t78.5 -10l28 -5l-30 -142h-67v78q-62 4 -114 4q-65 0 -96 -24
t-39 -71l-13 -80h236l96 5z" />
    <glyph glyph-name="fl" unicode="fl" horiz-adv-x="648" 
d="M409 0l110 695q-88 5 -125 5q-64 0 -92 -23.5t-36 -71.5l-13 -80h142l-14 -75h-140l-75 -470q-35 -220 -210 -220q-18 0 -36.5 2.5t-27.5 5.5l-10 2l12 70h72q83 0 102 120l77 490h-94l10 65l95 10l10 60q16 100 65.5 147.5t172.5 47.5q45 0 101.5 -5t90.5 -10l33 -5
l-109 -679l85 -26l-10 -55h-186z" />
    <glyph glyph-name=".notdef" horiz-adv-x="563" 
d="M63 0v700h500v-700h-500zM313 395l170 255h-340zM343 350l170 -255v510zM143 50h340l-170 255zM113 605v-510l170 255z" />
    <glyph glyph-name=".null" horiz-adv-x="0" 
 />
    <glyph glyph-name="nonmarkingreturn" horiz-adv-x="333" 
 />
    <glyph glyph-name="CR" unicode="&#xd;" horiz-adv-x="300" 
 />
    <glyph glyph-name="space" unicode=" " horiz-adv-x="250" 
 />
    <glyph glyph-name="exclam" unicode="!" horiz-adv-x="330" 
d="M111 245l66 505h113l-96 -500zM55 45q0 35 20.5 60t56.5 25q55 0 55 -55q0 -34 -20.5 -59.5t-57.5 -25.5q-54 0 -54 55z" />
    <glyph glyph-name="quotedbl" unicode="&#x22;" horiz-adv-x="401" 
d="M90 520l39 250h93l-59 -250h-73zM258 520l39 250h94l-59 -250h-74z" />
    <glyph glyph-name="numbersign" unicode="#" horiz-adv-x="689" 
d="M234 445l45 155h79l-45 -155h141l46 155h78l-44 -155h110l-10 -65h-119l-43 -145h112l-10 -65h-121l-48 -170h-79l49 170h-142l-49 -170h-78l48 170h-104l10 65h113l42 145h-107l10 65h116zM394 235l41 145h-141l-42 -145h142z" />
    <glyph glyph-name="dollar" unicode="$" horiz-adv-x="543" 
d="M111 195l3 -102q43 -20 99 -20q55 0 101.5 29.5t46.5 77.5q0 32 -27.5 54.5t-66.5 37t-77.5 32t-66 51t-27.5 83.5q0 84 55 134t138 62l17 111l74 5l-18 -113q33 -3 71 -12t59 -17l22 -8l-30 -158h-54l-13 101q-47 17 -92 17q-58 0 -93 -27.5t-35 -67.5q0 -32 27.5 -54.5
t66.5 -37t77.5 -32t66 -49.5t27.5 -78q0 -89 -57 -145.5t-144 -72.5l-22 -136h-73l21 130q-39 1 -80.5 10.5t-62.5 18.5l-22 9l27 167h62z" />
    <glyph glyph-name="percent" unicode="%" horiz-adv-x="815" 
d="M273 710q60 0 93 -33.5t33 -93.5q0 -94 -52 -158.5t-139 -64.5q-132 0 -132 127q0 96 55.5 159.5t141.5 63.5zM700 700l-508 -700h-88l508 700h88zM254 646q-46 0 -74.5 -40t-28.5 -107q0 -37 19 -56t52 -19q45 0 73.5 39t28.5 102q0 81 -70 81zM601 340q60 0 93 -33.5
t33 -93.5q0 -94 -52 -158.5t-139 -64.5q-132 0 -132 127q0 96 55.5 159.5t141.5 63.5zM582 276q-46 0 -74.5 -40t-28.5 -107q0 -37 19 -56t52 -19q45 0 73.5 39t28.5 102q0 81 -70 81z" />
    <glyph glyph-name="ampersand" unicode="&#x26;" horiz-adv-x="670" 
d="M542 330l-20 -120q-17 -104 -90 -162t-184 -58q-103 0 -152 44t-49 121q0 76 46 132.5t119 92.5q-4 1 -10 3.5t-22.5 12.5t-29 22t-22.5 34t-10 47q0 101 70 156t187 55q40 0 85 -10t70 -20l25 -9l-25 -141h-63l-7 80q-38 15 -106 15q-62 0 -98.5 -32.5t-36.5 -84.5
q0 -45 32 -71.5t84 -26.5h298l-10 -60zM443 330h-131q-66 0 -113 -45t-47 -115q0 -46 30.5 -70.5t84.5 -24.5q63 0 104.5 33.5t51.5 96.5z" />
    <glyph glyph-name="quotesingle" unicode="'" horiz-adv-x="188" 
d="M86 520l39 250h93l-59 -250h-73z" />
    <glyph glyph-name="parenleft" unicode="(" horiz-adv-x="330" 
d="M318 770h88q-115 -150 -177.5 -302t-62.5 -334q0 -216 80 -364h-87q-94 175 -94 359q0 178 60.5 333t192.5 308z" />
    <glyph glyph-name="parenright" unicode=")" horiz-adv-x="330" 
d="M11 -230h-88q115 150 177.5 302t62.5 334q0 216 -80 364h87q94 -175 94 -359q0 -178 -60.5 -333t-192.5 -308z" />
    <glyph glyph-name="asterisk" unicode="*" horiz-adv-x="432" 
d="M248 586l-22 23l8 124l71 2l-27 -127zM260 577l18 31l120 49l14 -70l-127 -29zM234 577l-32 -17l-122 25l35 70l111 -46zM236 562l2 -34l-82 -113l-52 42l98 103zM285 558l66 -99l-63 -44l-50 113l14 34z" />
    <glyph glyph-name="plus" unicode="+" horiz-adv-x="617" 
d="M269 303l36 227h85l-37 -227h214l-13 -76h-214l-35 -227h-85l36 227h-211l14 76h210z" />
    <glyph glyph-name="comma" unicode="," horiz-adv-x="230" 
d="M41 51q0 -13 7 -31t7 -27q0 -13 -17.5 -40t-35.5 -48l-17 -21l38 -38q6 5 16 15t35 38t44.5 54.5t35.5 60.5t16 61q0 55 -54 55q-33 0 -54 -24t-21 -55z" />
    <glyph glyph-name="hyphen" unicode="-" horiz-adv-x="382" 
d="M317 315l-14 -85h-254l14 85h254z" />
    <glyph glyph-name="period" unicode="." horiz-adv-x="260" 
d="M32 45q0 35 20.5 60t56.5 25q55 0 55 -55q0 -34 -20.5 -59.5t-57.5 -25.5q-54 0 -54 55z" />
    <glyph glyph-name="slash" unicode="/" horiz-adv-x="448" 
d="M513 700l-436 -700h-102l435 700h103z" />
    <glyph glyph-name="zero" unicode="0" horiz-adv-x="631" 
d="M384 710q105 0 156 -59t51 -161q0 -65 -9 -129t-32 -132.5t-58 -120.5t-93 -85t-131 -33q-213 0 -213 220q0 67 10 133t34.5 133.5t60.5 118.5t94 83t130 32zM369 625q-53 0 -95.5 -40t-66 -103t-35.5 -130.5t-12 -131.5q0 -77 27.5 -111t96.5 -34q50 0 90.5 40t63.5 103
t35.5 131t12.5 131q0 75 -26 110t-91 35z" />
    <glyph glyph-name="one" unicode="1" horiz-adv-x="494" 
d="M188 85l80 500l-189 -113l-29 72l252 156h85l-99 -615h151l-13 -85h-401l14 85h149z" />
    <glyph glyph-name="two" unicode="2" horiz-adv-x="581" 
d="M14 85l127 103q156 126 217 201.5t61 145.5q0 40 -29 65t-84 25q-22 0 -49.5 -4t-43.5 -8l-16 -4l-24 -99h-79l20 164q122 36 207 36q101 0 155.5 -34t54.5 -116q0 -93 -70 -188.5t-213 -208.5l-98 -78h328l-14 -85h-464z" />
    <glyph glyph-name="three" unicode="3" horiz-adv-x="529" 
d="M495 564q0 -71 -39.5 -122.5t-118.5 -73.5q55 -13 87 -51.5t32 -85.5q0 -104 -83 -172.5t-204 -68.5q-48 0 -94 12.5t-69 25.5l-22 12l39 77q86 -42 159 -42q70 0 117.5 40.5t47.5 103.5q0 106 -129 106h-76l13 80h70q83 0 123 40.5t40 96.5q0 38 -28 60.5t-81 22.5
q-25 0 -51 -4t-40 -8l-14 -4l-22 -91h-80l19 156q112 36 207 36q90 0 143.5 -38t53.5 -108z" />
    <glyph glyph-name="four" unicode="4" horiz-adv-x="592" 
d="M394 715l101 -15l-72 -450h119l-14 -80h-117l-27 -170h-95l27 170h-316l5 70zM328 250l53 334l-274 -334h221z" />
    <glyph glyph-name="five" unicode="5" horiz-adv-x="546" 
d="M210 75q68 0 117 43.5t49 106.5q0 120 -181 120h-99l63 355h367l-14 -85h-275l-33 -190h32q120 0 184.5 -49.5t64.5 -130.5q0 -108 -83.5 -181.5t-200.5 -73.5q-53 0 -102 12.5t-71 25.5l-23 12l39 76q92 -41 166 -41z" />
    <glyph glyph-name="six" unicode="6" horiz-adv-x="603" 
d="M194 380q9 6 24 14t60.5 22t89.5 14q77 0 129 -44.5t52 -124.5q0 -111 -80.5 -191t-194.5 -80q-57 0 -99 19t-65 51.5t-33.5 69.5t-10.5 81q0 57 12.5 120t44 131.5t78 122.5t122 89.5t167.5 35.5q16 0 35.5 -2.5t30.5 -5.5l12 -2l-14 -80q-35 5 -76 5q-47 0 -88 -13.5
t-69.5 -35t-51.5 -48t-36.5 -52.5t-22.5 -47.5t-12 -34.5zM177 300q-10 -60 -10 -90q0 -61 32.5 -98t88.5 -37q71 0 113.5 48t42.5 120q0 102 -118 102q-35 0 -72 -11.5t-57 -22.5z" />
    <glyph glyph-name="seven" unicode="7" horiz-adv-x="514" 
d="M526 625l-359 -625h-113l357 610h-263l-35 -95h-73l30 185h469z" />
    <glyph glyph-name="eight" unicode="8" horiz-adv-x="630" 
d="M580 564q0 -71 -42 -119.5t-112 -73.5q52 -24 81.5 -56t29.5 -86q0 -103 -83 -171t-201 -68q-102 0 -152.5 44.5t-50.5 111.5q0 148 166 221q-93 50 -93 130q0 94 71.5 153.5t196.5 59.5q92 0 140.5 -39.5t48.5 -106.5zM367 625q-58 0 -99 -30.5t-41 -83.5q0 -23 9 -40.5
t30 -31t36.5 -20.5t46.5 -19q51 18 88.5 56t37.5 87q0 38 -28 60t-80 22zM275 76q70 0 111 39t41 97q0 23 -9.5 40.5t-32.5 32.5t-39.5 23t-50.5 23q-62 -29 -98.5 -66t-36.5 -95q0 -45 30 -69.5t85 -24.5z" />
    <glyph glyph-name="nine" unicode="9" horiz-adv-x="622" 
d="M425 325q-9 -6 -24 -14t-60.5 -22t-89.5 -14q-80 0 -131 44t-51 124q0 110 80 188.5t195 78.5q88 0 148 -53t60 -170q0 -63 -14 -128.5t-46.5 -132.5t-80 -119t-121.5 -84.5t-164 -32.5q-18 0 -37 2.5t-29 5.5l-10 2l13 80q36 -5 77 -5q49 0 91 14t70.5 36t51.5 48.5
t36 53t21.5 48.5t11.5 36zM442 405q9 46 9 82q0 70 -33.5 104t-87.5 34q-70 0 -113 -48t-43 -121q0 -96 119 -96q35 0 72 11t57 23z" />
    <glyph glyph-name="colon" unicode=":" horiz-adv-x="288" 
d="M91 370q0 35 20.5 60t56.5 25q55 0 55 -55q0 -34 -20.5 -59.5t-57.5 -25.5q-54 0 -54 55zM40 45q0 35 20.5 60t56.5 25q55 0 55 -55q0 -34 -20.5 -59.5t-57.5 -25.5q-54 0 -54 55z" />
    <glyph glyph-name="semicolon" unicode=";" horiz-adv-x="297" 
d="M95 370q0 35 20.5 60t56.5 25q55 0 55 -55q0 -34 -20.5 -59.5t-57.5 -25.5q-54 0 -54 55zM46 51q0 -13 7 -31t7 -27q0 -13 -17.5 -40t-34.5 -48l-18 -21l38 -38q6 5 16 15t35 38t44.5 54.5t35.5 60.5t16 61q0 55 -54 55q-33 0 -54 -24t-21 -55z" />
    <glyph glyph-name="less" unicode="&#x3c;" horiz-adv-x="612" 
d="M510 -5l-460 235l12 70l537 230l-14 -87l-420 -180l359 -185z" />
    <glyph glyph-name="equal" unicode="=" horiz-adv-x="600" 
d="M562 410l-13 -80h-480l13 80h480zM530 215l-13 -80h-480l13 80h480z" />
    <glyph glyph-name="greater" unicode="&#x3e;" horiz-adv-x="609" 
d="M99 530l460 -235l-12 -70l-537 -230l14 87l420 180l-359 185z" />
    <glyph glyph-name="question" unicode="?" horiz-adv-x="458" 
d="M128 230v64q0 37 22.5 70.5t55 59t65 50.5t55 56.5t22.5 66.5q0 65 -92 65q-22 0 -48.5 -3t-41.5 -6l-15 -3l-5 72q72 23 137 23q170 0 170 -130q0 -47 -24.5 -89.5t-59.5 -73t-70 -58t-59.5 -56.5t-24.5 -57v-45zM217 75q0 -35 -20.5 -60t-56.5 -25q-55 0 -55 55
q0 34 20.5 59.5t57.5 25.5q54 0 54 -55z" />
    <glyph glyph-name="at" unicode="@" horiz-adv-x="820" 
d="M486 277q-2 -5 -5.5 -13t-16.5 -28t-28 -35.5t-40 -28.5t-53 -13q-47 0 -74 35t-27 86q0 124 61 194t144 70q21 0 41.5 -6t29.5 -12l10 -5l18 15h43l-36 -227q-4 -32 -4 -39q0 -46 34 -46q47 0 72 62.5t25 131.5q0 103 -59 160t-171 57q-93 0 -163.5 -49.5t-106.5 -131
t-36 -180.5q0 -102 53 -155.5t152 -53.5q28 0 58.5 6.5t46.5 12.5l17 6l30 -60q-70 -40 -169 -40q-132 0 -202 69t-70 198q0 125 45.5 226.5t139.5 164t222 62.5q141 0 217 -72.5t76 -202.5q0 -110 -50.5 -193t-141.5 -83q-26 0 -44 10.5t-25.5 27.5t-10.5 31t-3 30z
M492 403l15 69q-25 11 -61 11q-48 0 -87 -49.5t-39 -133.5q0 -74 40 -74q22 0 44 18t37 44t27 52.5t18 44.5z" />
    <glyph glyph-name="A" unicode="A" horiz-adv-x="712" 
d="M210 190l-55 -111l84 -19l-10 -60h-265l9 60l85 20l320 615l99 5l120 -623l68 -17l-10 -60h-265l9 60l86 20l-20 110h-255zM451 270l-51 301l-151 -301h202z" />
    <glyph glyph-name="B" unicode="B" horiz-adv-x="629" 
d="M101 640l9 55l185 5h104q84 0 139.5 -39t55.5 -114q0 -77 -47 -123.5t-109 -60.5q132 -30 132 -135q0 -108 -75.5 -168t-194.5 -60h-302l10 60l89 20l85 540zM247 400h73q27 0 53.5 6.5t54 20.5t44 42.5t16.5 67.5t-27.5 61t-71.5 22h-107zM197 80h93q82 0 127.5 40
t45.5 98q0 59 -37.5 83t-115.5 24h-75z" />
    <glyph glyph-name="C" unicode="C" horiz-adv-x="638" 
d="M636 490l27 170q-11 6 -31 14t-75.5 22t-104.5 14q-170 0 -281 -131t-111 -335q0 -117 66 -185.5t182 -68.5q145 0 278 107l-36 59q-103 -76 -222 -76q-71 0 -114.5 50t-43.5 133q0 94 31.5 176t92.5 134t138 52q73 0 134 -25l12 -110h58z" />
    <glyph glyph-name="D" unicode="D" horiz-adv-x="704" 
d="M105 640l9 55l185 5h129q112 0 180 -63t68 -172q0 -222 -109.5 -343.5t-298.5 -121.5h-265l10 60l86 19l87 541zM201 80h82q136 0 212 102t76 270q0 80 -40 124t-118 44h-126z" />
    <glyph glyph-name="E" unicode="E" 
d="M110 640l9 55l186 5h301l-27 -170h-56l-10 90h-221l-35 -215h228l-12 -80h-228l-39 -245h227l37 102h66l-31 -182h-497l10 60l88 20l86 540z" />
    <glyph glyph-name="F" unicode="F" horiz-adv-x="547" 
d="M479 395l-12 -80h-228l-38 -235l98 -20l-10 -60h-286l10 60l88 20l87 540l-83 20l9 55l186 5h301l-27 -170h-56l-10 90h-221l-37 -225h229z" />
    <glyph glyph-name="G" unicode="G" horiz-adv-x="726" 
d="M323 -10q140 0 269 60l35 220l77 15l10 60l-260 -5l-9 -55l85 -15l-27 -167q-72 -27 -155 -27q-89 0 -133.5 49.5t-44.5 137.5q0 93 32 175.5t94 134.5t139 52q76 0 131 -22l12 -104h58l27 161q-11 6 -31 14t-75.5 22t-104.5 14q-170 0 -281 -130.5t-111 -335.5
q0 -115 70.5 -184.5t192.5 -69.5z" />
    <glyph glyph-name="H" unicode="H" horiz-adv-x="775" 
d="M519 79l39 241h-326l-38 -240l87 -20l-10 -60h-273l10 60l86 19l87 541l-82 20l9 55l275 5l-10 -60l-92 -20l-36 -220h326l35 220l-91 20l9 55l279 5l-10 -60l-87 -20l-87 -540l84 -20l-10 -60h-278l10 60z" />
    <glyph glyph-name="I" unicode="I" horiz-adv-x="363" 
d="M105 640l9 55l273 5l-10 -60l-88 -20l-87 -540l84 -20l-10 -60h-273l10 60l90 20l86 540z" />
    <glyph glyph-name="J" unicode="J" horiz-adv-x="347" 
d="M99 640l9 55l273 5l-10 -60l-87 -20l-92 -575q-14 -91 -71 -143t-144 -52l-62 5l21 75h49q88 0 104 95l95 595z" />
    <glyph glyph-name="K" unicode="K" horiz-adv-x="649" 
d="M471 79l-130 241h-102l-38 -240l85 -20l-10 -60h-273l10 60l88 20l87 540l-84 20l9 55l274 5l-10 -60l-89 -20l-36 -220h92l216 295l148 5l-10 -60l-85 -20l-189 -253l157 -287l71 -20l-10 -60h-260l10 60z" />
    <glyph glyph-name="L" unicode="L" horiz-adv-x="521" 
d="M3 60l89 20l86 540l-83 20l8 55l279 5l-10 -60l-94 -20l-86 -540h206l39 115h68l-33 -195h-479z" />
    <glyph glyph-name="M" unicode="M" horiz-adv-x="870" 
d="M718 80l85 540l85 20l10 60l-209 -5l-244 -396l-119 401l-217 -5l-9 -55l83 -20l-87 -540l-88 -20l-10 -60h269l10 60l-88 20l77 480l113 -385l82 5l234 376l-76 -476l-84 -20l-10 -60h263l10 60z" />
    <glyph glyph-name="N" unicode="N" horiz-adv-x="780" 
d="M101 640l83 -20l-86 -540l-89 -20l-11 -60h260l11 60l-82 20l77 483l244 -563h113l98 620l85 20l10 60l-255 -5l-9 -55l80 -20l-76 -479l-234 559l-210 -5z" />
    <glyph glyph-name="O" unicode="O" horiz-adv-x="735" 
d="M299 -10q175 0 289.5 130t114.5 345q0 110 -67 177.5t-186 67.5q-169 0 -280.5 -133t-111.5 -343q0 -113 64.5 -178.5t176.5 -65.5zM593 452q0 -162 -76.5 -269.5t-195.5 -107.5q-72 0 -112.5 43t-40.5 126q0 158 74 269.5t191 111.5q75 0 117.5 -42.5t42.5 -130.5z" />
    <glyph glyph-name="P" unicode="P" horiz-adv-x="571" 
d="M294 700h105q80 0 138 -37.5t58 -122.5q0 -79 -27.5 -136t-74.5 -87t-97 -43.5t-106 -13.5h-66l-29 -181l86 -19l-10 -60h-273l10 60l87 20l86 540l-81 20l9 55zM236 340h67q100 0 143.5 50.5t43.5 128.5q0 30 -11 51t-29 31t-35 14.5t-34 4.5h-100z" />
    <glyph glyph-name="Q" unicode="Q" horiz-adv-x="741" 
d="M507 -62l-90 69q130 41 208 164t78 304q0 105 -67 170t-186 65q-169 0 -280.5 -133t-111.5 -343q0 -106 57 -170.5t157 -72.5l176 -120q77 -53 120 -53q24 0 64 14t68 28l29 15l-29 60q-65 -35 -99 -35q-45 0 -94 38zM593 462q0 -169 -76 -278t-196 -109q-72 0 -112.5 43
t-40.5 126q0 158 74 269.5t191 111.5q160 0 160 -163z" />
    <glyph glyph-name="R" unicode="R" horiz-adv-x="630" 
d="M444 0l-56 185q-22 73 -48.5 96.5t-78.5 23.5h-29l-35 -225l86 -20l-10 -60h-275l10 60l88 20l86 540l-81 20l8 55l186 5h108q82 0 138.5 -39t56.5 -113q0 -86 -48 -143.5t-127 -82.5q30 -25 59 -112l44 -130l72 -20l-10 -60h-144zM244 380h74q78 0 126.5 39.5
t48.5 110.5q0 90 -108 90h-103z" />
    <glyph glyph-name="S" unicode="S" horiz-adv-x="578" 
d="M61 205l-28 -175q88 -40 187 -40q73 0 135 26.5t103.5 85t41.5 137.5q0 52 -29 88t-70.5 55t-83 35.5t-70.5 41.5t-29 61q0 44 37.5 74.5t99.5 30.5q21 0 45.5 -4.5t38.5 -8.5l14 -5l14 -107h56l32 170q-98 40 -184 40q-106 0 -183 -57.5t-77 -167.5q0 -41 15.5 -72
t40.5 -50t55 -34t60 -27t55 -25.5t40.5 -33.5t15.5 -47q0 -55 -49 -88t-109 -33q-26 0 -52.5 5.5t-39.5 10.5l-13 5l-3 109h-66z" />
    <glyph glyph-name="T" unicode="T" horiz-adv-x="549" 
d="M584 520h-64l-10 100h-129l-86 -540l96 -20l-10 -60h-299l10 60l103 20l86 540h-130l-41 -100h-65l30 180h538z" />
    <glyph glyph-name="U" unicode="U" horiz-adv-x="765" 
d="M705 620l-52 -325q-23 -149 -96.5 -227t-220.5 -78q-118 0 -169 52.5t-51 147.5q0 31 7 80l56 350l-85 20l9 55l274 5l-10 -60l-87 -20l-56 -350q-6 -36 -6 -69q0 -61 30.5 -93.5t106.5 -32.5q89 0 133 48t62 162l54 335l-90 20l9 55l276 5l-10 -60z" />
    <glyph glyph-name="V" unicode="V" horiz-adv-x="672" 
d="M44 640l9 55l177 5l96 -555l217 475l-80 20l10 55l268 5l-10 -60l-82 -20l-304 -620h-95l-121 620z" />
    <glyph glyph-name="W" unicode="W" horiz-adv-x="967" 
d="M44 640l9 55l177 5v-1l1 1l75 -515l222 510l63 5l80 -522l188 442l-86 20l10 55l268 5l-10 -60l-77 -19l-287 -621h-63l-87 485l-42 -102l-182 -383h-65l-110 620z" />
    <glyph glyph-name="X" unicode="X" horiz-adv-x="626" 
d="M521 80l-138 282l206 256l107 22l10 60l-265 -5l-10 -55l53 -14l-149 -189l-87 187l63 16l10 60l-267 -5l-10 -55l84 -19l133 -270l-213 -272l-93 -19l-10 -60h265l10 60l-63 18l154 197l94 -202l-64 -13l-10 -60h267l10 60z" />
    <glyph glyph-name="Y" unicode="Y" horiz-adv-x="606" 
d="M133 620l-84 20l9 55l155 5l100 -366l168 287l-90 19l10 55l269 5l-10 -60l-80 -20l-247 -389l-24 -151l83 -20l-10 -60h-273l10 60l90 20l28 182z" />
    <glyph glyph-name="Z" unicode="Z" horiz-adv-x="587" 
d="M578 634l-419 -554h268l36 102h66l-29 -182h-471l5 70l416 549h-264l-40 -89h-56l24 170h469z" />
    <glyph glyph-name="bracketleft" unicode="[" horiz-adv-x="345" 
d="M22 -230l159 1000l210 -5l-10 -65l-120 -11l-133 -838l118 -11l-10 -65z" />
    <glyph glyph-name="backslash" unicode="\" horiz-adv-x="506" 
d="M303 0l-214 700h89l214 -700h-89z" />
    <glyph glyph-name="bracketright" unicode="]" horiz-adv-x="345" 
d="M333 770l-159 -1000l-210 5l9 65l121 11l133 838l-118 11l11 65z" />
    <glyph glyph-name="asciicircum" unicode="^" horiz-adv-x="570" 
d="M33 320l248 380h68l125 -380h-83l-93 280l-179 -280h-86z" />
    <glyph glyph-name="underscore" unicode="_" horiz-adv-x="498" 
d="M434 -80v-70h-500v70h500z" />
    <glyph glyph-name="grave" unicode="`" horiz-adv-x="249" 
d="M43 803l206 -147l-31 -53l-218 125z" />
    <glyph glyph-name="a" unicode="a" horiz-adv-x="593" 
d="M532 10l-186 -10l40 184q-7 -14 -13.5 -26t-30 -46.5t-47 -58t-60 -43.5t-73.5 -20q-56 0 -93.5 50t-37.5 125q0 174 88.5 274.5t209.5 100.5q29 0 57 -7.5t42 -14.5l13 -8l30 20h55l-72 -450l87 -15zM399 345l20 105q-38 15 -90 15q-80 0 -139 -72.5t-59 -212.5
q0 -51 17 -78t44 -27q34 0 67.5 28t57.5 67.5t43.5 79t29.5 67.5z" />
    <glyph glyph-name="b" unicode="b" horiz-adv-x="582" 
d="M228 530l-40 -184q3 8 11 24.5t28 48t44 57t60.5 45t75.5 19.5q64 0 99 -52t35 -128q0 -165 -92 -267.5t-217 -102.5q-43 0 -88 7.5t-69 14.5l-24 8l107 670l-83 20l9 55l183 5zM179 185l-21 -105q39 -15 84 -15q74 0 136.5 74t62.5 206q0 47 -17 78.5t-52 31.5
q-34 0 -66.5 -28t-54.5 -67.5t-39 -79t-25 -67.5z" />
    <glyph glyph-name="c" unicode="c" horiz-adv-x="455" 
d="M446 365l22 135q-60 40 -140 40q-129 0 -212 -101t-83 -264q0 -87 48.5 -136t126.5 -49q44 0 94 18.5t78 37.5l28 19l-30 50q-80 -45 -150 -45q-95 0 -95 110q0 115 49 197.5t131 82.5q18 0 34.5 -2.5t23.5 -5.5l7 -2l3 -85h65z" />
    <glyph glyph-name="d" unicode="d" horiz-adv-x="581" 
d="M530 10l-183 -10l44 184q-4 -9 -12.5 -25.5t-30 -47.5t-46 -56.5t-61 -45t-73.5 -19.5q-58 0 -95 49.5t-37 125.5q0 173 87.5 274t208.5 101q54 0 96 -22l28 172l-85 20l9 55l185 5l-112 -690l86 -15zM401 345l16 105q-35 15 -85 15q-86 0 -141 -79.5t-55 -200.5
q0 -53 16.5 -81.5t45.5 -28.5q34 0 67 28t56.5 67.5t42 79t28.5 67.5z" />
    <glyph glyph-name="e" unicode="e" horiz-adv-x="496" 
d="M484 410q0 -86 -97.5 -139.5t-253.5 -53.5q-3 -22 -3 -43q0 -104 110 -104q32 0 73 11t66 23l25 11l30 -51q-12 -8 -33 -20.5t-80 -33t-111 -20.5q-82 0 -131 49t-49 131q0 155 84.5 262.5t204.5 107.5q76 0 120.5 -35.5t44.5 -94.5zM142 287q107 0 177 32t70 81
q0 32 -19 49t-50 17q-53 0 -106.5 -47.5t-71.5 -131.5z" />
    <glyph glyph-name="f" unicode="f" horiz-adv-x="352" 
d="M419 700h-49q-49 0 -70.5 -24.5t-29.5 -70.5l-13 -80h141l-13 -75h-140l-75 -470q-35 -220 -205 -220q-16 0 -36.5 3t-33.5 7l-13 3l17 64h71q82 0 102 123l77 490h-94l10 65l96 10l10 60q31 195 199 195q31 0 66 -5t54 -10l20 -5l-26 -140h-65v80z" />
    <glyph glyph-name="g" unicode="g" horiz-adv-x="558" 
d="M530 530l-89 -554q-17 -107 -78 -164t-158 -57q-39 0 -85 10.5t-72 20.5l-27 10l24 72q87 -31 150 -31q123 0 151 133l45 214q-7 -14 -13.5 -26t-30 -46.5t-47.5 -58t-61 -43.5t-74 -20q-56 0 -92.5 49.5t-36.5 125.5q0 174 88 274.5t208 100.5q30 0 58.5 -7.5
t41.5 -14.5l13 -8l30 20h55zM403 345l19 105q-36 15 -90 15q-79 0 -137.5 -72.5t-58.5 -210.5q0 -53 16.5 -80t44.5 -27q34 0 67.5 28t57.5 67.5t43 79t29 67.5z" />
    <glyph glyph-name="h" unicode="h" horiz-adv-x="626" 
d="M277 770l-77 -434q3 9 11.5 26t30 50t47 60t65 47.5t82.5 20.5q109 0 109 -121q0 -24 -5 -59l-45 -280l84 -15l-9 -55l-183 -10l57 345q4 30 4 44q0 66 -52 66q-36 0 -71 -28.5t-59 -68.5t-42.5 -80.5t-27.5 -69.5l-9 -28l-33 -180h-95l110 690l-84 20l9 55z" />
    <glyph glyph-name="i" unicode="i" horiz-adv-x="310" 
d="M205 625q33 0 51.5 26t18.5 64q0 23 -15 36.5t-40 13.5q-33 0 -51.5 -26t-18.5 -64q0 -23 15 -36.5t40 -13.5zM249 10l9 55l-85 15l72 450l-183 -5l-10 -55l85 -20l-72 -450z" />
    <glyph glyph-name="j" unicode="j" horiz-adv-x="295" 
d="M200 625q33 0 51.5 26t18.5 64q0 23 -15 36.5t-40 13.5q-33 0 -51.5 -26t-18.5 -64q0 -23 15 -36.5t40 -13.5zM132 450l-78 -485q-12 -70 -36 -100t-76 -30l-60 5l-20 -65q40 -15 80 -15q86 0 138 51.5t67 143.5l94 575l-185 -5l-10 -55z" />
    <glyph glyph-name="k" unicode="k" horiz-adv-x="540" 
d="M285 329l97 129l-42 12l8 55l214 5l-10 -60l-73 -13l-129 -156l93 -221l79 -25l-10 -55h-136l-101 255h-86l-40 -255h-95l111 690l-85 20l9 55l183 5l-71 -441h84z" />
    <glyph glyph-name="l" unicode="l" horiz-adv-x="291" 
d="M240 10l9 55l-85 15l110 690l-185 -5l-9 -55l84 -20l-110 -690z" />
    <glyph glyph-name="m" unicode="m" horiz-adv-x="942" 
d="M383 0l56 345q4 30 4 44q0 66 -52 66q-35 0 -69 -28.5t-57 -68.5t-41.5 -80.5t-27.5 -69.5l-8 -28l-29 -180h-95l72 450l-84 20l9 55l182 5l-43 -194q4 10 11 26t28 50t46 60t64 47t82 21q107 0 107 -122q0 -25 -5 -62q12 29 28 55.5t42.5 58.5t65 51t82.5 19
q110 0 110 -123q0 -24 -5 -57l-46 -280l85 -15l-9 -55l-184 -10l57 345q4 30 4 43q0 67 -52 67q-36 0 -70.5 -29t-58 -70.5t-41.5 -83t-27 -70.5l-9 -29l-27 -173h-95z" />
    <glyph glyph-name="n" unicode="n" horiz-adv-x="634" 
d="M394 0l56 345q4 30 4 44q0 66 -52 66q-36 0 -71.5 -28.5t-60 -68.5t-44 -80.5t-28.5 -69.5l-10 -28l-29 -180h-95l72 450l-84 20l9 55l183 5l-45 -194q6 13 13 26.5t31 49t49.5 61t66 46.5t83.5 21q111 0 111 -123q0 -24 -5 -57l-46 -280l85 -15l-9 -55z" />
    <glyph glyph-name="o" unicode="o" horiz-adv-x="550" 
d="M218 -10q131 0 214.5 96t83.5 257q0 88 -49 142.5t-139 54.5q-130 0 -212 -97.5t-82 -254.5q0 -90 49.5 -144t134.5 -54zM417 345q0 -123 -48 -199t-133 -76q-47 0 -74.5 28.5t-27.5 86.5q0 116 46 195.5t130 79.5q107 0 107 -115z" />
    <glyph glyph-name="p" unicode="p" horiz-adv-x="590" 
d="M237 530l-40 -184q5 13 17.5 36.5t40.5 63t72.5 67t94.5 27.5q63 0 97.5 -52t34.5 -128q0 -165 -89 -267.5t-213 -102.5q-54 0 -98 24l-26 -164l76 -25l-10 -55h-255l9 55l85 25l96 600l-82 20l9 55zM185 185l-20 -105q42 -15 92 -15q72 0 134.5 74t62.5 206
q0 46 -16.5 78t-50.5 32q-35 0 -68.5 -28t-56.5 -67.5t-41.5 -79t-26.5 -67.5z" />
    <glyph glyph-name="q" unicode="q" horiz-adv-x="558" 
d="M422 -150l76 -25l-9 -55h-259l9 55l88 25l23 150l44 185q-4 -8 -11 -21t-30 -46.5t-48 -59.5t-62.5 -47t-74.5 -21q-56 0 -94 50t-38 125q0 175 89 275t209 100q31 0 59.5 -7.5t41.5 -14.5l13 -8l31 20h52zM406 345l20 105q-42 15 -92 15q-80 0 -139 -73t-59 -212
q0 -51 17 -78t45 -27q34 0 67.5 28t58 67.5t43.5 79t29 67.5z" />
    <glyph glyph-name="r" unicode="r" horiz-adv-x="426" 
d="M371 380v70q-29 0 -58.5 -27t-50.5 -65t-37.5 -76t-24.5 -65l-9 -27l-32 -190h-95l73 450l-85 20l9 55l184 5l-39 -174q5 12 10.5 25t25 44.5t41.5 54.5t58 41.5t75 18.5q11 0 23.5 -2.5t19.5 -5.5l7 -2l-30 -150h-65z" />
    <glyph glyph-name="s" unicode="s" horiz-adv-x="460" 
d="M45 160l-24 -145q70 -25 150 -25q102 0 163.5 46t61.5 124q0 39 -23 68t-56 47t-66.5 34t-56.5 37.5t-23 48.5q0 36 26 54t69 18q19 0 35.5 -2.5t22.5 -4.5l7 -2l6 -78h65l24 135q-75 25 -148 25q-88 0 -145 -40.5t-57 -119.5q0 -42 22.5 -72.5t55 -48.5t65 -33t55 -35
t22.5 -46q0 -40 -30 -61t-80 -21q-20 0 -39 3t-27 6l-9 3l-1 85h-65z" />
    <glyph glyph-name="t" unicode="t" horiz-adv-x="366" 
d="M309 90l16 -54q-75 -46 -131 -46q-101 0 -101 119q0 29 6 64l44 277h-99l11 65l100 10l20 126l99 20l-24 -146h138l-12 -75h-138l-43 -267q-6 -39 -6 -63q0 -27 9 -38.5t30 -11.5q12 0 32.5 5t34.5 10z" />
    <glyph glyph-name="u" unicode="u" horiz-adv-x="636" 
d="M391 0l41 194q-4 -10 -12 -26.5t-31 -50t-48.5 -60t-66 -47t-82.5 -20.5q-111 0 -111 122q0 43 51 338l-85 20l9 55l183 5q-59 -356 -59 -389q0 -66 52 -66q37 0 73 28.5t60 69t43 80.5t28 69l9 28l30 180h95l-72 -450l86 -15l-9 -55z" />
    <glyph glyph-name="v" unicode="v" horiz-adv-x="525" 
d="M279 0h-108l-94 451l-70 19l9 55l152 5l66 -360l10 -75l165 357l-80 18l9 55l224 5l-10 -60l-50 -16z" />
    <glyph glyph-name="w" unicode="w" horiz-adv-x="776" 
d="M553 0h-115l-46 340l-13 -50l-112 -290h-113l-72 455l-70 15l9 55l157 5l50 -435l163 430l71 5l51 -435l147 356l-85 19l9 55l229 5l-10 -60l-49 -12z" />
    <glyph glyph-name="x" unicode="x" horiz-adv-x="545" 
d="M354 0l154 10l9 55l-87 15l-96 197l140 172l86 21l10 60l-142 -5l-142 -185l-85 190l-157 -5l-9 -55l85 -20l94 -188l-139 -179l-91 -28l-9 -55h141l145 198z" />
    <glyph glyph-name="y" unicode="y" horiz-adv-x="527" 
d="M505 454l-185 -421q-30 -67 -49.5 -106.5t-42 -75.5t-43 -53.5t-46 -27.5t-57.5 -10q-25 0 -53.5 4t-44.5 8l-15 4l21 64q40 -5 75 -5q51 0 79 27t61 99l-122 490l-69 19l12 55l151 5l78 -367l8 -68l154 357l-75 18l10 55l220 5l-11 -60z" />
    <glyph glyph-name="z" unicode="z" horiz-adv-x="462" 
d="M450 465l-319 -387h188l32 82h60l-21 -160h-385l5 70l320 385h-174l-32 -75h-65l23 150h373z" />
    <glyph glyph-name="braceleft" unicode="{" horiz-adv-x="370" 
d="M270 605l-29 -171q-17 -106 -110 -139q68 -27 68 -105q0 -16 -3 -34l-34 -211q-3 -19 -3 -34q0 -39 24.5 -55t83.5 -16l-11 -65h-37q-80 0 -116 27t-36 90q0 20 5 53l34 211q3 18 3 35q0 34 -17 51.5t-59 17.5l12 70q51 0 74.5 27t31.5 77l28 171q15 93 61 131.5
t140 38.5h36l-9 -65q-71 0 -98.5 -22t-38.5 -83z" />
    <glyph glyph-name="bar" unicode="|" horiz-adv-x="265" 
d="M172 755h78l-157 -985h-78z" />
    <glyph glyph-name="braceright" unicode="}" horiz-adv-x="375" 
d="M354 330l-11 -70q-52 0 -77 -27t-32 -77l-33 -211q-15 -92 -61.5 -131t-136.5 -39h-41l11 65q69 0 99 22.5t39 82.5l33 211q16 105 112 139q-72 29 -72 107q0 16 3 32l29 171q3 18 3 33q0 40 -24 56t-84 16l11 65h42q76 0 111.5 -27t35.5 -90q0 -20 -5 -53l-29 -171
q-3 -18 -3 -33q0 -71 80 -71z" />
    <glyph glyph-name="asciitilde" unicode="~" horiz-adv-x="626" 
d="M100 209l-40 35q2 4 7 11t21 24.5t34 30.5t45.5 24t56.5 11q47 0 104.5 -35t95.5 -35q24 0 49 14.5t38 29.5l13 15l41 -35q-3 -4 -8 -11t-22 -25t-34 -32t-43 -25t-51 -11q-47 0 -110 35t-100 35q-24 0 -48.5 -14t-36.5 -28z" />
    <glyph glyph-name="nbspace" unicode="&#xa0;" horiz-adv-x="280" 
 />
    <glyph glyph-name="exclamdown" unicode="&#xa1;" horiz-adv-x="305" 
d="M118 465q0 35 20.5 60t56.5 25q55 0 55 -55q0 -34 -20.5 -59.5t-57.5 -25.5q-54 0 -54 55zM199 295l-66 -505h-113l96 500z" />
    <glyph glyph-name="cent" unicode="&#xa2;" horiz-adv-x="478" 
d="M460 436l25 135q-57 38 -134 40l15 88l-74 -5l-15 -90q-104 -20 -165.5 -101.5t-61.5 -212.5q0 -66 41.5 -115.5t104.5 -60.5l-18 -114h73l18 114q38 7 79.5 25t63.5 33l23 14l-30 50q-1 -1 -15 -9t-19 -10.5t-20 -9t-26 -9t-28.5 -5t-36.5 -2.5q-48 0 -79 32.5t-31 83.5
q0 97 48.5 160.5t131.5 63.5q18 0 34.5 -2.5t23.5 -4.5l7 -3v-85h65z" />
    <glyph glyph-name="sterling" unicode="&#xa3;" horiz-adv-x="602" 
d="M13 60l57 15q34 9 49 36.5t26 93.5q3 17 14 130h-102l10 63l99 11q6 61 12 101q15 94 72 147t156 53q52 0 101 -7.5t72 -14.5l23 -8l-27 -171h-56l-13 115q-54 6 -108 6q-102 0 -119 -100l-15 -121h163l-12 -74h-157q-9 -87 -14 -120q-7 -44 -23.5 -78t-28.5 -45l-13 -12
h247l37 102h66l-30 -182h-495z" />
    <glyph glyph-name="currency" unicode="&#xa4;" horiz-adv-x="579" 
d="M26 110l86 77q-10 24 -10 59q0 89 51 156l-68 84l57 52l68 -83q56 35 121 35q58 0 96 -27l87 75l39 -52l-83 -74q12 -27 12 -62q0 -92 -53 -161l65 -79l-57 -52l-65 78q-51 -31 -114 -31q-64 0 -105 29l-88 -76zM315 421q-56 0 -91 -44t-35 -118q0 -41 23.5 -63t63.5 -22
q52 0 85.5 43.5t33.5 113.5q0 90 -80 90z" />
    <glyph glyph-name="yen" unicode="&#xa5;" horiz-adv-x="629" 
d="M143 620l-94 20l9 55l165 5l100 -366l168 287l-75 19l10 55l257 5l-10 -60l-83 -20l-166 -260h119l-11 -70h-441l11 70h117zM219 80l12 75h-161l11 70h441l-11 -70h-180l-12 -75l83 -20l-10 -60h-273l10 60z" />
    <glyph glyph-name="brokenbar" unicode="&#xa6;" horiz-adv-x="272" 
d="M179 765h78l-64 -400h-78zM80 145h78l-65 -410h-78z" />
    <glyph glyph-name="section" unicode="&#xa7;" horiz-adv-x="550" 
d="M487 304q0 -111 -101 -176q16 -30 16 -65q0 -91 -66 -152t-158 -61q-36 0 -71.5 7.5t-53.5 14.5l-18 8l30 160h63l4 -105q25 -5 61 -5q42 0 77 29t35 75q0 26 -17.5 50.5t-43 42.5t-56 40.5t-56 44t-43 52.5t-17.5 67q0 61 33 107.5t68 63.5q-15 35 -15 66
q0 93 67.5 152.5t159.5 59.5q35 0 70 -7.5t53 -14.5l17 -8l-29 -160h-59l-7 105q-31 5 -56 5q-49 0 -84 -29.5t-35 -74.5q0 -30 24 -58t58 -51t68 -47.5t58 -59.5t24 -76zM346 181q45 39 45 92q0 34 -28.5 62t-77.5 60t-71 54q-46 -31 -46 -93q0 -32 29 -60.5t78 -60.5
t71 -54z" />
    <glyph glyph-name="dieresis" unicode="&#xa8;" horiz-adv-x="515" 
d="M102 685q0 31 18 53t46 22q46 0 46 -46q0 -30 -19 -52t-46 -22q-21 0 -33 12t-12 33zM303 685q0 31 18 53t46 22q46 0 46 -46q0 -30 -19 -52t-46 -22q-21 0 -33 12t-12 33z" />
    <glyph glyph-name="copyright" unicode="&#xa9;" horiz-adv-x="820" 
d="M45 345q0 157 103.5 261t261.5 104q159 0 262 -99.5t103 -255.5q0 -157 -108 -261t-267 -104q-158 0 -256.5 99t-98.5 256zM125 350q0 -128 76.5 -208t203.5 -80q128 0 209 80.5t81 207.5t-81 207.5t-209 80.5q-127 0 -203.5 -80t-76.5 -208zM410 155q-84 0 -132 48
t-48 140q0 95 50 151.5t137 56.5q28 0 60 -7.5t49 -15.5l18 -8l-2 -106h-56l-14 68q-27 8 -62 8q-95 0 -95 -142q0 -128 100 -128q24 0 50.5 11t41.5 22l15 11l27 -46q-7 -7 -19 -17.5t-48 -28t-72 -17.5z" />
    <glyph glyph-name="ordfeminine" unicode="&#xaa;" horiz-adv-x="478" 
d="M438 328l-147 -4l29 132q-5 -11 -14.5 -27t-30.5 -45t-51.5 -48.5t-62.5 -19.5q-44 0 -70.5 39t-26.5 93q0 121 64.5 191.5t153.5 70.5q21 0 41 -6t30 -12l10 -5l21 16h49l-55 -318l66 -14zM333 570l14 70q-29 10 -65 10q-53 0 -95.5 -48t-42.5 -147q0 -36 12.5 -54.5
t29.5 -18.5q23 0 46.5 19.5t40.5 47t31 55t22 46.5zM399 235l-11 -70h-343l11 70h343z" />
    <glyph glyph-name="guillemotleft" unicode="&#xab;" horiz-adv-x="540" 
d="M176 80l-116 163l9 60l160 145l51 -45l-127 -134l79 -149zM392 80l-121 163l9 60l165 145l51 -45l-132 -134l84 -149z" />
    <glyph glyph-name="logicalnot" unicode="&#xac;" horiz-adv-x="615" 
d="M576 355l-43 -270h-83l30 190h-407l13 80h490z" />
    <glyph glyph-name="softhyphen" unicode="&#xad;" horiz-adv-x="382" 
d="M317 315l-14 -85h-254l14 85h254z" />
    <glyph glyph-name="registered" unicode="&#xae;" horiz-adv-x="720" 
d="M75 450q0 131 87 218t218 87q132 0 218.5 -82.5t86.5 -212.5t-91.5 -217.5t-223.5 -87.5q-131 0 -213 82t-82 213zM150 455q0 -106 60.5 -170.5t164.5 -64.5q105 0 170 65t65 170t-65 170t-170 65q-104 0 -164.5 -64.5t-60.5 -170.5zM275 345v232l-40 8v37l150 3
q51 0 84 -24.5t33 -67.5q0 -65 -62 -88q18 -18 28 -37l32 -63l40 -10v-40h-86l-40 85q-16 35 -25.5 43.5t-29.5 8.5h-19v-87l40 -10v-40h-145v40zM340 478h35q27 0 43.5 13t16.5 37q0 22 -14.5 34.5t-40.5 12.5h-40v-97z" />
    <glyph glyph-name="macron" unicode="&#xaf;" horiz-adv-x="275" 
d="M275 735l-11 -75h-264l11 75h264z" />
    <glyph glyph-name="degree" unicode="&#xb0;" horiz-adv-x="410" 
d="M56 574q0 65 46 113t116 48q59 0 97 -34t38 -99q0 -66 -46.5 -116.5t-115.5 -50.5q-58 0 -96.5 36t-38.5 103zM212 670q-37 0 -60.5 -26t-23.5 -64q0 -40 19 -60t50 -20q37 0 60.5 26.5t23.5 68.5q0 36 -19 55.5t-50 19.5z" />
    <glyph glyph-name="plusminus" unicode="&#xb1;" horiz-adv-x="616" 
d="M281 380l26 160h86l-26 -160h204l-13 -78h-203l-26 -162h-86l26 162h-205l12 78h205zM522 78l-12 -78h-495l12 78h495z" />
    <glyph glyph-name="twosuperior" unicode="&#xb2;" horiz-adv-x="374" 
d="M22 280l11 69q28 21 68 50t58 42.5t43.5 34t36.5 32t22.5 27t15.5 29.5t4 30q0 46 -65 46q-16 0 -31.5 -2.5t-22.5 -5.5l-8 -2l-15 -60h-59l13 109q75 26 136 26q142 0 142 -96q0 -28 -10.5 -55t-23.5 -46.5t-40.5 -44.5t-44 -37.5t-52.5 -38.5t-49 -36h192l-12 -71h-309
z" />
    <glyph glyph-name="threesuperior" unicode="&#xb3;" horiz-adv-x="345" 
d="M346 613q0 -44 -28 -73.5t-74 -40.5q33 -3 56 -23.5t23 -52.5q0 -72 -54.5 -110t-135.5 -38q-31 0 -63.5 9.5t-49.5 19.5l-17 9l28 59q54 -30 115 -30q41 0 66.5 18.5t25.5 51.5q0 51 -80 51h-45l9 61h46q95 0 95 71q0 45 -63 45q-19 0 -36 -2t-24 -4l-8 -3l-12 -48h-57
l13 103q81 19 140 19q130 0 130 -92z" />
    <glyph glyph-name="acute" unicode="&#xb4;" horiz-adv-x="238" 
d="M62 648l206 147l43 -75l-218 -125z" />
    <glyph glyph-name="micro" unicode="&#xb5;" horiz-adv-x="634" 
d="M110 -230l40 230q20 -10 41 -10q42 0 82.5 20.5t66.5 47t48.5 60t31 50t12.5 26.5l-41 -194l181 5l10 55l-86 20l74 450h-95l-33 -180q-3 -11 -9.5 -29.5t-27.5 -66t-44 -84t-58.5 -66t-71.5 -29.5q-53 0 -53 67q0 18 64 388l-185 -5l-10 -55l87 -20l-116 -680h92z" />
    <glyph glyph-name="paragraph" unicode="&#xb6;" horiz-adv-x="630" 
d="M176 -90l63 396q-62 9 -100.5 53.5t-38.5 110.5q0 98 67 164t167 66h125l169 -5l-9 -55l-86 -20l-127 -790h-86l127 790h-78l-127 -790h-168l9 60z" />
    <glyph glyph-name="periodcentered" unicode="&#xb7;" horiz-adv-x="275" 
d="M70 288q0 35 22 62t58 27q55 0 55 -55q0 -35 -20.5 -62t-57.5 -27q-57 0 -57 55z" />
    <glyph glyph-name="cedilla" unicode="&#xb8;" horiz-adv-x="436" 
d="M204 -171q-16 0 -32.5 4t-25.5 8l-8 4l-30 -41q36 -23 104 -23q46 0 80 30t34 74q0 59 -72 72l7 43h-59l-13 -79q73 0 73 -43q0 -22 -17.5 -35.5t-40.5 -13.5z" />
    <glyph glyph-name="onesuperior" unicode="&#xb9;" horiz-adv-x="322" 
d="M48 280l10 65h86l42 269l-110 -64l-22 55l158 95h68l-56 -355h86l-11 -65h-251z" />
    <glyph glyph-name="ordmasculine" unicode="&#xba;" horiz-adv-x="495" 
d="M298 710q72 0 111 -37t39 -106q0 -110 -60.5 -181t-162.5 -71q-75 0 -115 36.5t-40 107.5q0 111 63.5 181t164.5 70zM283 644q-60 0 -95.5 -45.5t-35.5 -125.5q0 -46 24.5 -69.5t66.5 -23.5q56 0 89.5 46.5t33.5 120.5q0 46 -21.5 71.5t-61.5 25.5zM386 235l-11 -70h-343
l11 70h343z" />
    <glyph glyph-name="guillemotright" unicode="&#xbb;" horiz-adv-x="541" 
d="M149 448l121 -163l-9 -60l-165 -145l-51 44l132 135l-84 149zM365 448l116 -163l-9 -60l-160 -145l-51 44l127 135l-79 149z" />
    <glyph glyph-name="onequarter" unicode="&#xbc;" horiz-adv-x="970" 
d="M80 280l10 65h91l42 265l-113 -65l-24 60l163 95h73l-56 -355h90l-11 -65h-265zM767 700l-508 -700h-92l508 700h92zM844 420l-42 -264h71l-11 -65h-71l-14 -91h-84l14 91h-203l3 59l243 280zM719 156l28 179l-154 -179h126z" />
    <glyph glyph-name="onehalf" unicode="&#xbd;" horiz-adv-x="922" 
d="M50 280l10 65h91l42 265l-113 -65l-24 60l163 95h73l-56 -355h90l-11 -65h-265zM740 700l-508 -700h-92l508 700h92zM497 0l11 69q28 21 68 50t58 42.5t43.5 34t36.5 32t22.5 27t15.5 29.5t4 30q0 46 -65 46q-16 0 -31.5 -2.5t-23.5 -5.5l-7 -2l-15 -60h-59l13 109
q75 26 136 26q142 0 142 -96q0 -27 -11 -54t-23 -45.5t-41 -45t-43 -38t-53.5 -40t-48.5 -35.5h192l-12 -71h-309z" />
    <glyph glyph-name="threequarters" unicode="&#xbe;" horiz-adv-x="947" 
d="M393 613q0 -44 -28 -73.5t-74 -40.5q33 -3 56 -23.5t23 -52.5q0 -72 -54.5 -110t-135.5 -38q-31 0 -63.5 9.5t-49.5 19.5l-17 9l28 59q54 -30 115 -30q41 0 66.5 18.5t25.5 51.5q0 51 -80 51h-45l9 61h46q95 0 95 71q0 45 -63 45q-19 0 -36 -2t-25 -4l-7 -3l-12 -48h-57
l13 103q81 19 140 19q130 0 130 -92zM779 700l-508 -700h-92l508 700h92zM856 420l-42 -264h71l-11 -65h-71l-14 -91h-84l14 91h-203l3 59l243 280zM731 156l28 179l-154 -179h126z" />
    <glyph glyph-name="questiondown" unicode="&#xbf;" horiz-adv-x="453" 
d="M246 465q0 35 20.5 60t56.5 25q55 0 55 -55q0 -34 -20.5 -59.5t-57.5 -25.5q-54 0 -54 55zM335 310v-64q0 -37 -22.5 -70t-55 -58.5l-65 -51t-55 -57t-22.5 -66.5q0 -65 92 -65q22 0 48.5 3t41.5 6l15 3l5 -72q-72 -23 -137 -23q-170 0 -170 130q0 47 24.5 89.5t59.5 73
t70 58t59.5 56.5t24.5 57v45z" />
    <glyph glyph-name="Agrave" unicode="&#xc0;" horiz-adv-x="712" 
d="M312 838l37 79l218 -122l-27 -55zM210 190l-55 -111l84 -19l-10 -60h-265l9 60l85 20l320 615l99 5l120 -623l68 -17l-10 -60h-265l9 60l86 20l-20 110h-255zM451 270l-51 301l-151 -301h202z" />
    <glyph glyph-name="Aacute" unicode="&#xc1;" horiz-adv-x="712" 
d="M400 746l-26 53l217 121l37 -79zM210 190l-55 -111l84 -19l-10 -60h-265l9 60l85 20l320 615l99 5l120 -623l68 -17l-10 -60h-265l9 60l86 20l-20 110h-255zM451 270l-51 301l-151 -301h202z" />
    <glyph glyph-name="Acircumflex" unicode="&#xc2;" horiz-adv-x="712" 
d="M458 833l-149 -83l-32 45l161 110l59 5l123 -115l-47 -45zM210 190l-55 -111l84 -19l-10 -60h-265l9 60l85 20l320 615l99 5l120 -623l68 -17l-10 -60h-265l9 60l86 20l-20 110h-255zM451 270l-51 301l-151 -301h202z" />
    <glyph glyph-name="Atilde" unicode="&#xc3;" horiz-adv-x="712" 
d="M299 766l-29 30q2 4 6 10t17 22.5t27 29t34 22.5t39 10q35 0 85.5 -23t78.5 -23q18 0 35.5 10.5t25.5 21.5l9 10l30 -30q-2 -4 -5.5 -10t-16 -21.5t-25.5 -27.5t-32.5 -21.5t-38.5 -9.5q-35 0 -85.5 22t-78.5 22q-17 0 -36 -11t-29 -22zM210 190l-55 -111l84 -19l-10 -60
h-265l9 60l85 20l320 615l99 5l120 -623l68 -17l-10 -60h-265l9 60l86 20l-20 110h-255zM451 270l-51 301l-151 -301h202z" />
    <glyph glyph-name="Adieresis" unicode="&#xc4;" horiz-adv-x="712" 
d="M301 810q0 31 18 53t46 22q46 0 46 -46q0 -30 -19 -52t-46 -22q-21 0 -33 12t-12 33zM502 810q0 31 18 53t46 22q46 0 46 -46q0 -30 -19 -52t-46 -22q-21 0 -33 12t-12 33zM210 190l-55 -111l84 -19l-10 -60h-265l9 60l85 20l320 615l99 5l120 -623l68 -17l-10 -60h-265
l9 60l86 20l-20 110h-255zM451 270l-51 301l-151 -301h202z" />
    <glyph glyph-name="Aring" unicode="&#xc5;" horiz-adv-x="712" 
d="M665 60l-10 -60h-265l9 60l86 20l-20 110h-255l-55 -111l84 -19l-10 -60h-265l9 60l85 20l319 614q-45 25 -45 78t40 93.5t92 40.5q40 0 68.5 -24.5t28.5 -66.5q0 -39 -23 -73t-59 -50l118 -615zM457 856q-29 0 -47.5 -23.5t-18.5 -54.5q0 -47 46 -47q29 0 47 23.5
t18 54.5q0 47 -45 47zM451 270l-51 301l-151 -301h202z" />
    <glyph glyph-name="AE" unicode="&#xc6;" horiz-adv-x="936" 
d="M336 640l9 55l191 5h402l-27 -170h-56l-10 90h-221l-35 -215h228l-12 -80h-228l-39 -245h227l37 102h66l-31 -182h-497l10 60l88 20l20 125h-217l-83 -128l75 -17l-10 -60h-260l10 60l85 20l357 540zM292 285h178l54 335h-17z" />
    <glyph glyph-name="Ccedilla" unicode="&#xc7;" horiz-adv-x="638" 
d="M432 625q-77 0 -138 -52t-92.5 -134t-31.5 -176q0 -83 43.5 -133t114.5 -50q119 0 222 76l36 -59q-117 -92 -241 -105l-6 -35q72 -13 72 -72q0 -44 -34 -74t-80 -30q-30 0 -56 5.5t-37 11.5l-11 6l30 41q31 -16 66 -16q23 0 40.5 13.5t17.5 35.5q0 43 -73 43l11 70
q-105 7 -165 74.5t-60 178.5q0 204 111 335t281 131q49 0 101.5 -12.5t80.5 -25.5l29 -12l-27 -170h-58l-12 110q-61 25 -134 25z" />
    <glyph glyph-name="Egrave" unicode="&#xc8;" 
d="M244 842l37 79l218 -122l-27 -55zM110 640l9 55l186 5h301l-27 -170h-56l-10 90h-221l-35 -215h228l-12 -80h-228l-39 -245h227l37 102h66l-31 -182h-497l10 60l88 20l86 540z" />
    <glyph glyph-name="Eacute" unicode="&#xc9;" 
d="M329 746l-26 53l217 121l37 -79zM110 640l9 55l186 5h301l-27 -170h-56l-10 90h-221l-35 -215h228l-12 -80h-228l-39 -245h227l37 102h66l-31 -182h-497l10 60l88 20l86 540z" />
    <glyph glyph-name="Ecircumflex" unicode="&#xca;" 
d="M403 833l-149 -83l-32 45l161 110l59 5l123 -115l-47 -45zM110 640l9 55l186 5h301l-27 -170h-56l-10 90h-221l-35 -215h228l-12 -80h-228l-39 -245h227l37 102h66l-31 -182h-497l10 60l88 20l86 540z" />
    <glyph glyph-name="Edieresis" unicode="&#xcb;" 
d="M240 810q0 31 18 53t46 22q46 0 46 -46q0 -30 -19 -52t-46 -22q-21 0 -33 12t-12 33zM441 810q0 31 18 53t46 22q46 0 46 -46q0 -30 -19 -52t-46 -22q-21 0 -33 12t-12 33zM110 640l9 55l186 5h301l-27 -170h-56l-10 90h-221l-35 -215h228l-12 -80h-228l-39 -245h227
l37 102h66l-31 -182h-497l10 60l88 20l86 540z" />
    <glyph glyph-name="Igrave" unicode="&#xcc;" horiz-adv-x="363" 
d="M113 842l37 79l218 -122l-27 -55zM105 640l9 55l273 5l-10 -60l-88 -20l-87 -540l84 -20l-10 -60h-273l10 60l90 20l86 540z" />
    <glyph glyph-name="Iacute" unicode="&#xcd;" horiz-adv-x="363" 
d="M209 746l-26 53l217 121l37 -79zM105 640l9 55l273 5l-10 -60l-88 -20l-87 -540l84 -20l-10 -60h-273l10 60l90 20l86 540z" />
    <glyph glyph-name="Icircumflex" unicode="&#xce;" horiz-adv-x="363" 
d="M280 833l-144 -83l-32 45l156 110l59 5l118 -115l-47 -45zM105 640l9 55l273 5l-10 -60l-88 -20l-87 -540l84 -20l-10 -60h-273l10 60l90 20l86 540z" />
    <glyph glyph-name="Idieresis" unicode="&#xcf;" horiz-adv-x="363" 
d="M121 810q0 31 18 53t46 22q46 0 46 -46q0 -30 -19 -52t-46 -22q-21 0 -33 12t-12 33zM322 810q0 31 18 53t46 22q46 0 46 -46q0 -30 -19 -52t-46 -22q-21 0 -33 12t-12 33zM105 640l9 55l273 5l-10 -60l-88 -20l-87 -540l84 -20l-10 -60h-273l10 60l90 20l86 540z" />
    <glyph glyph-name="Eth" unicode="&#xd0;" horiz-adv-x="711" 
d="M151 405l35 215l-81 20l9 55l185 5h129q112 0 181 -63t69 -172q0 -222 -110 -343.5t-300 -121.5h-265l10 60l86 19l40 246h-84l13 80h83zM201 80h82q136 0 213 102t77 270q0 80 -41 124t-119 44h-126l-35 -215h152l-11 -80h-153z" />
    <glyph glyph-name="Ntilde" unicode="&#xd1;" horiz-adv-x="780" 
d="M296 766l-29 30q2 4 6 10t17 22.5t27 29t34 22.5t39 10q35 0 85.5 -23t78.5 -23q18 0 35.5 10.5t26.5 21.5l8 10l30 -30q-2 -4 -5.5 -10t-16 -21.5t-25.5 -27.5t-32.5 -21.5t-38.5 -9.5q-35 0 -85.5 22t-78.5 22q-17 0 -36 -11t-30 -22zM101 640l83 -20l-86 -540l-89 -20
l-11 -60h260l11 60l-82 20l77 483l244 -563h113l98 620l85 20l10 60l-255 -5l-9 -55l80 -20l-76 -479l-234 559l-210 -5z" />
    <glyph glyph-name="Ograve" unicode="&#xd2;" horiz-adv-x="735" 
d="M302 842l37 79l218 -122l-27 -55zM299 -10q175 0 289.5 130t114.5 345q0 110 -67 177.5t-186 67.5q-169 0 -280.5 -133t-111.5 -343q0 -113 64.5 -178.5t176.5 -65.5zM593 452q0 -162 -76.5 -269.5t-195.5 -107.5q-72 0 -112.5 43t-40.5 126q0 158 74 269.5t191 111.5
q75 0 117.5 -42.5t42.5 -130.5z" />
    <glyph glyph-name="Oacute" unicode="&#xd3;" horiz-adv-x="735" 
d="M417 746l-26 53l217 121l37 -79zM299 -10q175 0 289.5 130t114.5 345q0 110 -67 177.5t-186 67.5q-169 0 -280.5 -133t-111.5 -343q0 -113 64.5 -178.5t176.5 -65.5zM593 452q0 -162 -76.5 -269.5t-195.5 -107.5q-72 0 -112.5 43t-40.5 126q0 158 74 269.5t191 111.5
q75 0 117.5 -42.5t42.5 -130.5z" />
    <glyph glyph-name="Ocircumflex" unicode="&#xd4;" horiz-adv-x="735" 
d="M452 833l-149 -83l-32 45l161 110l59 5l123 -115l-47 -45zM299 -10q175 0 289.5 130t114.5 345q0 110 -67 177.5t-186 67.5q-169 0 -280.5 -133t-111.5 -343q0 -113 64.5 -178.5t176.5 -65.5zM593 452q0 -162 -76.5 -269.5t-195.5 -107.5q-72 0 -112.5 43t-40.5 126
q0 158 74 269.5t191 111.5q75 0 117.5 -42.5t42.5 -130.5z" />
    <glyph glyph-name="Otilde" unicode="&#xd5;" horiz-adv-x="735" 
d="M299 766l-29 30q2 4 6 10t17 22.5t27 29t34 22.5t39 10q35 0 85.5 -23t78.5 -23q18 0 35.5 10.5t25.5 21.5l9 10l30 -30q-2 -4 -5.5 -10t-16 -21.5t-25.5 -27.5t-32.5 -21.5t-38.5 -9.5q-35 0 -85.5 22t-78.5 22q-17 0 -36 -11t-29 -22zM299 -10q175 0 289.5 130
t114.5 345q0 110 -67 177.5t-186 67.5q-169 0 -280.5 -133t-111.5 -343q0 -113 64.5 -178.5t176.5 -65.5zM593 452q0 -162 -76.5 -269.5t-195.5 -107.5q-72 0 -112.5 43t-40.5 126q0 158 74 269.5t191 111.5q75 0 117.5 -42.5t42.5 -130.5z" />
    <glyph glyph-name="Odieresis" unicode="&#xd6;" horiz-adv-x="735" 
d="M307 810q0 31 18 53t46 22q46 0 46 -46q0 -30 -19 -52t-46 -22q-21 0 -33 12t-12 33zM508 810q0 31 18 53t46 22q46 0 46 -46q0 -30 -19 -52t-46 -22q-21 0 -33 12t-12 33zM299 -10q175 0 289.5 130t114.5 345q0 110 -67 177.5t-186 67.5q-169 0 -280.5 -133t-111.5 -343
q0 -113 64.5 -178.5t176.5 -65.5zM593 452q0 -162 -76.5 -269.5t-195.5 -107.5q-72 0 -112.5 43t-40.5 126q0 158 74 269.5t191 111.5q75 0 117.5 -42.5t42.5 -130.5z" />
    <glyph glyph-name="multiply" unicode="&#xd7;" horiz-adv-x="629" 
d="M323 321l210 184l46 -56l-209 -184l150 -184l-64 -56l-150 184l-210 -184l-46 56l210 184l-151 184l64 56z" />
    <glyph glyph-name="Oslash" unicode="&#xd8;" horiz-adv-x="735" 
d="M300 -10q-72 0 -125 29l-93 -124l-58 35l98 131q-58 66 -58 173q0 210 109.5 343t277.5 133q77 0 134 -31l79 106l57 -35l-83 -111q61 -63 61 -164q0 -222 -112 -353.5t-287 -131.5zM169 244q0 -55 19 -95l340 455q-35 21 -94 21q-117 0 -191 -111.5t-74 -269.5zM594 462
q0 54 -19 92l-342 -456q35 -23 89 -23q120 0 196 109t76 278z" />
    <glyph glyph-name="Ugrave" unicode="&#xd9;" horiz-adv-x="765" 
d="M296 842l37 79l218 -122l-27 -55zM705 620l-52 -325q-23 -149 -96.5 -227t-220.5 -78q-118 0 -169 52.5t-51 147.5q0 31 7 80l56 350l-85 20l9 55l274 5l-10 -60l-87 -20l-56 -350q-6 -36 -6 -69q0 -61 30.5 -93.5t106.5 -32.5q89 0 133 48t62 162l54 335l-90 20l9 55
l276 5l-10 -60z" />
    <glyph glyph-name="Uacute" unicode="&#xda;" horiz-adv-x="765" 
d="M401 746l-26 53l217 121l37 -79zM705 620l-52 -325q-23 -149 -96.5 -227t-220.5 -78q-118 0 -169 52.5t-51 147.5q0 31 7 80l56 350l-85 20l9 55l274 5l-10 -60l-87 -20l-56 -350q-6 -36 -6 -69q0 -61 30.5 -93.5t106.5 -32.5q89 0 133 48t62 162l54 335l-90 20l9 55
l276 5l-10 -60z" />
    <glyph glyph-name="Ucircumflex" unicode="&#xdb;" horiz-adv-x="765" 
d="M461 833l-149 -83l-32 45l161 110l59 5l123 -115l-47 -45zM705 620l-52 -325q-23 -149 -96.5 -227t-220.5 -78q-118 0 -169 52.5t-51 147.5q0 31 7 80l56 350l-85 20l9 55l274 5l-10 -60l-87 -20l-56 -350q-6 -36 -6 -69q0 -61 30.5 -93.5t106.5 -32.5q89 0 133 48
t62 162l54 335l-90 20l9 55l276 5l-10 -60z" />
    <glyph glyph-name="Udieresis" unicode="&#xdc;" horiz-adv-x="765" 
d="M315 810q0 31 18 53t46 22q46 0 46 -46q0 -30 -19 -52t-46 -22q-21 0 -33 12t-12 33zM516 810q0 31 18 53t46 22q46 0 46 -46q0 -30 -19 -52t-46 -22q-21 0 -33 12t-12 33zM705 620l-52 -325q-23 -149 -96.5 -227t-220.5 -78q-118 0 -169 52.5t-51 147.5q0 31 7 80
l56 350l-85 20l9 55l274 5l-10 -60l-87 -20l-56 -350q-6 -36 -6 -69q0 -61 30.5 -93.5t106.5 -32.5q89 0 133 48t62 162l54 335l-90 20l9 55l276 5l-10 -60z" />
    <glyph glyph-name="Yacute" unicode="&#xdd;" horiz-adv-x="606" 
d="M351 746l-26 53l217 121l37 -79zM133 620l-84 20l9 55l155 5l100 -366l168 287l-90 19l10 55l269 5l-10 -60l-80 -20l-247 -389l-24 -151l83 -20l-10 -60h-273l10 60l90 20l28 182z" />
    <glyph glyph-name="Thorn" unicode="&#xde;" horiz-adv-x="584" 
d="M275 565h104q93 0 144 -39.5t51 -110.5q0 -120 -81 -190t-214 -70h-70l-12 -75l82 -20l-10 -60h-270l9 60l88 20l86 540l-81 20l8 55l272 5l-10 -60l-87 -20zM222 235h72q85 0 132.5 41t47.5 115q0 94 -113 94h-99z" />
    <glyph glyph-name="germandbls" unicode="&#xdf;" horiz-adv-x="674" 
d="M43 450l10 65l106 10l5 28q20 108 86 167.5t167 59.5q89 0 143.5 -32t54.5 -100q0 -39 -17 -71.5t-41.5 -53.5t-49 -40t-41.5 -40t-17 -44q0 -30 30 -53t65.5 -37t65.5 -45.5t30 -77.5q0 -81 -72 -138.5t-160 -57.5q-37 0 -73 5.5t-53 10.5l-17 6l23 144h63l3 -81
q18 -10 65 -10q49 0 81.5 25.5t32.5 64.5q0 25 -19.5 44t-47.5 33t-55.5 29.5t-47 42t-19.5 62.5q0 44 17.5 77t42.5 53.5t50 38.5t42.5 42t17.5 53q0 75 -104 75q-54 0 -95.5 -36.5t-52.5 -104.5l-95 -584q-35 -220 -209 -220q-18 0 -37 2.5t-29 5.5l-10 2l13 71h56
q99 0 118 119l78 490h-104z" />
    <glyph glyph-name="agrave" unicode="&#xe0;" horiz-adv-x="593" 
d="M228 803l206 -147l-31 -53l-218 125zM532 10l-186 -10l40 184q-7 -14 -13.5 -26t-30 -46.5t-47 -58t-60 -43.5t-73.5 -20q-56 0 -93.5 50t-37.5 125q0 174 88.5 274.5t209.5 100.5q29 0 57 -7.5t42 -14.5l13 -8l30 20h55l-72 -450l87 -15zM399 345l20 105q-38 15 -90 15
q-80 0 -139 -72.5t-59 -212.5q0 -51 17 -78t44 -27q34 0 67.5 28t57.5 67.5t43.5 79t29.5 67.5z" />
    <glyph glyph-name="aacute" unicode="&#xe1;" horiz-adv-x="593" 
d="M257 648l206 147l43 -75l-218 -125zM532 10l-186 -10l40 184q-7 -14 -13.5 -26t-30 -46.5t-47 -58t-60 -43.5t-73.5 -20q-56 0 -93.5 50t-37.5 125q0 174 88.5 274.5t209.5 100.5q29 0 57 -7.5t42 -14.5l13 -8l30 20h55l-72 -450l87 -15zM399 345l20 105q-38 15 -90 15
q-80 0 -139 -72.5t-59 -212.5q0 -51 17 -78t44 -27q34 0 67.5 28t57.5 67.5t43.5 79t29.5 67.5z" />
    <glyph glyph-name="acircumflex" unicode="&#xe2;" horiz-adv-x="593" 
d="M207 617l-33 45l162 130l59 5l122 -135l-46 -45l-115 98zM532 10l-186 -10l40 184q-7 -14 -13.5 -26t-30 -46.5t-47 -58t-60 -43.5t-73.5 -20q-56 0 -93.5 50t-37.5 125q0 174 88.5 274.5t209.5 100.5q29 0 57 -7.5t42 -14.5l13 -8l30 20h55l-72 -450l87 -15zM399 345
l20 105q-38 15 -90 15q-80 0 -139 -72.5t-59 -212.5q0 -51 17 -78t44 -27q34 0 67.5 28t57.5 67.5t43.5 79t29.5 67.5z" />
    <glyph glyph-name="atilde" unicode="&#xe3;" horiz-adv-x="593" 
d="M192 635l-28 35q2 4 6 10t17 22.5t27 29t34 22.5t39 10q35 0 82.5 -23t75.5 -23q17 0 35 10.5t27 21.5l9 10l29 -35q-2 -4 -5.5 -10t-16 -21.5t-25.5 -27.5t-32.5 -21.5t-38.5 -9.5q-35 0 -83 22t-76 22q-18 0 -37 -11t-29 -22zM532 10l-186 -10l40 184q-7 -14 -13.5 -26
t-30 -46.5t-47 -58t-60 -43.5t-73.5 -20q-56 0 -93.5 50t-37.5 125q0 174 88.5 274.5t209.5 100.5q29 0 57 -7.5t42 -14.5l13 -8l30 20h55l-72 -450l87 -15zM399 345l20 105q-38 15 -90 15q-80 0 -139 -72.5t-59 -212.5q0 -51 17 -78t44 -27q34 0 67.5 28t57.5 67.5t43.5 79
t29.5 67.5z" />
    <glyph glyph-name="adieresis" unicode="&#xe4;" horiz-adv-x="593" 
d="M200 685q0 31 18 53t46 22q46 0 46 -46q0 -30 -19 -52t-46 -22q-21 0 -33 12t-12 33zM401 685q0 31 18 53t46 22q46 0 46 -46q0 -30 -19 -52t-46 -22q-21 0 -33 12t-12 33zM532 10l-186 -10l40 184q-7 -14 -13.5 -26t-30 -46.5t-47 -58t-60 -43.5t-73.5 -20
q-56 0 -93.5 50t-37.5 125q0 174 88.5 274.5t209.5 100.5q29 0 57 -7.5t42 -14.5l13 -8l30 20h55l-72 -450l87 -15zM399 345l20 105q-38 15 -90 15q-80 0 -139 -72.5t-59 -212.5q0 -51 17 -78t44 -27q34 0 67.5 28t57.5 67.5t43.5 79t29.5 67.5z" />
    <glyph glyph-name="aring" unicode="&#xe5;" horiz-adv-x="593" 
d="M290 686q0 53 40 93.5t92 40.5q40 0 68.5 -24.5t28.5 -66.5q0 -53 -40 -93.5t-92 -40.5q-42 0 -69.5 25t-27.5 66zM415 770q-29 0 -47.5 -23.5t-18.5 -54.5q0 -47 46 -47q29 0 47 23.5t18 54.5q0 47 -45 47zM532 10l-186 -10l40 184q-7 -14 -13.5 -26t-30 -46.5t-47 -58
t-60 -43.5t-73.5 -20q-56 0 -93.5 50t-37.5 125q0 174 88.5 274.5t209.5 100.5q29 0 57 -7.5t42 -14.5l13 -8l30 20h55l-72 -450l87 -15zM399 345l20 105q-38 15 -90 15q-80 0 -139 -72.5t-59 -212.5q0 -51 17 -78t44 -27q34 0 67.5 28t57.5 67.5t43.5 79t29.5 67.5z" />
    <glyph glyph-name="ae" unicode="&#xe6;" horiz-adv-x="779" 
d="M772 410q0 -88 -94.5 -137.5t-252.5 -49.5q-3 -24 -3 -45q0 -55 27 -81.5t83 -26.5q32 0 72 11t64 23l24 11l30 -51q-11 -8 -31.5 -20.5t-78.5 -33t-110 -20.5q-125 0 -159 106q-38 -47 -91 -76.5t-104 -29.5q-57 0 -91 32t-34 88q0 91 65.5 136.5t179.5 45.5h76l13 83
q2 14 2 20q0 70 -79 70q-28 0 -53.5 -3.5t-36.5 -7.5l-12 -4l-28 -75h-57l16 125q104 40 193 40q62 0 94.5 -18.5t40.5 -59.5q72 78 170 78q76 0 120.5 -35.5t44.5 -94.5zM434 293q110 0 176.5 27.5t66.5 79.5q0 65 -75 65q-54 0 -101 -48.5t-67 -123.5zM334 227h-67
q-149 0 -149 -97q0 -26 19 -43t46 -17q54 0 98.5 50t52.5 107z" />
    <glyph glyph-name="ccedilla" unicode="&#xe7;" horiz-adv-x="455" 
d="M313 460q-82 0 -131 -82.5t-49 -197.5q0 -110 95 -110q31 0 68.5 11t59.5 23l22 11l30 -50q-73 -54 -156 -71l-6 -37q72 -13 72 -72q0 -44 -34 -74t-80 -30q-30 0 -56 5.5t-37 11.5l-11 6l30 41q31 -16 66 -16q23 0 40.5 13.5t17.5 35.5q0 43 -73 43l11 70q-71 5 -115 53
t-44 131q0 163 83 264t212 101q36 0 71 -10t52 -20l17 -10l-22 -135h-65l-3 85q-24 10 -65 10z" />
    <glyph glyph-name="egrave" unicode="&#xe8;" horiz-adv-x="496" 
d="M225 803l206 -147l-31 -53l-218 125zM484 410q0 -86 -97.5 -139.5t-253.5 -53.5q-3 -22 -3 -43q0 -104 110 -104q32 0 73 11t66 23l25 11l30 -51q-12 -8 -33 -20.5t-80 -33t-111 -20.5q-82 0 -131 49t-49 131q0 155 84.5 262.5t204.5 107.5q76 0 120.5 -35.5t44.5 -94.5z
M142 287q107 0 177 32t70 81q0 32 -19 49t-50 17q-53 0 -106.5 -47.5t-71.5 -131.5z" />
    <glyph glyph-name="eacute" unicode="&#xe9;" horiz-adv-x="496" 
d="M238 648l206 147l43 -75l-218 -125zM484 410q0 -86 -97.5 -139.5t-253.5 -53.5q-3 -22 -3 -43q0 -104 110 -104q32 0 73 11t66 23l25 11l30 -51q-12 -8 -33 -20.5t-80 -33t-111 -20.5q-82 0 -131 49t-49 131q0 155 84.5 262.5t204.5 107.5q76 0 120.5 -35.5t44.5 -94.5z
M142 287q107 0 177 32t70 81q0 32 -19 49t-50 17q-53 0 -106.5 -47.5t-71.5 -131.5z" />
    <glyph glyph-name="ecircumflex" unicode="&#xea;" horiz-adv-x="496" 
d="M173 617l-33 45l162 130l59 5l122 -135l-46 -45l-115 98zM484 410q0 -86 -97.5 -139.5t-253.5 -53.5q-3 -22 -3 -43q0 -104 110 -104q32 0 73 11t66 23l25 11l30 -51q-12 -8 -33 -20.5t-80 -33t-111 -20.5q-82 0 -131 49t-49 131q0 155 84.5 262.5t204.5 107.5
q76 0 120.5 -35.5t44.5 -94.5zM142 287q107 0 177 32t70 81q0 32 -19 49t-50 17q-53 0 -106.5 -47.5t-71.5 -131.5z" />
    <glyph glyph-name="edieresis" unicode="&#xeb;" horiz-adv-x="496" 
d="M187 685q0 31 18 53t46 22q46 0 46 -46q0 -30 -19 -52t-46 -22q-21 0 -33 12t-12 33zM388 685q0 31 18 53t46 22q46 0 46 -46q0 -30 -19 -52t-46 -22q-21 0 -33 12t-12 33zM484 410q0 -86 -97.5 -139.5t-253.5 -53.5q-3 -22 -3 -43q0 -104 110 -104q32 0 73 11t66 23
l25 11l30 -51q-12 -8 -33 -20.5t-80 -33t-111 -20.5q-82 0 -131 49t-49 131q0 155 84.5 262.5t204.5 107.5q76 0 120.5 -35.5t44.5 -94.5zM142 287q107 0 177 32t70 81q0 32 -19 49t-50 17q-53 0 -106.5 -47.5t-71.5 -131.5z" />
    <glyph glyph-name="igrave" unicode="&#xec;" horiz-adv-x="286" 
d="M106 803l206 -147l-31 -53l-218 125zM252 10l9 55l-85 15l72 450l-183 -5l-10 -55l85 -20l-72 -450z" />
    <glyph glyph-name="iacute" unicode="&#xed;" horiz-adv-x="286" 
d="M130 648l206 147l43 -75l-218 -125zM252 10l9 55l-85 15l72 450l-183 -5l-10 -55l85 -20l-72 -450z" />
    <glyph glyph-name="icircumflex" unicode="&#xee;" horiz-adv-x="286" 
d="M72 612l-32 45l162 135l59 5l119 -140l-46 -45l-112 108zM252 10l9 55l-85 15l72 450l-183 -5l-10 -55l85 -20l-72 -450z" />
    <glyph glyph-name="idieresis" unicode="&#xef;" horiz-adv-x="286" 
d="M62 685q0 31 18 53t46 22q46 0 46 -46q0 -30 -19 -52t-46 -22q-21 0 -33 12t-12 33zM253 685q0 31 18 53t46 22q46 0 46 -46q0 -30 -19 -52t-46 -22q-21 0 -33 12t-12 33zM252 10l9 55l-85 15l72 450l-183 -5l-10 -55l85 -20l-72 -450z" />
    <glyph glyph-name="eth" unicode="&#xf0;" horiz-adv-x="568" 
d="M532 729l-99 -53q100 -106 100 -292q0 -175 -78 -284.5t-232 -109.5q-89 0 -139.5 52t-50.5 143q0 143 80.5 236.5t204.5 93.5q33 0 63 -10.5t43 -20.5l13 -11q-21 100 -84 162l-138 -75l-30 54l117 64q-31 19 -94 42l39 63q76 -19 136 -61l118 62zM308 435
q-82 0 -126 -68t-44 -172q0 -58 27.5 -91.5t82.5 -33.5q88 0 132 71t44 174q0 120 -116 120z" />
    <glyph glyph-name="ntilde" unicode="&#xf1;" horiz-adv-x="634" 
d="M224 635l-28 35q2 4 6 10t17 22.5t27 29t34 22.5t39 10q35 0 82.5 -23t75.5 -23q17 0 35 10.5t27 21.5l9 10l29 -35q-2 -4 -5.5 -10t-16 -21.5t-25.5 -27.5t-32.5 -21.5t-38.5 -9.5q-35 0 -83 22t-76 22q-18 0 -37 -11t-29 -22zM394 0l56 345q4 30 4 44q0 66 -52 66
q-36 0 -71.5 -28.5t-60 -68.5t-44 -80.5t-28.5 -69.5l-10 -28l-29 -180h-95l72 450l-84 20l9 55l183 5l-45 -194q6 13 13 26.5t31 49t49.5 61t66 46.5t83.5 21q111 0 111 -123q0 -24 -5 -57l-46 -280l85 -15l-9 -55z" />
    <glyph glyph-name="ograve" unicode="&#xf2;" horiz-adv-x="550" 
d="M237 803l206 -147l-31 -53l-218 125zM218 -10q131 0 214.5 96t83.5 257q0 88 -49 142.5t-139 54.5q-130 0 -212 -97.5t-82 -254.5q0 -90 49.5 -144t134.5 -54zM417 345q0 -123 -48 -199t-133 -76q-47 0 -74.5 28.5t-27.5 86.5q0 116 46 195.5t130 79.5q107 0 107 -115z
" />
    <glyph glyph-name="oacute" unicode="&#xf3;" horiz-adv-x="550" 
d="M247 648l206 147l43 -75l-218 -125zM218 -10q131 0 214.5 96t83.5 257q0 88 -49 142.5t-139 54.5q-130 0 -212 -97.5t-82 -254.5q0 -90 49.5 -144t134.5 -54zM417 345q0 -123 -48 -199t-133 -76q-47 0 -74.5 28.5t-27.5 86.5q0 116 46 195.5t130 79.5q107 0 107 -115z
" />
    <glyph glyph-name="ocircumflex" unicode="&#xf4;" horiz-adv-x="550" 
d="M210 617l-33 45l162 130l59 5l122 -135l-46 -45l-115 98zM218 -10q131 0 214.5 96t83.5 257q0 88 -49 142.5t-139 54.5q-130 0 -212 -97.5t-82 -254.5q0 -90 49.5 -144t134.5 -54zM417 345q0 -123 -48 -199t-133 -76q-47 0 -74.5 28.5t-27.5 86.5q0 116 46 195.5
t130 79.5q107 0 107 -115z" />
    <glyph glyph-name="otilde" unicode="&#xf5;" horiz-adv-x="550" 
d="M189 635l-28 35q2 4 6 10t17 22.5t27 29t34 22.5t39 10q35 0 82.5 -23t75.5 -23q17 0 35 10.5t27 21.5l9 10l29 -35q-2 -4 -5.5 -10t-16 -21.5t-25.5 -27.5t-32.5 -21.5t-38.5 -9.5q-35 0 -83 22t-76 22q-18 0 -37 -11t-29 -22zM218 -10q131 0 214.5 96t83.5 257
q0 88 -49 142.5t-139 54.5q-130 0 -212 -97.5t-82 -254.5q0 -90 49.5 -144t134.5 -54zM417 345q0 -123 -48 -199t-133 -76q-47 0 -74.5 28.5t-27.5 86.5q0 116 46 195.5t130 79.5q107 0 107 -115z" />
    <glyph glyph-name="odieresis" unicode="&#xf6;" horiz-adv-x="550" 
d="M191 685q0 31 18 53t46 22q46 0 46 -46q0 -30 -19 -52t-46 -22q-21 0 -33 12t-12 33zM392 685q0 31 18 53t46 22q46 0 46 -46q0 -30 -19 -52t-46 -22q-21 0 -33 12t-12 33zM218 -10q131 0 214.5 96t83.5 257q0 88 -49 142.5t-139 54.5q-130 0 -212 -97.5t-82 -254.5
q0 -90 49.5 -144t134.5 -54zM417 345q0 -123 -48 -199t-133 -76q-47 0 -74.5 28.5t-27.5 86.5q0 116 46 195.5t130 79.5q107 0 107 -115z" />
    <glyph glyph-name="divide" unicode="&#xf7;" horiz-adv-x="622" 
d="M277 455q0 35 20.5 60t56.5 25q55 0 55 -55q0 -34 -20.5 -59.5t-57.5 -25.5q-54 0 -54 55zM572 305l-12 -80h-510l13 80h509zM212 45q0 35 20.5 60t56.5 25q55 0 55 -55q0 -34 -20.5 -59.5t-57.5 -25.5q-54 0 -54 55z" />
    <glyph glyph-name="oslash" unicode="&#xf8;" horiz-adv-x="580" 
d="M228 -10q-47 0 -87 19l-85 -114l-54 35l87 118q-44 50 -44 132q0 160 84 260t214 100q54 0 97 -20l78 105l54 -35l-80 -108q44 -50 44 -122q0 -169 -86.5 -269.5t-221.5 -100.5zM145 185q0 -32 7 -52l234 314q-25 13 -58 13q-84 0 -133.5 -80.5t-49.5 -194.5zM436 345
q0 29 -8 51l-233 -314q23 -12 53 -12q86 0 137 76.5t51 198.5z" />
    <glyph glyph-name="ugrave" unicode="&#xf9;" horiz-adv-x="636" 
d="M243 803l206 -147l-31 -53l-218 125zM391 0l41 194q-4 -10 -12 -26.5t-31 -50t-48.5 -60t-66 -47t-82.5 -20.5q-111 0 -111 122q0 43 51 338l-85 20l9 55l183 5q-59 -356 -59 -389q0 -66 52 -66q37 0 73 28.5t60 69t43 80.5t28 69l9 28l30 180h95l-72 -450l86 -15l-9 -55
z" />
    <glyph glyph-name="uacute" unicode="&#xfa;" horiz-adv-x="636" 
d="M262 648l206 147l43 -75l-218 -125zM391 0l41 194q-4 -10 -12 -26.5t-31 -50t-48.5 -60t-66 -47t-82.5 -20.5q-111 0 -111 122q0 43 51 338l-85 20l9 55l183 5q-59 -356 -59 -389q0 -66 52 -66q37 0 73 28.5t60 69t43 80.5t28 69l9 28l30 180h95l-72 -450l86 -15l-9 -55z
" />
    <glyph glyph-name="ucircumflex" unicode="&#xfb;" horiz-adv-x="636" 
d="M203 617l-33 45l162 130l59 5l122 -135l-46 -45l-115 98zM391 0l41 194q-4 -10 -12 -26.5t-31 -50t-48.5 -60t-66 -47t-82.5 -20.5q-111 0 -111 122q0 43 51 338l-85 20l9 55l183 5q-59 -356 -59 -389q0 -66 52 -66q37 0 73 28.5t60 69t43 80.5t28 69l9 28l30 180h95
l-72 -450l86 -15l-9 -55z" />
    <glyph glyph-name="udieresis" unicode="&#xfc;" horiz-adv-x="636" 
d="M198 685q0 31 18 53t46 22q46 0 46 -46q0 -30 -19 -52t-46 -22q-21 0 -33 12t-12 33zM399 685q0 31 18 53t46 22q46 0 46 -46q0 -30 -19 -52t-46 -22q-21 0 -33 12t-12 33zM391 0l41 194q-4 -10 -12 -26.5t-31 -50t-48.5 -60t-66 -47t-82.5 -20.5q-111 0 -111 122
q0 43 51 338l-85 20l9 55l183 5q-59 -356 -59 -389q0 -66 52 -66q37 0 73 28.5t60 69t43 80.5t28 69l9 28l30 180h95l-72 -450l86 -15l-9 -55z" />
    <glyph glyph-name="yacute" unicode="&#xfd;" horiz-adv-x="527" 
d="M247 648l206 147l43 -75l-218 -125zM505 454l-185 -421q-30 -67 -49.5 -106.5t-42 -75.5t-43 -53.5t-46 -27.5t-57.5 -10q-25 0 -53.5 4t-44.5 8l-15 4l21 64q40 -5 75 -5q51 0 79 27t61 99l-122 490l-69 19l12 55l151 5l78 -367l8 -68l154 357l-75 18l10 55l220 5
l-11 -60z" />
    <glyph glyph-name="thorn" unicode="&#xfe;" horiz-adv-x="578" 
d="M233 530l-40 -184q3 8 11 24.5t28 48t44 57t60.5 45t75.5 19.5q64 0 99.5 -52t35.5 -128q0 -165 -92 -267.5t-218 -102.5q-35 0 -87 14l-24 -159l100 -20l-9 -55h-280l9 55l82 20l135 845l-83 20l9 55l183 5zM184 185l-21 -105q39 -15 84 -15q74 0 137 74t63 206
q0 46 -17.5 78t-52.5 32q-34 0 -66.5 -28t-54.5 -67.5t-39 -79t-25 -67.5z" />
    <glyph glyph-name="ydieresis" unicode="&#xff;" horiz-adv-x="527" 
d="M154 685q0 31 18 53t46 22q46 0 46 -46q0 -30 -19 -52t-46 -22q-21 0 -33 12t-12 33zM355 685q0 31 18 53t46 22q46 0 46 -46q0 -30 -19 -52t-46 -22q-21 0 -33 12t-12 33zM505 454l-185 -421q-30 -67 -49.5 -106.5t-42 -75.5t-43 -53.5t-46 -27.5t-57.5 -10
q-25 0 -53.5 4t-44.5 8l-15 4l21 64q40 -5 75 -5q51 0 79 27t61 99l-122 490l-69 19l12 55l151 5l78 -367l8 -68l154 357l-75 18l10 55l220 5l-11 -60z" />
    <glyph glyph-name="Amacron" unicode="&#x100;" horiz-adv-x="712" 
d="M580 855l-11 -75h-264l11 75h264zM210 190l-55 -111l84 -19l-10 -60h-265l9 60l85 20l320 615l99 5l120 -623l68 -17l-10 -60h-265l9 60l86 20l-20 110h-255zM451 270l-51 301l-151 -301h202z" />
    <glyph glyph-name="amacron" unicode="&#x101;" horiz-adv-x="593" 
d="M492 735l-11 -75h-264l11 75h264zM532 10l-186 -10l40 184q-7 -14 -13.5 -26t-30 -46.5t-47 -58t-60 -43.5t-73.5 -20q-56 0 -93.5 50t-37.5 125q0 174 88.5 274.5t209.5 100.5q29 0 57 -7.5t42 -14.5l13 -8l30 20h55l-72 -450l87 -15zM399 345l20 105q-38 15 -90 15
q-80 0 -139 -72.5t-59 -212.5q0 -51 17 -78t44 -27q34 0 67.5 28t57.5 67.5t43.5 79t29.5 67.5z" />
    <glyph glyph-name="Abreve" unicode="&#x102;" horiz-adv-x="712" 
d="M543 905l59 5q-10 -66 -57.5 -108t-107.5 -42q-48 0 -79.5 34.5t-31.5 84.5l2 26l59 5q0 -32 18 -53.5t49 -21.5q32 0 54.5 17.5t28.5 35.5zM210 190l-55 -111l84 -19l-10 -60h-265l9 60l85 20l320 615l99 5l120 -623l68 -17l-10 -60h-265l9 60l86 20l-20 110h-255z
M451 270l-51 301l-151 -301h202z" />
    <glyph glyph-name="abreve" unicode="&#x103;" horiz-adv-x="593" 
d="M472 760l59 5q-10 -66 -57.5 -108t-107.5 -42q-48 0 -79.5 34.5t-31.5 84.5l2 26l59 5q0 -32 18 -53.5t49 -21.5q32 0 54.5 17.5t28.5 34.5zM532 10l-186 -10l40 184q-7 -14 -13.5 -26t-30 -46.5t-47 -58t-60 -43.5t-73.5 -20q-56 0 -93.5 50t-37.5 125q0 174 88.5 274.5
t209.5 100.5q29 0 57 -7.5t42 -14.5l13 -8l30 20h55l-72 -450l87 -15zM399 345l20 105q-38 15 -90 15q-80 0 -139 -72.5t-59 -212.5q0 -51 17 -78t44 -27q34 0 67.5 28t57.5 67.5t43.5 79t29.5 67.5z" />
    <glyph glyph-name="Aogonek" unicode="&#x104;" horiz-adv-x="712" 
d="M665 60l-10 -60h-7q-5 -3 -13 -7.5t-28 -19.5t-35.5 -29t-28.5 -33t-13 -35q0 -17 10.5 -26.5t27.5 -9.5l46 7l2 -47q-42 -20 -81 -20q-37 0 -61 20t-24 55q0 40 30 76t60 53l30 16h-180l9 60l86 20l-20 110h-255l-55 -111l84 -19l-10 -60h-265l9 60l85 20l320 615l99 5
l120 -623zM451 270l-51 301l-151 -301h202z" />
    <glyph glyph-name="aogonek" unicode="&#x105;" horiz-adv-x="593" 
d="M541 65l-9 -55q-1 0 -16.5 -7.5t-24 -12t-25 -14.5t-26.5 -19.5t-21 -22t-16.5 -27.5t-5.5 -31q0 -17 11 -26.5t28 -9.5q25 0 46 7v-47q-42 -20 -81 -20q-36 0 -60 21.5t-24 56.5q0 47 34 85t77 61l-82 -4l40 184q-7 -14 -13.5 -26t-30 -46.5t-47 -58t-60 -43.5
t-73.5 -20q-56 0 -93.5 50t-37.5 125q0 174 88.5 274.5t209.5 100.5q29 0 57 -7.5t42 -14.5l13 -8l30 20h55l-72 -450zM399 345l20 105q-38 15 -90 15q-80 0 -139 -72.5t-59 -212.5q0 -51 17 -78t44 -27q34 0 67.5 28t57.5 67.5t43.5 79t29.5 67.5z" />
    <glyph glyph-name="Cacute" unicode="&#x106;" horiz-adv-x="638" 
d="M417 746l-26 53l217 121l37 -79zM636 490l27 170q-11 6 -31 14t-75.5 22t-104.5 14q-170 0 -281 -131t-111 -335q0 -117 66 -185.5t182 -68.5q145 0 278 107l-36 59q-103 -76 -222 -76q-71 0 -114.5 50t-43.5 133q0 94 31.5 176t92.5 134t138 52q73 0 134 -25l12 -110h58
z" />
    <glyph glyph-name="cacute" unicode="&#x107;" horiz-adv-x="455" 
d="M229 648l206 147l43 -75l-218 -125zM446 365l22 135q-60 40 -140 40q-129 0 -212 -101t-83 -264q0 -87 48.5 -136t126.5 -49q44 0 94 18.5t78 37.5l28 19l-30 50q-80 -45 -150 -45q-95 0 -95 110q0 115 49 197.5t131 82.5q18 0 34.5 -2.5t23.5 -5.5l7 -2l3 -85h65z" />
    <glyph glyph-name="Ccircumflex" unicode="&#x108;" horiz-adv-x="638" 
d="M471 833l-149 -83l-32 45l161 110l59 5l123 -115l-47 -45zM636 490l27 170q-11 6 -31 14t-75.5 22t-104.5 14q-170 0 -281 -131t-111 -335q0 -117 66 -185.5t182 -68.5q145 0 278 107l-36 59q-103 -76 -222 -76q-71 0 -114.5 50t-43.5 133q0 94 31.5 176t92.5 134t138 52
q73 0 134 -25l12 -110h58z" />
    <glyph glyph-name="ccircumflex" unicode="&#x109;" horiz-adv-x="455" 
d="M193 617l-33 45l162 130l59 5l122 -135l-46 -45l-115 98zM446 365l22 135q-60 40 -140 40q-129 0 -212 -101t-83 -264q0 -87 48.5 -136t126.5 -49q44 0 94 18.5t78 37.5l28 19l-30 50q-80 -45 -150 -45q-95 0 -95 110q0 115 49 197.5t131 82.5q18 0 34.5 -2.5t23.5 -5.5
l7 -2l3 -85h65z" />
    <glyph glyph-name="Cdotaccent" unicode="&#x10a;" horiz-adv-x="638" 
d="M415 811q0 28 18 51t47 23q21 0 33 -12t12 -34q0 -33 -19.5 -53.5t-45.5 -20.5q-45 0 -45 46zM636 490l27 170q-11 6 -31 14t-75.5 22t-104.5 14q-170 0 -281 -131t-111 -335q0 -117 66 -185.5t182 -68.5q145 0 278 107l-36 59q-103 -76 -222 -76q-71 0 -114.5 50
t-43.5 133q0 94 31.5 176t92.5 134t138 52q73 0 134 -25l12 -110h58z" />
    <glyph glyph-name="cdotaccent" unicode="&#x10b;" horiz-adv-x="455" 
d="M292 686q0 28 18 51t47 23q21 0 33 -12t12 -34q0 -33 -19.5 -53.5t-45.5 -20.5q-45 0 -45 46zM446 365l22 135q-60 40 -140 40q-129 0 -212 -101t-83 -264q0 -87 48.5 -136t126.5 -49q44 0 94 18.5t78 37.5l28 19l-30 50q-80 -45 -150 -45q-95 0 -95 110q0 115 49 197.5
t131 82.5q18 0 34.5 -2.5t23.5 -5.5l7 -2l3 -85h65z" />
    <glyph glyph-name="Ccaron" unicode="&#x10c;" horiz-adv-x="638" 
d="M612 912l27 -45l-159 -111l-58 -5l-122 116l48 45l115 -86zM636 490l27 170q-11 6 -31 14t-75.5 22t-104.5 14q-170 0 -281 -131t-111 -335q0 -117 66 -185.5t182 -68.5q145 0 278 107l-36 59q-103 -76 -222 -76q-71 0 -114.5 50t-43.5 133q0 94 31.5 176t92.5 134
t138 52q73 0 134 -25l12 -110h58z" />
    <glyph glyph-name="ccaron" unicode="&#x10d;" horiz-adv-x="455" 
d="M521 735l-159 -130l-58 -5l-122 135l48 45l111 -105l153 105zM446 365l22 135q-60 40 -140 40q-129 0 -212 -101t-83 -264q0 -87 48.5 -136t126.5 -49q44 0 94 18.5t78 37.5l28 19l-30 50q-80 -45 -150 -45q-95 0 -95 110q0 115 49 197.5t131 82.5q18 0 34.5 -2.5
t23.5 -5.5l7 -2l3 -85h65z" />
    <glyph glyph-name="Dcaron" unicode="&#x10e;" horiz-adv-x="704" 
d="M551 912l27 -45l-159 -111l-58 -5l-122 116l48 45l115 -86zM105 640l9 55l185 5h129q112 0 180 -63t68 -172q0 -222 -109.5 -343.5t-298.5 -121.5h-265l10 60l86 19l87 541zM201 80h82q136 0 212 102t76 270q0 80 -40 124t-118 44h-126z" />
    <glyph glyph-name="dcaron" unicode="&#x10f;" horiz-adv-x="671" 
d="M657 552l-53 21q58 122 68 202l96 5q-14 -73 -111 -228zM530 10l-183 -10l44 184q-4 -9 -12.5 -25.5t-30 -47.5t-46 -56.5t-61 -45t-73.5 -19.5q-58 0 -95 49.5t-37 125.5q0 173 87.5 274t208.5 101q54 0 96 -22l28 172l-85 20l9 55l185 5l-112 -690l86 -15zM401 345
l16 105q-35 15 -85 15q-86 0 -141 -79.5t-55 -200.5q0 -53 16.5 -81.5t45.5 -28.5q34 0 67 28t56.5 67.5t42 79t28.5 67.5z" />
    <glyph glyph-name="Dcroat" unicode="&#x110;" horiz-adv-x="711" 
d="M151 405l35 215l-81 20l9 55l185 5h129q112 0 181 -63t69 -172q0 -222 -110 -343.5t-300 -121.5h-265l10 60l86 19l40 246h-84l13 80h83zM201 80h82q136 0 213 102t77 270q0 80 -41 124t-119 44h-126l-35 -215h152l-11 -80h-153z" />
    <glyph glyph-name="dcroat" unicode="&#x111;" horiz-adv-x="594" 
d="M533 575l-80 -495l86 -15l-9 -55l-183 -10l44 184q-4 -9 -12.5 -25.5t-30 -47.5t-46 -56.5t-61 -45t-73.5 -19.5q-58 0 -95 49.5t-37 125.5q0 173 87.5 274t208.5 101q54 0 96 -22l9 57h-89l11 75h90l7 40l-85 20l9 55l185 5l-19 -120h98l-11 -75h-100zM401 345l16 105
q-35 15 -85 15q-86 0 -141 -79.5t-55 -200.5q0 -53 16.5 -81.5t45.5 -28.5q34 0 67 28t56.5 67.5t42 79t28.5 67.5z" />
    <glyph glyph-name="Emacron" unicode="&#x112;" 
d="M540 855l-11 -75h-264l11 75h264zM110 640l9 55l186 5h301l-27 -170h-56l-10 90h-221l-35 -215h228l-12 -80h-228l-39 -245h227l37 102h66l-31 -182h-497l10 60l88 20l86 540z" />
    <glyph glyph-name="emacron" unicode="&#x113;" horiz-adv-x="496" 
d="M449 735l-11 -75h-264l11 75h264zM484 410q0 -86 -97.5 -139.5t-253.5 -53.5q-3 -22 -3 -43q0 -104 110 -104q32 0 73 11t66 23l25 11l30 -51q-12 -8 -33 -20.5t-80 -33t-111 -20.5q-82 0 -131 49t-49 131q0 155 84.5 262.5t204.5 107.5q76 0 120.5 -35.5t44.5 -94.5z
M142 287q107 0 177 32t70 81q0 32 -19 49t-50 17q-53 0 -106.5 -47.5t-71.5 -131.5z" />
    <glyph glyph-name="Ebreve" unicode="&#x114;" 
d="M511 905l59 5q-10 -66 -57.5 -108t-107.5 -42q-48 0 -79.5 34.5t-31.5 84.5l2 26l59 5q0 -32 18 -53.5t49 -21.5q32 0 54.5 17.5t28.5 35.5zM110 640l9 55l186 5h301l-27 -170h-56l-10 90h-221l-35 -215h228l-12 -80h-228l-39 -245h227l37 102h66l-31 -182h-497l10 60
l88 20l86 540z" />
    <glyph glyph-name="ebreve" unicode="&#x115;" horiz-adv-x="496" 
d="M434 760l59 5q-10 -66 -57.5 -108t-107.5 -42q-48 0 -79.5 34.5t-31.5 84.5l2 26l59 5q0 -32 18 -53.5t49 -21.5q32 0 54.5 17.5t28.5 34.5zM484 410q0 -86 -97.5 -139.5t-253.5 -53.5q-3 -22 -3 -43q0 -104 110 -104q32 0 73 11t66 23l25 11l30 -51q-12 -8 -33 -20.5
t-80 -33t-111 -20.5q-82 0 -131 49t-49 131q0 155 84.5 262.5t204.5 107.5q76 0 120.5 -35.5t44.5 -94.5zM142 287q107 0 177 32t70 81q0 32 -19 49t-50 17q-53 0 -106.5 -47.5t-71.5 -131.5z" />
    <glyph glyph-name="Edotaccent" unicode="&#x116;" 
d="M368 811q0 28 18 51t47 23q21 0 33 -12t12 -34q0 -33 -19.5 -53.5t-45.5 -20.5q-45 0 -45 46zM110 640l9 55l186 5h301l-27 -170h-56l-10 90h-221l-35 -215h228l-12 -80h-228l-39 -245h227l37 102h66l-31 -182h-497l10 60l88 20l86 540z" />
    <glyph glyph-name="edotaccent" unicode="&#x117;" horiz-adv-x="496" 
d="M288 686q0 28 18 51t47 23q21 0 33 -12t12 -34q0 -33 -19.5 -53.5t-45.5 -20.5q-45 0 -45 46zM484 410q0 -86 -97.5 -139.5t-253.5 -53.5q-3 -22 -3 -43q0 -104 110 -104q32 0 73 11t66 23l25 11l30 -51q-12 -8 -33 -20.5t-80 -33t-111 -20.5q-82 0 -131 49t-49 131
q0 155 84.5 262.5t204.5 107.5q76 0 120.5 -35.5t44.5 -94.5zM142 287q107 0 177 32t70 81q0 32 -19 49t-50 17q-53 0 -106.5 -47.5t-71.5 -131.5z" />
    <glyph glyph-name="Eogonek" unicode="&#x118;" 
d="M292 620l-35 -215h228l-12 -80h-228l-39 -245h227l37 102h66l-31 -182q-5 -3 -13 -7.5t-28 -19.5t-35.5 -29t-28.5 -33t-13 -35q0 -17 10.5 -26.5t27.5 -9.5l46 7l2 -47q-42 -20 -81 -20q-37 0 -61 20t-24 55q0 40 30 76t60 53l30 16h-419l10 60l88 20l86 540l-82 20
l9 55l186 5h301l-27 -170h-56l-10 90h-221z" />
    <glyph glyph-name="eogonek" unicode="&#x119;" horiz-adv-x="504" 
d="M484 410q0 -86 -97.5 -139.5t-253.5 -53.5q-3 -22 -3 -43q0 -104 110 -104q32 0 73 11t66 23l25 11l30 -51q-12 -8 -32 -19q-152 -102 -152 -170q0 -35 38 -35l45 7l2 -47q-42 -20 -82 -20q-37 0 -60.5 20.5t-23.5 57.5q0 65 87 135l1 1q-20 -4 -47 -4q-82 0 -131 49
t-49 131q0 155 84.5 262.5t204.5 107.5q76 0 120.5 -35.5t44.5 -94.5zM320 466q-53 0 -106.5 -47.5t-71.5 -131.5q107 0 177 32t70 81q0 32 -19 49t-50 17z" />
    <glyph glyph-name="Ecaron" unicode="&#x11a;" 
d="M552 912l27 -45l-159 -111l-58 -5l-122 116l48 45l115 -86zM110 640l9 55l186 5h301l-27 -170h-56l-10 90h-221l-35 -215h228l-12 -80h-228l-39 -245h227l37 102h66l-31 -182h-497l10 60l88 20l86 540z" />
    <glyph glyph-name="ecaron" unicode="&#x11b;" horiz-adv-x="496" 
d="M535 735l-159 -130l-58 -5l-122 135l48 45l111 -105l153 105zM484 410q0 -86 -97.5 -139.5t-253.5 -53.5q-3 -22 -3 -43q0 -104 110 -104q32 0 73 11t66 23l25 11l30 -51q-12 -8 -33 -20.5t-80 -33t-111 -20.5q-82 0 -131 49t-49 131q0 155 84.5 262.5t204.5 107.5
q76 0 120.5 -35.5t44.5 -94.5zM142 287q107 0 177 32t70 81q0 32 -19 49t-50 17q-53 0 -106.5 -47.5t-71.5 -131.5z" />
    <glyph glyph-name="Gcircumflex" unicode="&#x11c;" horiz-adv-x="726" 
d="M489 833l-149 -83l-32 45l161 110l59 5l123 -115l-47 -45zM323 -10q140 0 269 60l35 220l77 15l10 60l-260 -5l-9 -55l85 -15l-27 -167q-72 -27 -155 -27q-89 0 -133.5 49.5t-44.5 137.5q0 93 32 175.5t94 134.5t139 52q76 0 131 -22l12 -104h58l27 161q-11 6 -31 14
t-75.5 22t-104.5 14q-170 0 -281 -130.5t-111 -335.5q0 -115 70.5 -184.5t192.5 -69.5z" />
    <glyph glyph-name="gcircumflex" unicode="&#x11d;" horiz-adv-x="558" 
d="M212 617l-33 45l162 130l59 5l122 -135l-46 -45l-115 98zM530 530l-89 -554q-17 -107 -78 -164t-158 -57q-39 0 -85 10.5t-72 20.5l-27 10l24 72q87 -31 150 -31q123 0 151 133l45 214q-7 -14 -13.5 -26t-30 -46.5t-47.5 -58t-61 -43.5t-74 -20q-56 0 -92.5 49.5
t-36.5 125.5q0 174 88 274.5t208 100.5q30 0 58.5 -7.5t41.5 -14.5l13 -8l30 20h55zM403 345l19 105q-36 15 -90 15q-79 0 -137.5 -72.5t-58.5 -210.5q0 -53 16.5 -80t44.5 -27q34 0 67.5 28t57.5 67.5t43 79t29 67.5z" />
    <glyph glyph-name="Gbreve" unicode="&#x11e;" horiz-adv-x="726" 
d="M554 905l59 5q-10 -66 -57.5 -108t-107.5 -42q-48 0 -79.5 34.5t-31.5 84.5l2 26l59 5q0 -32 18 -53.5t49 -21.5q32 0 54.5 17.5t28.5 35.5zM323 -10q140 0 269 60l35 220l77 15l10 60l-260 -5l-9 -55l85 -15l-27 -167q-72 -27 -155 -27q-89 0 -133.5 49.5t-44.5 137.5
q0 93 32 175.5t94 134.5t139 52q76 0 131 -22l12 -104h58l27 161q-11 6 -31 14t-75.5 22t-104.5 14q-170 0 -281 -130.5t-111 -335.5q0 -115 70.5 -184.5t192.5 -69.5z" />
    <glyph glyph-name="gbreve" unicode="&#x11f;" horiz-adv-x="558" 
d="M435 760l59 5q-10 -66 -57.5 -108t-107.5 -42q-48 0 -79.5 34.5t-31.5 84.5l2 26l59 5q0 -32 18 -53.5t49 -21.5q32 0 54.5 17.5t28.5 34.5zM530 530l-89 -554q-17 -107 -78 -164t-158 -57q-39 0 -85 10.5t-72 20.5l-27 10l24 72q87 -31 150 -31q123 0 151 133l45 214
q-7 -14 -13.5 -26t-30 -46.5t-47.5 -58t-61 -43.5t-74 -20q-56 0 -92.5 49.5t-36.5 125.5q0 174 88 274.5t208 100.5q30 0 58.5 -7.5t41.5 -14.5l13 -8l30 20h55zM403 345l19 105q-36 15 -90 15q-79 0 -137.5 -72.5t-58.5 -210.5q0 -53 16.5 -80t44.5 -27q34 0 67.5 28
t57.5 67.5t43 79t29 67.5z" />
    <glyph glyph-name="Gdotaccent" unicode="&#x120;" horiz-adv-x="726" 
d="M405 811q0 28 18 51t47 23q21 0 33 -12t12 -34q0 -33 -19.5 -53.5t-45.5 -20.5q-45 0 -45 46zM323 -10q140 0 269 60l35 220l77 15l10 60l-260 -5l-9 -55l85 -15l-27 -167q-72 -27 -155 -27q-89 0 -133.5 49.5t-44.5 137.5q0 93 32 175.5t94 134.5t139 52q76 0 131 -22
l12 -104h58l27 161q-11 6 -31 14t-75.5 22t-104.5 14q-170 0 -281 -130.5t-111 -335.5q0 -115 70.5 -184.5t192.5 -69.5z" />
    <glyph glyph-name="gdotaccent" unicode="&#x121;" horiz-adv-x="558" 
d="M303 686q0 28 18 51t47 23q21 0 33 -12t12 -34q0 -33 -19.5 -53.5t-45.5 -20.5q-45 0 -45 46zM530 530l-89 -554q-17 -107 -78 -164t-158 -57q-39 0 -85 10.5t-72 20.5l-27 10l24 72q87 -31 150 -31q123 0 151 133l45 214q-7 -14 -13.5 -26t-30 -46.5t-47.5 -58
t-61 -43.5t-74 -20q-56 0 -92.5 49.5t-36.5 125.5q0 174 88 274.5t208 100.5q30 0 58.5 -7.5t41.5 -14.5l13 -8l30 20h55zM403 345l19 105q-36 15 -90 15q-79 0 -137.5 -72.5t-58.5 -210.5q0 -53 16.5 -80t44.5 -27q34 0 67.5 28t57.5 67.5t43 79t29 67.5z" />
    <glyph glyph-name="Gcommaaccent" unicode="&#x122;" horiz-adv-x="724" 
d="M323 -10q140 0 269 60l35 220l77 15l10 60l-260 -5l-9 -55l85 -15l-27 -167q-72 -27 -155 -27q-89 0 -133.5 49.5t-44.5 137.5q0 93 32 175.5t94 134.5t139 52q76 0 131 -22l12 -104h58l27 161q-11 6 -31 14t-75.5 22t-104.5 14q-170 0 -281 -130.5t-111 -335.5
q0 -115 70.5 -184.5t192.5 -69.5zM260 -120q0 30 19.5 50t46.5 20q25 0 39.5 -15t14.5 -40q0 -33 -22.5 -68.5t-45 -57t-62.5 -54.5l-35 40q55 52 55 72q0 8 -5 24t-5 29z" />
    <glyph glyph-name="gcommaaccent" unicode="&#x123;" horiz-adv-x="558" 
d="M324 741q0 30 19.5 50t46.5 20q25 0 39.5 -15t14.5 -40q0 -33 -22.5 -68.5t-45 -57t-62.5 -54.5l-35 40q55 52 55 72q0 8 -5 24t-5 29zM530 530l-89 -554q-17 -107 -78 -164t-158 -57q-39 0 -85 10.5t-72 20.5l-27 10l24 72q87 -31 150 -31q123 0 151 133l45 214
q-7 -14 -13.5 -26t-30 -46.5t-47.5 -58t-61 -43.5t-74 -20q-56 0 -92.5 49.5t-36.5 125.5q0 174 88 274.5t208 100.5q30 0 58.5 -7.5t41.5 -14.5l13 -8l30 20h55zM403 345l19 105q-36 15 -90 15q-79 0 -137.5 -72.5t-58.5 -210.5q0 -53 16.5 -80t44.5 -27q34 0 67.5 28
t57.5 67.5t43 79t29 67.5z" />
    <glyph glyph-name="Hcircumflex" unicode="&#x124;" horiz-adv-x="775" 
d="M491 833l-149 -83l-32 45l161 110l59 5l123 -115l-47 -45zM519 79l39 241h-326l-38 -240l87 -20l-10 -60h-273l10 60l86 19l87 541l-82 20l9 55l275 5l-10 -60l-92 -20l-36 -220h326l35 220l-91 20l9 55l279 5l-10 -60l-87 -20l-87 -540l84 -20l-10 -60h-278l10 60z" />
    <glyph glyph-name="hcircumflex" unicode="&#x125;" horiz-adv-x="626" 
d="M80 791l-32 45l168 135l59 5l125 -140l-46 -45l-118 108zM277 770l-77 -434q3 9 11.5 26t30 50t47 60t65 47.5t82.5 20.5q109 0 109 -121q0 -24 -5 -59l-45 -280l84 -15l-9 -55l-183 -10l57 345q4 30 4 44q0 66 -52 66q-36 0 -71 -28.5t-59 -68.5t-42.5 -80.5
t-27.5 -69.5l-9 -28l-33 -180h-95l110 690l-84 20l9 55z" />
    <glyph glyph-name="Hbar" unicode="&#x126;" horiz-adv-x="796" 
d="M181 560l9 60l-80 20l9 55l275 5l-9 -60l-94 -20l-10 -60h325l10 60l-90 20l8 55l277 5l-9 -60l-86 -20l-10 -60h84l-12 -75h-84l-64 -405l83 -20l-9 -60h-279l11 60l94 20l38 240h-325l-39 -240l87 -20l-10 -60h-273l10 60l86 20l65 405h-83l11 75h84zM595 485h-327
l-12 -85h325z" />
    <glyph glyph-name="hbar" unicode="&#x127;" horiz-adv-x="626" 
d="M579 65l-9 -55l-183 -10l57 345q4 30 4 44q0 66 -52 66q-36 0 -71 -28.5t-59 -68.5t-42.5 -80.5t-27.5 -69.5l-9 -28l-33 -180h-95l92 575h-89l11 75h90l6 40l-84 20l9 55l183 5l-21 -120h102l-11 -75h-105l-42 -239q3 9 11.5 26t30 50t47 60t65 47.5t82.5 20.5
q109 0 109 -121q0 -24 -5 -59l-45 -280z" />
    <glyph glyph-name="Itilde" unicode="&#x128;" horiz-adv-x="363" 
d="M99 766l-29 30q2 4 6 10t17 22.5t27 29t34 22.5t39 10q35 0 85.5 -23t78.5 -23q18 0 35.5 10.5t25.5 21.5l9 10l30 -30q-2 -4 -5.5 -10t-16 -21.5t-25.5 -27.5t-32.5 -21.5t-38.5 -9.5q-35 0 -85.5 22t-78.5 22q-17 0 -36 -11t-29 -22zM105 640l9 55l273 5l-10 -60
l-88 -20l-87 -540l84 -20l-10 -60h-273l10 60l90 20l86 540z" />
    <glyph glyph-name="itilde" unicode="&#x129;" horiz-adv-x="286" 
d="M33 635l-28 35q2 4 6 10t16.5 22.5t25.5 29t33 22.5t39 10q33 0 77.5 -23t70.5 -23q17 0 34 10.5t25 21.5l9 10l29 -35q-2 -4 -5.5 -10t-15 -21.5t-24 -27.5t-32 -21.5t-38.5 -9.5q-33 0 -78.5 22t-70.5 22q-18 0 -36 -11t-28 -22zM252 10l9 55l-85 15l72 450l-183 -5
l-10 -55l85 -20l-72 -450z" />
    <glyph glyph-name="Imacron" unicode="&#x12a;" horiz-adv-x="363" 
d="M409 855l-11 -75h-264l11 75h264zM105 640l9 55l273 5l-10 -60l-88 -20l-87 -540l84 -20l-10 -60h-273l10 60l90 20l86 540z" />
    <glyph glyph-name="imacron" unicode="&#x12b;" horiz-adv-x="286" 
d="M335 735l-11 -75h-264l11 75h264zM252 10l9 55l-85 15l72 450l-183 -5l-10 -55l85 -20l-72 -450z" />
    <glyph glyph-name="Ibreve" unicode="&#x12c;" horiz-adv-x="363" 
d="M364 905l59 5q-10 -66 -57.5 -108t-107.5 -42q-48 0 -79.5 34.5t-31.5 84.5l2 26l59 5q0 -32 18 -53.5t49 -21.5q32 0 54.5 17.5t28.5 35.5zM105 640l9 55l273 5l-10 -60l-88 -20l-87 -540l84 -20l-10 -60h-273l10 60l90 20l86 540z" />
    <glyph glyph-name="ibreve" unicode="&#x12d;" horiz-adv-x="286" 
d="M301 760l59 5q-10 -66 -57.5 -108t-107.5 -42q-48 0 -79.5 34.5t-31.5 84.5l2 26l59 5q0 -32 18 -53.5t49 -21.5q32 0 54.5 17.5t28.5 34.5zM252 10l9 55l-85 15l72 450l-183 -5l-10 -55l85 -20l-72 -450z" />
    <glyph glyph-name="Iogonek" unicode="&#x12e;" horiz-adv-x="363" 
d="M387 700l-10 -60l-88 -20l-87 -540l84 -20l-10 -60q-172 -55 -172 -124q0 -17 10.5 -26.5t27.5 -9.5l46 7l2 -47q-42 -20 -81 -20q-37 0 -61 20t-24 55q0 85 126 142q3 2 5 3h-152l10 60l90 20l86 540l-84 20l9 55z" />
    <glyph glyph-name="iogonek" unicode="&#x12f;" horiz-adv-x="329" 
d="M206 625q33 0 51.5 26t18.5 64q0 23 -15 36.5t-40 13.5q-33 0 -51.5 -26t-18.5 -64q0 -23 15 -36.5t40 -13.5zM250 10l9 55l-85 15l72 450l-183 -5l-10 -55l85 -20l-72 -450zM149 6l101 4q-1 0 -16.5 -7.5t-24 -12t-25 -14.5t-26.5 -19.5t-21 -22t-16.5 -27.5t-5.5 -31
q0 -17 11 -26.5t28 -9.5q25 0 46 7v-47q-42 -20 -81 -20q-36 0 -60 21.5t-24 56.5q0 48 35 86t79 62z" />
    <glyph glyph-name="Idotaccent" unicode="&#x130;" horiz-adv-x="363" 
d="M214 811q0 28 18 51t47 23q21 0 33 -12t12 -34q0 -33 -19.5 -53.5t-45.5 -20.5q-45 0 -45 46zM105 640l9 55l273 5l-10 -60l-88 -20l-87 -540l84 -20l-10 -60h-273l10 60l90 20l86 540z" />
    <glyph glyph-name="dotlessi" unicode="&#x131;" horiz-adv-x="286" 
d="M252 10l9 55l-85 15l72 450l-183 -5l-10 -55l85 -20l-72 -450z" />
    <glyph glyph-name="IJ" unicode="&#x132;" horiz-adv-x="665" 
d="M397 640l-108 -20l-87 -540l84 -20l-10 -60h-273l10 60l90 20l86 540l-84 20l9 55l585 5l-10 -60l-87 -20l-92 -575q-14 -91 -71 -143t-144 -52l-62 5l21 75h49q90 0 104 95l95 595z" />
    <glyph glyph-name="ij" unicode="&#x133;" 
d="M199 625q33 0 51.5 26t18.5 64q0 23 -15 36.5t-40 13.5q-33 0 -51.5 -26t-18.5 -64q0 -23 15 -36.5t40 -13.5zM529 625q33 0 51.5 26t18.5 64q0 23 -15 36.5t-40 13.5q-33 0 -51.5 -26t-18.5 -64q0 -23 15 -36.5t40 -13.5zM461 450l-17 -102q-2 -15 -17.5 -54
t-41.5 -90.5t-67.5 -90t-85.5 -38.5q-52 0 -52 66q0 12 4 44l55 345l-183 -5l-9 -55l85 -20l-46 -280q-5 -35 -5 -58q0 -122 111 -122q40 0 77.5 17.5t65.5 46t46 53.5t33 52l-31 -194q-12 -70 -36 -100t-76 -30l-60 5l-20 -65q40 -15 80 -15q86 0 138 51.5t67 143.5l94 575
l-185 -5l-10 -55z" />
    <glyph glyph-name="Jcircumflex" unicode="&#x134;" horiz-adv-x="347" 
d="M265 833l-149 -83l-32 45l161 110l59 5l123 -115l-47 -45zM99 640l9 55l273 5l-10 -60l-87 -20l-92 -575q-14 -91 -71 -143t-144 -52l-62 5l21 75h49q88 0 104 95l95 595z" />
    <glyph glyph-name="jcircumflex" unicode="&#x135;" horiz-adv-x="264" 
d="M47 617l-33 45l162 130l59 5l122 -135l-46 -45l-115 98zM126 450l-81 -485q-12 -70 -35.5 -100t-72.5 -30l-60 5l-20 -65q40 -15 80 -15q86 0 137 51t66 144l96 575l-186 -5l-10 -55z" />
    <glyph glyph-name="Kcommaaccent" unicode="&#x136;" horiz-adv-x="649" 
d="M471 79l-130 241h-102l-38 -240l85 -20l-10 -60h-273l10 60l88 20l87 540l-84 20l9 55l274 5l-10 -60l-89 -20l-36 -220h92l216 295l148 5l-10 -60l-85 -20l-189 -253l157 -287l71 -20l-10 -60h-260l10 60zM253 -120q0 30 19.5 50t46.5 20q25 0 39.5 -15t14.5 -40
q0 -33 -22.5 -68.5t-45 -57t-62.5 -54.5l-35 40q55 52 55 72q0 8 -5 24t-5 29z" />
    <glyph glyph-name="kcommaaccent" unicode="&#x137;" horiz-adv-x="540" 
d="M285 329l97 129l-42 12l8 55l214 5l-10 -60l-73 -13l-129 -156l93 -221l79 -25l-10 -55h-136l-101 255h-86l-40 -255h-95l111 690l-85 20l9 55l183 5l-71 -441h84zM193 -120q0 30 19.5 50t46.5 20q25 0 39.5 -15t14.5 -40q0 -33 -22.5 -68.5t-45 -57t-62.5 -54.5l-35 40
q55 52 55 72q0 8 -5 24t-5 29z" />
    <glyph glyph-name="kgreenlandic" unicode="&#x138;" horiz-adv-x="551" 
d="M295 329l98 130l-43 11l8 55l215 5l-10 -60l-75 -13l-128 -157l92 -220l81 -25l-10 -55h-138l-100 255h-85l-40 -255h-95l72 450l-85 20l9 55l183 5l-33 -201h84z" />
    <glyph glyph-name="Lacute" unicode="&#x139;" horiz-adv-x="521" 
d="M194 746l-26 53l217 121l37 -79zM3 60l89 20l86 540l-83 20l8 55l279 5l-10 -60l-94 -20l-86 -540h206l39 115h68l-33 -195h-479z" />
    <glyph glyph-name="lacute" unicode="&#x13a;" horiz-adv-x="291" 
d="M147 786l-26 53l217 121l37 -79zM240 10l9 55l-85 15l110 690l-185 -5l-9 -55l84 -20l-110 -690z" />
    <glyph glyph-name="Lcommaaccent" unicode="&#x13b;" horiz-adv-x="521" 
d="M3 60l89 20l86 540l-83 20l8 55l279 5l-10 -60l-94 -20l-86 -540h206l39 115h68l-33 -195h-479zM185 -120q0 30 19.5 50t46.5 20q25 0 39.5 -15t14.5 -40q0 -33 -22.5 -68.5t-45 -57t-62.5 -54.5l-35 40q55 52 55 72q0 8 -5 24t-5 29z" />
    <glyph glyph-name="lcommaaccent" unicode="&#x13c;" horiz-adv-x="291" 
d="M240 10l9 55l-85 15l110 690l-185 -5l-9 -55l84 -20l-110 -690zM48 -120q0 30 19.5 50t46.5 20q25 0 39.5 -15t14.5 -40q0 -33 -22.5 -68.5t-45 -57t-62.5 -54.5l-35 40q55 52 55 72q0 8 -5 24t-5 29z" />
    <glyph glyph-name="Lcaron" unicode="&#x13d;" horiz-adv-x="533" 
d="M3 60l89 20l86 540l-83 20l8 55l279 5l-10 -60l-94 -20l-86 -540h206l39 115h68l-33 -195h-479zM493 695l96 5q-12 -74 -118 -235l-53 20q66 130 75 210z" />
    <glyph glyph-name="lcaron" unicode="&#x13e;" horiz-adv-x="364" 
d="M350 552l-53 21q58 122 68 202l96 5q-14 -73 -111 -228zM240 10l9 55l-85 15l110 690l-185 -5l-9 -55l84 -20l-110 -690z" />
    <glyph glyph-name="Ldot" unicode="&#x13f;" horiz-adv-x="521" 
d="M3 60l89 20l86 540l-83 20l8 55l279 5l-10 -60l-94 -20l-86 -540h206l39 115h68l-33 -195h-479zM320 343q0 35 22 62t58 27q55 0 55 -55q0 -35 -20.5 -62t-57.5 -27q-57 0 -57 55z" />
    <glyph glyph-name="ldot" unicode="&#x140;" horiz-adv-x="399" 
d="M240 10l9 55l-85 15l110 690l-185 -5l-9 -55l84 -20l-110 -690zM268 297q0 35 22 62t58 27q55 0 55 -55q0 -35 -20.5 -62t-57.5 -27q-57 0 -57 55z" />
    <glyph glyph-name="Lslash" unicode="&#x141;" horiz-adv-x="535" 
d="M514 195l-33 -195h-479l10 60l89 20l30 189l-90 -36l-9 75l112 45l43 267l-83 20l8 55l279 5l-10 -60l-94 -20l-36 -225l195 77l9 -75l-217 -86l-37 -231h206l39 115h68z" />
    <glyph glyph-name="lslash" unicode="&#x142;" horiz-adv-x="361" 
d="M164 80l85 -15l-9 -55l-186 -10l49 305l-101 -43l-9 74l123 53l48 301l-84 20l9 55l185 5l-54 -336l106 46l8 -75l-127 -55z" />
    <glyph glyph-name="Nacute" unicode="&#x143;" horiz-adv-x="780" 
d="M428 746l-26 53l217 121l37 -79zM101 640l83 -20l-86 -540l-89 -20l-11 -60h260l11 60l-82 20l77 483l244 -563h113l98 620l85 20l10 60l-255 -5l-9 -55l80 -20l-76 -479l-234 559l-210 -5z" />
    <glyph glyph-name="nacute" unicode="&#x144;" horiz-adv-x="634" 
d="M301 648l206 147l43 -75l-218 -125zM394 0l56 345q4 30 4 44q0 66 -52 66q-36 0 -71.5 -28.5t-60 -68.5t-44 -80.5t-28.5 -69.5l-10 -28l-29 -180h-95l72 450l-84 20l9 55l183 5l-45 -194q6 13 13 26.5t31 49t49.5 61t66 46.5t83.5 21q111 0 111 -123q0 -24 -5 -57
l-46 -280l85 -15l-9 -55z" />
    <glyph glyph-name="Ncommaaccent" unicode="&#x145;" horiz-adv-x="780" 
d="M101 640l83 -20l-86 -540l-89 -20l-11 -60h260l11 60l-82 20l77 483l244 -563h113l98 620l85 20l10 60l-255 -5l-9 -55l80 -20l-76 -479l-234 559l-210 -5zM287 -120q0 30 19.5 50t46.5 20q25 0 39.5 -15t14.5 -40q0 -33 -22.5 -68.5t-45 -57t-62.5 -54.5l-35 40
q55 52 55 72q0 8 -5 24t-5 29z" />
    <glyph glyph-name="ncommaaccent" unicode="&#x146;" horiz-adv-x="634" 
d="M394 0l56 345q4 30 4 44q0 66 -52 66q-36 0 -71.5 -28.5t-60 -68.5t-44 -80.5t-28.5 -69.5l-10 -28l-29 -180h-95l72 450l-84 20l9 55l183 5l-45 -194q6 13 13 26.5t31 49t49.5 61t66 46.5t83.5 21q111 0 111 -123q0 -24 -5 -57l-46 -280l85 -15l-9 -55zM205 -120
q0 30 19.5 50t46.5 20q25 0 39.5 -15t14.5 -40q0 -33 -22.5 -68.5t-45 -57t-62.5 -54.5l-35 40q55 52 55 72q0 8 -5 24t-5 29z" />
    <glyph glyph-name="Ncaron" unicode="&#x147;" horiz-adv-x="780" 
d="M648 912l27 -45l-159 -111l-58 -5l-122 116l48 45l115 -86zM101 640l83 -20l-86 -540l-89 -20l-11 -60h260l11 60l-82 20l77 483l244 -563h113l98 620l85 20l10 60l-255 -5l-9 -55l80 -20l-76 -479l-234 559l-210 -5z" />
    <glyph glyph-name="ncaron" unicode="&#x148;" horiz-adv-x="634" 
d="M569 735l-159 -130l-58 -5l-122 135l48 45l111 -105l153 105zM394 0l56 345q4 30 4 44q0 66 -52 66q-36 0 -71.5 -28.5t-60 -68.5t-44 -80.5t-28.5 -69.5l-10 -28l-29 -180h-95l72 450l-84 20l9 55l183 5l-45 -194q6 13 13 26.5t31 49t49.5 61t66 46.5t83.5 21
q111 0 111 -123q0 -24 -5 -57l-46 -280l85 -15l-9 -55z" />
    <glyph glyph-name="napostrophe" unicode="&#x149;" horiz-adv-x="634" 
d="M147 805q50 0 50 -51q0 -84 -135 -178l-31 43q1 0 16.5 12.5t31.5 29.5t16 26q0 5 -8 20.5t-8 28.5q0 26 19 47.5t49 21.5zM394 0l56 345q4 30 4 44q0 66 -52 66q-36 0 -71.5 -28.5t-60 -68.5t-44 -80.5t-28.5 -69.5l-10 -28l-29 -180h-95l72 450l-84 20l9 55l183 5
l-45 -194q6 13 13 26.5t31 49t49.5 61t66 46.5t83.5 21q111 0 111 -123q0 -24 -5 -57l-46 -280l85 -15l-9 -55z" />
    <glyph glyph-name="Eng" unicode="&#x14a;" horiz-adv-x="780" 
d="M368 -70h49q73 0 94 60l-248 571l-78 -481l83 -20l-10 -60h-260l10 60l89 20l86 540l-83 20l9 55l209 5l235 -559l76 479l-80 20l9 55l255 5l-9 -60l-86 -20l-94 -586q-13 -83 -70.5 -133.5t-143.5 -50.5l-62 5z" />
    <glyph glyph-name="eng" unicode="&#x14b;" horiz-adv-x="628" 
d="M548 360l-65 -405q-14 -91 -69 -143t-141 -52l-61 5l19 70h49q48 0 72 25.5t32 74.5l66 410q4 30 4 44q0 66 -52 66q-36 0 -71.5 -28.5t-60 -68.5t-44 -80.5t-28.5 -69.5l-10 -28l-29 -180h-95l72 450l-84 20l9 55l183 5l-45 -194q6 13 13 26.5t31 49t49.5 61t66 46.5
t83.5 21q111 0 111 -123q0 -24 -5 -57z" />
    <glyph glyph-name="Omacron" unicode="&#x14c;" horiz-adv-x="735" 
d="M605 855l-11 -75h-264l11 75h264zM299 -10q175 0 289.5 130t114.5 345q0 110 -67 177.5t-186 67.5q-169 0 -280.5 -133t-111.5 -343q0 -113 64.5 -178.5t176.5 -65.5zM593 452q0 -162 -76.5 -269.5t-195.5 -107.5q-72 0 -112.5 43t-40.5 126q0 158 74 269.5t191 111.5
q75 0 117.5 -42.5t42.5 -130.5z" />
    <glyph glyph-name="omacron" unicode="&#x14d;" horiz-adv-x="550" 
d="M491 735l-11 -75h-264l11 75h264zM218 -10q131 0 214.5 96t83.5 257q0 88 -49 142.5t-139 54.5q-130 0 -212 -97.5t-82 -254.5q0 -90 49.5 -144t134.5 -54zM417 345q0 -123 -48 -199t-133 -76q-47 0 -74.5 28.5t-27.5 86.5q0 116 46 195.5t130 79.5q107 0 107 -115z" />
    <glyph glyph-name="Obreve" unicode="&#x14e;" horiz-adv-x="735" 
d="M579 905l59 5q-10 -66 -57.5 -108t-107.5 -42q-48 0 -79.5 34.5t-31.5 84.5l2 26l59 5q0 -32 18 -53.5t49 -21.5q32 0 54.5 17.5t28.5 35.5zM299 -10q175 0 289.5 130t114.5 345q0 110 -67 177.5t-186 67.5q-169 0 -280.5 -133t-111.5 -343q0 -113 64.5 -178.5
t176.5 -65.5zM593 452q0 -162 -76.5 -269.5t-195.5 -107.5q-72 0 -112.5 43t-40.5 126q0 158 74 269.5t191 111.5q75 0 117.5 -42.5t42.5 -130.5z" />
    <glyph glyph-name="obreve" unicode="&#x14f;" horiz-adv-x="550" 
d="M453 760l59 5q-10 -66 -57.5 -108t-107.5 -42q-48 0 -79.5 34.5t-31.5 84.5l2 26l59 5q0 -32 18 -53.5t49 -21.5q32 0 54.5 17.5t28.5 34.5zM218 -10q131 0 214.5 96t83.5 257q0 88 -49 142.5t-139 54.5q-130 0 -212 -97.5t-82 -254.5q0 -90 49.5 -144t134.5 -54z
M417 345q0 -123 -48 -199t-133 -76q-47 0 -74.5 28.5t-27.5 86.5q0 116 46 195.5t130 79.5q107 0 107 -115z" />
    <glyph glyph-name="Ohungarumlaut" unicode="&#x150;" horiz-adv-x="735" 
d="M304 783l186 165l48 -65l-198 -150zM499 783l185 165l49 -65l-198 -150zM299 -10q175 0 289.5 130t114.5 345q0 110 -67 177.5t-186 67.5q-169 0 -280.5 -133t-111.5 -343q0 -113 64.5 -178.5t176.5 -65.5zM593 452q0 -162 -76.5 -269.5t-195.5 -107.5q-72 0 -112.5 43
t-40.5 126q0 158 74 269.5t191 111.5q75 0 117.5 -42.5t42.5 -130.5z" />
    <glyph glyph-name="ohungarumlaut" unicode="&#x151;" horiz-adv-x="550" 
d="M167 638l186 165l48 -65l-198 -150zM362 638l185 165l49 -65l-198 -150zM218 -10q131 0 214.5 96t83.5 257q0 88 -49 142.5t-139 54.5q-130 0 -212 -97.5t-82 -254.5q0 -90 49.5 -144t134.5 -54zM417 345q0 -123 -48 -199t-133 -76q-47 0 -74.5 28.5t-27.5 86.5
q0 116 46 195.5t130 79.5q107 0 107 -115z" />
    <glyph glyph-name="OE" unicode="&#x152;" horiz-adv-x="891" 
d="M812 0h-356q-17 0 -75 -5t-85 -5q-107 0 -171.5 70t-64.5 184q0 208 110.5 337t276.5 129q29 0 73.5 -5t59.5 -5h333l-27 -170h-56l-10 90h-221l-35 -215h228l-12 -80h-228l-39 -245h227l37 102h66zM413 80l86 540q-29 5 -69 5q-117 0 -191 -111.5t-74 -269.5
q0 -83 40.5 -126t112.5 -43z" />
    <glyph glyph-name="oe" unicode="&#x153;" horiz-adv-x="854" 
d="M213 -10q127 0 209 96q37 -96 155 -96q52 0 107 18.5t84 37.5l29 18l-30 51q-87 -45 -160 -45q-56 0 -83 26.5t-27 81.5q0 21 3 45q158 0 252.5 49.5t94.5 137.5q0 59 -44.5 94.5t-120.5 35.5q-111 0 -187 -98q-44 98 -167 98q-129 0 -212 -100t-83 -260q0 -86 49 -138
t131 -52zM509 293q20 75 67 123.5t101 48.5q75 0 75 -65q0 -52 -66.5 -79.5t-176.5 -27.5zM418 345q0 -122 -50.5 -198.5t-134.5 -76.5q-47 0 -73.5 28.5t-26.5 86.5q0 114 48.5 194.5t131.5 80.5q105 0 105 -115z" />
    <glyph glyph-name="Racute" unicode="&#x154;" horiz-adv-x="630" 
d="M327 746l-26 53l217 121l37 -79zM444 0l-56 185q-22 73 -48.5 96.5t-78.5 23.5h-29l-35 -225l86 -20l-10 -60h-275l10 60l88 20l86 540l-81 20l8 55l186 5h108q82 0 138.5 -39t56.5 -113q0 -86 -48 -143.5t-127 -82.5q30 -25 59 -112l44 -130l72 -20l-10 -60h-144z
M244 380h74q78 0 126.5 39.5t48.5 110.5q0 90 -108 90h-103z" />
    <glyph glyph-name="racute" unicode="&#x155;" horiz-adv-x="426" 
d="M222 648l206 147l43 -75l-218 -125zM371 380v70q-29 0 -58.5 -27t-50.5 -65t-37.5 -76t-24.5 -65l-9 -27l-32 -190h-95l73 450l-85 20l9 55l184 5l-39 -174q5 12 10.5 25t25 44.5t41.5 54.5t58 41.5t75 18.5q11 0 23.5 -2.5t19.5 -5.5l7 -2l-30 -150h-65z" />
    <glyph glyph-name="Rcommaaccent" unicode="&#x156;" horiz-adv-x="630" 
d="M444 0l-56 185q-22 73 -48.5 96.5t-78.5 23.5h-29l-35 -225l86 -20l-10 -60h-275l10 60l88 20l86 540l-81 20l8 55l186 5h108q82 0 138.5 -39t56.5 -113q0 -86 -48 -143.5t-127 -82.5q30 -25 59 -112l44 -130l72 -20l-10 -60h-144zM244 380h74q78 0 126.5 39.5
t48.5 110.5q0 90 -108 90h-103zM237 -120q0 30 19.5 50t46.5 20q25 0 39.5 -15t14.5 -40q0 -33 -22.5 -68.5t-45 -57t-62.5 -54.5l-35 40q55 52 55 72q0 8 -5 24t-5 29z" />
    <glyph glyph-name="rcommaaccent" unicode="&#x157;" horiz-adv-x="426" 
d="M371 380v70q-29 0 -58.5 -27t-50.5 -65t-37.5 -76t-24.5 -65l-9 -27l-32 -190h-95l73 450l-85 20l9 55l184 5l-39 -174q5 12 10.5 25t25 44.5t41.5 54.5t58 41.5t75 18.5q11 0 23.5 -2.5t19.5 -5.5l7 -2l-30 -150h-65zM45 -120q0 30 19.5 50t46.5 20q25 0 39.5 -15
t14.5 -40q0 -33 -22.5 -68.5t-45 -57t-62.5 -54.5l-35 40q55 52 55 72q0 8 -5 24t-5 29z" />
    <glyph glyph-name="Rcaron" unicode="&#x158;" horiz-adv-x="630" 
d="M535 912l27 -45l-159 -111l-58 -5l-122 116l48 45l115 -86zM444 0l-56 185q-22 73 -48.5 96.5t-78.5 23.5h-29l-35 -225l86 -20l-10 -60h-275l10 60l88 20l86 540l-81 20l8 55l186 5h108q82 0 138.5 -39t56.5 -113q0 -86 -48 -143.5t-127 -82.5q30 -25 59 -112l44 -130
l72 -20l-10 -60h-144zM244 380h74q78 0 126.5 39.5t48.5 110.5q0 90 -108 90h-103z" />
    <glyph glyph-name="rcaron" unicode="&#x159;" horiz-adv-x="426" 
d="M484 735l-159 -130l-58 -5l-122 135l48 45l111 -105l153 105zM371 380v70q-29 0 -58.5 -27t-50.5 -65t-37.5 -76t-24.5 -65l-9 -27l-32 -190h-95l73 450l-85 20l9 55l184 5l-39 -174q5 12 10.5 25t25 44.5t41.5 54.5t58 41.5t75 18.5q11 0 23.5 -2.5t19.5 -5.5l7 -2
l-30 -150h-65z" />
    <glyph glyph-name="Sacute" unicode="&#x15a;" horiz-adv-x="578" 
d="M317 746l-26 53l217 121l37 -79zM61 205l-28 -175q88 -40 187 -40q73 0 135 26.5t103.5 85t41.5 137.5q0 52 -29 88t-70.5 55t-83 35.5t-70.5 41.5t-29 61q0 44 37.5 74.5t99.5 30.5q21 0 45.5 -4.5t38.5 -8.5l14 -5l14 -107h56l32 170q-98 40 -184 40q-106 0 -183 -57.5
t-77 -167.5q0 -41 15.5 -72t40.5 -50t55 -34t60 -27t55 -25.5t40.5 -33.5t15.5 -47q0 -55 -49 -88t-109 -33q-26 0 -52.5 5.5t-39.5 10.5l-13 5l-3 109h-66z" />
    <glyph glyph-name="sacute" unicode="&#x15b;" horiz-adv-x="460" 
d="M197 648l206 147l43 -75l-218 -125zM45 160l-24 -145q70 -25 150 -25q102 0 163.5 46t61.5 124q0 39 -23 68t-56 47t-66.5 34t-56.5 37.5t-23 48.5q0 36 26 54t69 18q19 0 35.5 -2.5t22.5 -4.5l7 -2l6 -78h65l24 135q-75 25 -148 25q-88 0 -145 -40.5t-57 -119.5
q0 -42 22.5 -72.5t55 -48.5t65 -33t55 -35t22.5 -46q0 -40 -30 -61t-80 -21q-20 0 -39 3t-27 6l-9 3l-1 85h-65z" />
    <glyph glyph-name="Scircumflex" unicode="&#x15c;" horiz-adv-x="578" 
d="M386 833l-149 -83l-32 45l161 110l59 5l123 -115l-47 -45zM61 205l-28 -175q88 -40 187 -40q73 0 135 26.5t103.5 85t41.5 137.5q0 52 -29 88t-70.5 55t-83 35.5t-70.5 41.5t-29 61q0 44 37.5 74.5t99.5 30.5q21 0 45.5 -4.5t38.5 -8.5l14 -5l14 -107h56l32 170
q-98 40 -184 40q-106 0 -183 -57.5t-77 -167.5q0 -41 15.5 -72t40.5 -50t55 -34t60 -27t55 -25.5t40.5 -33.5t15.5 -47q0 -55 -49 -88t-109 -33q-26 0 -52.5 5.5t-39.5 10.5l-13 5l-3 109h-66z" />
    <glyph glyph-name="scircumflex" unicode="&#x15d;" horiz-adv-x="460" 
d="M148 617l-33 45l162 130l59 5l122 -135l-46 -45l-115 98zM45 160l-24 -145q70 -25 150 -25q102 0 163.5 46t61.5 124q0 39 -23 68t-56 47t-66.5 34t-56.5 37.5t-23 48.5q0 36 26 54t69 18q19 0 35.5 -2.5t22.5 -4.5l7 -2l6 -78h65l24 135q-75 25 -148 25
q-88 0 -145 -40.5t-57 -119.5q0 -42 22.5 -72.5t55 -48.5t65 -33t55 -35t22.5 -46q0 -40 -30 -61t-80 -21q-20 0 -39 3t-27 6l-9 3l-1 85h-65z" />
    <glyph glyph-name="Scedilla" unicode="&#x15e;" horiz-adv-x="578" 
d="M355 625q-62 0 -99.5 -30.5t-37.5 -74.5q0 -36 29 -61t70.5 -41.5t83 -35.5t70.5 -55t29 -88q0 -105 -67.5 -169t-166.5 -77l-6 -36q72 -13 72 -72q0 -44 -34 -74t-80 -30q-30 0 -56 5.5t-37 11.5l-11 6l30 41q31 -16 66 -16q23 0 40.5 13.5t17.5 35.5q0 43 -73 43l11 69
q-41 2 -84.5 12t-65.5 19l-23 9l28 175h66l3 -109q46 -21 105 -21q60 0 109 33t49 88q0 27 -15.5 47t-40.5 33.5t-55 25.5t-60 27t-55 34t-40.5 50t-15.5 72q0 110 77 167.5t183 57.5q38 0 84 -10t73 -20l27 -10l-32 -170h-56l-14 107q-51 18 -98 18z" />
    <glyph glyph-name="scedilla" unicode="&#x15f;" horiz-adv-x="460" 
d="M266 467q-43 0 -69 -18t-26 -54q0 -27 23 -48.5t56 -37.5t66.5 -34t56.5 -47t23 -68q0 -68 -47.5 -112t-129.5 -55l-6 -36q72 -13 72 -72q0 -44 -34 -74t-80 -30q-30 0 -56 5.5t-37 11.5l-11 6l30 41q31 -16 66 -16q23 0 40.5 13.5t17.5 35.5q0 43 -73 43l11 69
q-33 1 -67.5 7t-52.5 12l-18 6l24 145h65l1 -85q30 -12 75 -12q50 0 80 21t30 61q0 26 -22.5 46t-55 35t-65 33t-55 48.5t-22.5 72.5q0 79 57 119.5t145 40.5q32 0 69 -6t58 -12l21 -7l-24 -135h-65l-6 78q-22 9 -65 9z" />
    <glyph glyph-name="Scaron" unicode="&#x160;" horiz-adv-x="578" 
d="M556 912l27 -45l-159 -111l-58 -5l-122 116l48 45l115 -86zM61 205l-28 -175q88 -40 187 -40q73 0 135 26.5t103.5 85t41.5 137.5q0 52 -29 88t-70.5 55t-83 35.5t-70.5 41.5t-29 61q0 44 37.5 74.5t99.5 30.5q21 0 45.5 -4.5t38.5 -8.5l14 -5l14 -107h56l32 170
q-98 40 -184 40q-106 0 -183 -57.5t-77 -167.5q0 -41 15.5 -72t40.5 -50t55 -34t60 -27t55 -25.5t40.5 -33.5t15.5 -47q0 -55 -49 -88t-109 -33q-26 0 -52.5 5.5t-39.5 10.5l-13 5l-3 109h-66z" />
    <glyph glyph-name="scaron" unicode="&#x161;" horiz-adv-x="460" 
d="M477 735l-159 -130l-58 -5l-122 135l48 45l111 -105l153 105zM45 160l-24 -145q70 -25 150 -25q102 0 163.5 46t61.5 124q0 39 -23 68t-56 47t-66.5 34t-56.5 37.5t-23 48.5q0 36 26 54t69 18q19 0 35.5 -2.5t22.5 -4.5l7 -2l6 -78h65l24 135q-75 25 -148 25
q-88 0 -145 -40.5t-57 -119.5q0 -42 22.5 -72.5t55 -48.5t65 -33t55 -35t22.5 -46q0 -40 -30 -61t-80 -21q-20 0 -39 3t-27 6l-9 3l-1 85h-65z" />
    <glyph glyph-name="Tcedilla" unicode="&#x162;" horiz-adv-x="549" 
d="M613 700l-29 -180h-64l-10 100h-129l-86 -540l96 -20l-10 -60h-120l-7 -43q72 -13 72 -72q0 -44 -34 -74t-80 -30q-30 0 -56 5.5t-37 11.5l-11 6l30 41q31 -16 66 -16q23 0 40.5 13.5t17.5 35.5q0 43 -73 43l13 79h-120l10 60l103 20l86 540h-130l-41 -100h-65l30 180
h538z" />
    <glyph glyph-name="tcedilla" unicode="&#x163;" horiz-adv-x="369" 
d="M238 450l-43 -267q-6 -39 -6 -63q0 -27 9 -38.5t30 -11.5q12 0 32.5 5t34.5 10l14 5l16 -54q-72 -44 -128 -46l-5 -33q72 -13 72 -72q0 -44 -34 -74t-80 -30q-30 0 -56 5.5t-37 11.5l-11 6l30 41q31 -16 66 -16q23 0 40.5 13.5t17.5 35.5q0 43 -73 43l13 81
q-47 26 -47 107q0 29 6 64l44 277h-99l11 65l100 10l20 126l99 20l-24 -146h138l-12 -75h-138z" />
    <glyph glyph-name="Tcaron" unicode="&#x164;" horiz-adv-x="549" 
d="M507 912l27 -45l-159 -111l-58 -5l-122 116l48 45l115 -86zM584 520h-64l-10 100h-129l-86 -540l96 -20l-10 -60h-299l10 60l103 20l86 540h-130l-41 -100h-65l30 180h538z" />
    <glyph glyph-name="tcaron" unicode="&#x165;" horiz-adv-x="368" 
d="M372 572l-53 21q58 122 68 202l96 5q-14 -73 -111 -228zM309 90l16 -54q-75 -46 -131 -46q-101 0 -101 119q0 29 6 64l44 277h-99l11 65l100 10l20 126l99 20l-24 -146h138l-12 -75h-138l-43 -267q-6 -39 -6 -63q0 -27 9 -38.5t30 -11.5q12 0 32.5 5t34.5 10z" />
    <glyph glyph-name="Tbar" unicode="&#x166;" horiz-adv-x="549" 
d="M613 700l-29 -180h-64l-10 100h-129l-36 -225h145l-14 -79h-143l-38 -236l96 -20l-10 -60h-299l10 60l103 20l38 236h-141l14 79h139l36 225h-130l-41 -100h-65l30 180h538z" />
    <glyph glyph-name="tbar" unicode="&#x167;" horiz-adv-x="369" 
d="M238 450l-18 -110h142l-11 -75h-143l-13 -82q-6 -39 -6 -63q0 -27 9 -38.5t30 -11.5q12 0 32.5 5t34.5 10l14 5l16 -54q-75 -46 -131 -46q-101 0 -101 119q0 29 6 64l15 92h-95l11 75h96l17 110h-99l11 65l100 10l20 126l99 20l-24 -146h138l-12 -75h-138z" />
    <glyph glyph-name="Utilde" unicode="&#x168;" horiz-adv-x="765" 
d="M289 766l-29 30q2 4 6 10t17 22.5t27 29t34 22.5t39 10q35 0 85.5 -23t78.5 -23q18 0 35.5 10.5t25.5 21.5l9 10l30 -30q-2 -4 -5.5 -10t-16 -21.5t-25.5 -27.5t-32.5 -21.5t-38.5 -9.5q-35 0 -85.5 22t-78.5 22q-17 0 -36 -11t-29 -22zM705 620l-52 -325
q-23 -149 -96.5 -227t-220.5 -78q-118 0 -169 52.5t-51 147.5q0 31 7 80l56 350l-85 20l9 55l274 5l-10 -60l-87 -20l-56 -350q-6 -36 -6 -69q0 -61 30.5 -93.5t106.5 -32.5q89 0 133 48t62 162l54 335l-90 20l9 55l276 5l-10 -60z" />
    <glyph glyph-name="utilde" unicode="&#x169;" horiz-adv-x="636" 
d="M205 635l-28 35q2 4 6 10t17 22.5t27 29t34 22.5t39 10q35 0 82.5 -23t75.5 -23q17 0 35 10.5t27 21.5l9 10l29 -35q-2 -4 -5.5 -10t-16 -21.5t-25.5 -27.5t-32.5 -21.5t-38.5 -9.5q-35 0 -83 22t-76 22q-18 0 -37 -11t-29 -22zM391 0l41 194q-4 -10 -12 -26.5t-31 -50
t-48.5 -60t-66 -47t-82.5 -20.5q-111 0 -111 122q0 43 51 338l-85 20l9 55l183 5q-59 -356 -59 -389q0 -66 52 -66q37 0 73 28.5t60 69t43 80.5t28 69l9 28l30 180h95l-72 -450l86 -15l-9 -55z" />
    <glyph glyph-name="Umacron" unicode="&#x16a;" horiz-adv-x="765" 
d="M586 855l-11 -75h-264l11 75h264zM705 620l-52 -325q-23 -149 -96.5 -227t-220.5 -78q-118 0 -169 52.5t-51 147.5q0 31 7 80l56 350l-85 20l9 55l274 5l-10 -60l-87 -20l-56 -350q-6 -36 -6 -69q0 -61 30.5 -93.5t106.5 -32.5q89 0 133 48t62 162l54 335l-90 20l9 55
l276 5l-10 -60z" />
    <glyph glyph-name="umacron" unicode="&#x16b;" horiz-adv-x="636" 
d="M496 735l-11 -75h-264l11 75h264zM391 0l41 194q-4 -10 -12 -26.5t-31 -50t-48.5 -60t-66 -47t-82.5 -20.5q-111 0 -111 122q0 43 51 338l-85 20l9 55l183 5q-59 -356 -59 -389q0 -66 52 -66q37 0 73 28.5t60 69t43 80.5t28 69l9 28l30 180h95l-72 -450l86 -15l-9 -55z
" />
    <glyph glyph-name="Ubreve" unicode="&#x16c;" horiz-adv-x="765" 
d="M556 905l59 5q-10 -66 -57.5 -108t-107.5 -42q-48 0 -79.5 34.5t-31.5 84.5l2 26l59 5q0 -32 18 -53.5t49 -21.5q32 0 54.5 17.5t28.5 35.5zM705 620l-52 -325q-23 -149 -96.5 -227t-220.5 -78q-118 0 -169 52.5t-51 147.5q0 31 7 80l56 350l-85 20l9 55l274 5l-10 -60
l-87 -20l-56 -350q-6 -36 -6 -69q0 -61 30.5 -93.5t106.5 -32.5q89 0 133 48t62 162l54 335l-90 20l9 55l276 5l-10 -60z" />
    <glyph glyph-name="ubreve" unicode="&#x16d;" horiz-adv-x="636" 
d="M458 760l59 5q-10 -66 -57.5 -108t-107.5 -42q-48 0 -79.5 34.5t-31.5 84.5l2 26l59 5q0 -32 18 -53.5t49 -21.5q32 0 54.5 17.5t28.5 34.5zM391 0l41 194q-4 -10 -12 -26.5t-31 -50t-48.5 -60t-66 -47t-82.5 -20.5q-111 0 -111 122q0 43 51 338l-85 20l9 55l183 5
q-59 -356 -59 -389q0 -66 52 -66q37 0 73 28.5t60 69t43 80.5t28 69l9 28l30 180h95l-72 -450l86 -15l-9 -55z" />
    <glyph glyph-name="Uring" unicode="&#x16e;" horiz-adv-x="765" 
d="M359 826q0 53 40 93.5t92 40.5q40 0 68.5 -24.5t28.5 -66.5q0 -53 -40 -93.5t-92 -40.5q-42 0 -69.5 25t-27.5 66zM484 910q-29 0 -47.5 -23.5t-18.5 -54.5q0 -47 46 -47q29 0 47 23.5t18 54.5q0 47 -45 47zM705 620l-52 -325q-23 -149 -96.5 -227t-220.5 -78
q-118 0 -169 52.5t-51 147.5q0 31 7 80l56 350l-85 20l9 55l274 5l-10 -60l-87 -20l-56 -350q-6 -36 -6 -69q0 -61 30.5 -93.5t106.5 -32.5q89 0 133 48t62 162l54 335l-90 20l9 55l276 5l-10 -60z" />
    <glyph glyph-name="uring" unicode="&#x16f;" horiz-adv-x="636" 
d="M248 686q0 53 40 93.5t92 40.5q40 0 68.5 -24.5t28.5 -66.5q0 -53 -40 -93.5t-92 -40.5q-42 0 -69.5 25t-27.5 66zM373 770q-29 0 -47.5 -23.5t-18.5 -54.5q0 -47 46 -47q29 0 47 23.5t18 54.5q0 47 -45 47zM391 0l41 194q-4 -10 -12 -26.5t-31 -50t-48.5 -60t-66 -47
t-82.5 -20.5q-111 0 -111 122q0 43 51 338l-85 20l9 55l183 5q-59 -356 -59 -389q0 -66 52 -66q37 0 73 28.5t60 69t43 80.5t28 69l9 28l30 180h95l-72 -450l86 -15l-9 -55z" />
    <glyph glyph-name="Uhungarumlaut" unicode="&#x170;" horiz-adv-x="765" 
d="M295 783l186 165l48 -65l-198 -150zM490 783l185 165l49 -65l-198 -150zM705 620l-52 -325q-23 -149 -96.5 -227t-220.5 -78q-118 0 -169 52.5t-51 147.5q0 31 7 80l56 350l-85 20l9 55l274 5l-10 -60l-87 -20l-56 -350q-6 -36 -6 -69q0 -61 30.5 -93.5t106.5 -32.5
q89 0 133 48t62 162l54 335l-90 20l9 55l276 5l-10 -60z" />
    <glyph glyph-name="uhungarumlaut" unicode="&#x171;" horiz-adv-x="636" 
d="M176 638l186 165l48 -65l-198 -150zM371 638l185 165l49 -65l-198 -150zM391 0l41 194q-4 -10 -12 -26.5t-31 -50t-48.5 -60t-66 -47t-82.5 -20.5q-111 0 -111 122q0 43 51 338l-85 20l9 55l183 5q-59 -356 -59 -389q0 -66 52 -66q37 0 73 28.5t60 69t43 80.5t28 69l9 28
l30 180h95l-72 -450l86 -15l-9 -55z" />
    <glyph glyph-name="Uogonek" unicode="&#x172;" horiz-adv-x="765" 
d="M789 640l-84 -20l-52 -325q-11 -69 -32 -121t-48.5 -84t-52 -49.5t-54.5 -30.5q-153 -69 -153 -134q0 -17 10.5 -26.5t27.5 -9.5l46 7l2 -47q-42 -20 -81 -20q-37 0 -61 20t-24 55q0 74 101 135q-117 1 -167.5 53t-50.5 147q0 31 7 80l56 350l-85 20l9 55l274 5l-10 -60
l-87 -20l-56 -350q-6 -36 -6 -69q0 -61 30.5 -93.5t106.5 -32.5q89 0 133 48t62 162l54 335l-90 20l9 55l276 5z" />
    <glyph glyph-name="uogonek" unicode="&#x173;" horiz-adv-x="632" 
d="M584 65l-9 -55q-1 0 -16.5 -7.5t-24 -12t-25 -14.5t-26.5 -19.5t-21 -22t-16.5 -27.5t-5.5 -31q0 -17 11 -26.5t28 -9.5q25 0 46 7v-47q-42 -20 -81 -20q-36 0 -60 21.5t-24 56.5q0 47 34 85t77 61l-80 -4l41 194q-4 -10 -12 -26.5t-31 -50t-48.5 -60t-66 -47
t-82.5 -20.5q-111 0 -111 122q0 43 51 338l-85 20l9 55l183 5q-59 -356 -59 -389q0 -66 52 -66q37 0 73 28.5t60 69t43 80.5t28 69l9 28l30 180h95l-72 -450z" />
    <glyph glyph-name="Wcircumflex" unicode="&#x174;" horiz-adv-x="967" 
d="M569 833l-149 -83l-32 45l161 110l59 5l123 -115l-47 -45zM44 640l9 55l177 5v-1l1 1l75 -515l222 510l63 5l80 -522l188 442l-86 20l10 55l268 5l-10 -60l-77 -19l-287 -621h-63l-87 485l-42 -102l-182 -383h-65l-110 620z" />
    <glyph glyph-name="wcircumflex" unicode="&#x175;" horiz-adv-x="776" 
d="M346 617l-33 45l162 130l59 5l122 -135l-46 -45l-115 98zM553 0h-115l-46 340l-13 -50l-112 -290h-113l-72 455l-70 15l9 55l157 5l50 -435l163 430l71 5l51 -435l147 356l-85 19l9 55l229 5l-10 -60l-49 -12z" />
    <glyph glyph-name="Ycircumflex" unicode="&#x176;" horiz-adv-x="606" 
d="M346 833l-149 -83l-32 45l161 110l59 5l123 -115l-47 -45zM133 620l-84 20l9 55l155 5l100 -366l168 287l-90 19l10 55l269 5l-10 -60l-80 -20l-247 -389l-24 -151l83 -20l-10 -60h-273l10 60l90 20l28 182z" />
    <glyph glyph-name="ycircumflex" unicode="&#x177;" horiz-adv-x="527" 
d="M159 617l-33 45l162 130l59 5l122 -135l-46 -45l-115 98zM505 454l-185 -421q-30 -67 -49.5 -106.5t-42 -75.5t-43 -53.5t-46 -27.5t-57.5 -10q-25 0 -53.5 4t-44.5 8l-15 4l21 64q40 -5 75 -5q51 0 79 27t61 99l-122 490l-69 19l12 55l151 5l78 -367l8 -68l154 357
l-75 18l10 55l220 5l-11 -60z" />
    <glyph glyph-name="Ydieresis" unicode="&#x178;" horiz-adv-x="606" 
d="M213 810q0 31 18 53t46 22q46 0 46 -46q0 -30 -19 -52t-46 -22q-21 0 -33 12t-12 33zM414 810q0 31 18 53t46 22q46 0 46 -46q0 -30 -19 -52t-46 -22q-21 0 -33 12t-12 33zM133 620l-84 20l9 55l155 5l100 -366l168 287l-90 19l10 55l269 5l-10 -60l-80 -20l-247 -389
l-24 -151l83 -20l-10 -60h-273l10 60l90 20l28 182z" />
    <glyph glyph-name="Zacute" unicode="&#x179;" horiz-adv-x="587" 
d="M282 746l-26 53l217 121l37 -79zM578 634l-419 -554h268l36 102h66l-29 -182h-471l5 70l416 549h-264l-40 -89h-56l24 170h469z" />
    <glyph glyph-name="zacute" unicode="&#x17a;" horiz-adv-x="462" 
d="M162 648l206 147l43 -75l-218 -125zM450 465l-319 -387h188l32 82h60l-21 -160h-385l5 70l320 385h-174l-32 -75h-65l23 150h373z" />
    <glyph glyph-name="Zdotaccent" unicode="&#x17b;" horiz-adv-x="587" 
d="M290 811q0 28 18 51t47 23q21 0 33 -12t12 -34q0 -33 -19.5 -53.5t-45.5 -20.5q-45 0 -45 46zM578 634l-419 -554h268l36 102h66l-29 -182h-471l5 70l416 549h-264l-40 -89h-56l24 170h469z" />
    <glyph glyph-name="zdotaccent" unicode="&#x17c;" horiz-adv-x="462" 
d="M225 686q0 28 18 51t47 23q21 0 33 -12t12 -34q0 -33 -19.5 -53.5t-45.5 -20.5q-45 0 -45 46zM450 465l-319 -387h188l32 82h60l-21 -160h-385l5 70l320 385h-174l-32 -75h-65l23 150h373z" />
    <glyph glyph-name="Zcaron" unicode="&#x17d;" horiz-adv-x="587" 
d="M515 912l27 -45l-159 -111l-58 -5l-122 116l48 45l115 -86zM578 634l-419 -554h268l36 102h66l-29 -182h-471l5 70l416 549h-264l-40 -89h-56l24 170h469z" />
    <glyph glyph-name="zcaron" unicode="&#x17e;" horiz-adv-x="462" 
d="M476 735l-159 -130l-58 -5l-122 135l48 45l111 -105l153 105zM450 465l-319 -387h188l32 82h60l-21 -160h-385l5 70l320 385h-174l-32 -75h-65l23 150h373z" />
    <glyph glyph-name="longs" unicode="&#x17f;" horiz-adv-x="352" 
d="M414 700h-44q-49 0 -70.5 -24.5t-29.5 -70.5l-100 -625q-35 -220 -205 -220q-16 0 -36.5 3t-33.5 7l-13 3l17 64h71q82 0 102 123l99 625q31 195 199 195q31 0 65 -5t52 -10l18 -5l-26 -140h-65v80z" />
    <glyph glyph-name="florin" unicode="&#x192;" horiz-adv-x="443" 
d="M261 376l-93 -381q-25 -99 -71.5 -147t-141.5 -48q-14 0 -31 2.5t-26 5.5l-10 2l15 70h54q47 0 69 23t34 72l98 401h-84l11 63l91 11l34 135q25 103 74 149t139 46q15 0 35 -2.5t32 -5.5l13 -2l-16 -70h-65q-47 0 -69.5 -23t-34.5 -72l-38 -155h138l-13 -74h-144z" />
    <glyph glyph-name="Aringacute" unicode="&#x1fa;" horiz-adv-x="712" 
d="M665 60l-10 -60h-265l9 60l86 20l-20 110h-255l-55 -111l84 -19l-10 -60h-265l9 60l85 20l316 608q-45 25 -45 78t40 93.5t92 40.5q40 0 68.5 -24.5t28.5 -66.5q0 -38 -22 -71t-57 -50l118 -611zM454 850q-29 0 -47.5 -23.5t-18.5 -54.5q0 -47 46 -47q29 0 47 23.5
t18 54.5q0 47 -45 47zM451 270l-51 301l-151 -301h202z" />
    <glyph glyph-name="aringacute" unicode="&#x1fb;" horiz-adv-x="593" 
d="M382 580q-42 0 -69.5 25t-27.5 66q0 53 40 93.5t92 40.5q40 0 68.5 -24.5t28.5 -66.5q0 -53 -40 -93.5t-92 -40.5zM410 755q-29 0 -47.5 -23.5t-18.5 -54.5q0 -47 46 -47q29 0 47 23.5t18 54.5q0 47 -45 47zM541 65l-9 -55l-186 -10l40 184q-7 -14 -13.5 -26t-30 -46.5
t-47 -58t-60 -43.5t-73.5 -20q-56 0 -93.5 50t-37.5 125q0 174 88.5 274.5t209.5 100.5q29 0 57 -7.5t42 -14.5l13 -8l30 20h55l-72 -450zM399 345l20 105q-38 15 -90 15q-80 0 -139 -72.5t-59 -212.5q0 -51 17 -78t44 -27q34 0 67.5 28t57.5 67.5t43.5 79t29.5 67.5z" />
    <glyph glyph-name="AEacute" unicode="&#x1fc;" horiz-adv-x="936" 
d="M598 746l-26 53l217 121l37 -79zM336 640l9 55l191 5h402l-27 -170h-56l-10 90h-221l-35 -215h228l-12 -80h-228l-39 -245h227l37 102h66l-31 -182h-497l10 60l88 20l20 125h-217l-83 -128l75 -17l-10 -60h-260l10 60l85 20l357 540zM292 285h178l54 335h-17z" />
    <glyph glyph-name="aeacute" unicode="&#x1fd;" horiz-adv-x="779" 
d="M387 648l206 147l43 -75l-218 -125zM772 410q0 -88 -94.5 -137.5t-252.5 -49.5q-3 -24 -3 -45q0 -55 27 -81.5t83 -26.5q32 0 72 11t64 23l24 11l30 -51q-11 -8 -31.5 -20.5t-78.5 -33t-110 -20.5q-125 0 -159 106q-38 -47 -91 -76.5t-104 -29.5q-57 0 -91 32t-34 88
q0 91 65.5 136.5t179.5 45.5h76l13 83q2 14 2 20q0 70 -79 70q-28 0 -53.5 -3.5t-36.5 -7.5l-12 -4l-28 -75h-57l16 125q104 40 193 40q62 0 94.5 -18.5t40.5 -59.5q72 78 170 78q76 0 120.5 -35.5t44.5 -94.5zM434 293q110 0 176.5 27.5t66.5 79.5q0 65 -75 65
q-54 0 -101 -48.5t-67 -123.5zM334 227h-67q-149 0 -149 -97q0 -26 19 -43t46 -17q54 0 98.5 50t52.5 107z" />
    <glyph glyph-name="Oslashacute" unicode="&#x1fe;" horiz-adv-x="735" 
d="M412 746l-26 53l217 121l37 -79zM300 -10q-72 0 -125 29l-93 -124l-58 35l98 131q-58 66 -58 173q0 210 109.5 343t277.5 133q77 0 134 -31l79 106l57 -35l-83 -111q61 -63 61 -164q0 -222 -112 -353.5t-287 -131.5zM169 244q0 -55 19 -95l340 455q-35 21 -94 21
q-117 0 -191 -111.5t-74 -269.5zM594 462q0 54 -19 92l-342 -456q35 -23 89 -23q120 0 196 109t76 278z" />
    <glyph glyph-name="oslashacute" unicode="&#x1ff;" horiz-adv-x="580" 
d="M247 648l206 147l43 -75l-218 -125zM228 -10q-47 0 -87 19l-85 -114l-54 35l87 118q-44 50 -44 132q0 160 84 260t214 100q54 0 97 -20l78 105l54 -35l-80 -108q44 -50 44 -122q0 -169 -86.5 -269.5t-221.5 -100.5zM145 185q0 -32 7 -52l234 314q-25 13 -58 13
q-84 0 -133.5 -80.5t-49.5 -194.5zM436 345q0 29 -8 51l-233 -314q23 -12 53 -12q86 0 137 76.5t51 198.5z" />
    <glyph glyph-name="Scommaaccent" unicode="&#x218;" horiz-adv-x="578" 
d="M61 205l-28 -175q88 -40 187 -40q73 0 135 26.5t103.5 85t41.5 137.5q0 52 -29 88t-70.5 55t-83 35.5t-70.5 41.5t-29 61q0 44 37.5 74.5t99.5 30.5q21 0 45.5 -4.5t38.5 -8.5l14 -5l14 -107h56l32 170q-98 40 -184 40q-106 0 -183 -57.5t-77 -167.5q0 -41 15.5 -72
t40.5 -50t55 -34t60 -27t55 -25.5t40.5 -33.5t15.5 -47q0 -55 -49 -88t-109 -33q-26 0 -52.5 5.5t-39.5 10.5l-13 5l-3 109h-66zM75 -120q0 30 19.5 50t46.5 20q25 0 39.5 -15t14.5 -40q0 -33 -22.5 -68.5t-45 -57t-62.5 -54.5l-35 40q55 52 55 72q0 8 -5 24t-5 29z" />
    <glyph glyph-name="scommaaccent" unicode="&#x219;" horiz-adv-x="460" 
d="M45 160l-24 -145q70 -25 150 -25q102 0 163.5 46t61.5 124q0 39 -23 68t-56 47t-66.5 34t-56.5 37.5t-23 48.5q0 36 26 54t69 18q19 0 35.5 -2.5t22.5 -4.5l7 -2l6 -78h65l24 135q-75 25 -148 25q-88 0 -145 -40.5t-57 -119.5q0 -42 22.5 -72.5t55 -48.5t65 -33t55 -35
t22.5 -46q0 -40 -30 -61t-80 -21q-20 0 -39 3t-27 6l-9 3l-1 85h-65zM75 -120q0 30 19.5 50t46.5 20q25 0 39.5 -15t14.5 -40q0 -33 -22.5 -68.5t-45 -57t-62.5 -54.5l-35 40q55 52 55 72q0 8 -5 24t-5 29z" />
    <glyph glyph-name="Tcommaaccent" unicode="&#x21a;" horiz-adv-x="549" 
d="M584 520h-64l-10 100h-129l-86 -540l96 -20l-10 -60h-299l10 60l103 20l86 540h-130l-41 -100h-65l30 180h538zM157 -120q0 30 19.5 50t46.5 20q25 0 39.5 -15t14.5 -40q0 -33 -22.5 -68.5t-45 -57t-62.5 -54.5l-35 40q55 52 55 72q0 8 -5 24t-5 29z" />
    <glyph glyph-name="tcommaaccent" unicode="&#x21b;" horiz-adv-x="366" 
d="M309 90l16 -54q-75 -46 -131 -46q-101 0 -101 119q0 29 6 64l44 277h-99l11 65l100 10l20 126l99 20l-24 -146h138l-12 -75h-138l-43 -267q-6 -39 -6 -63q0 -27 9 -38.5t30 -11.5q12 0 32.5 5t34.5 10zM75 -120q0 30 19.5 50t46.5 20q25 0 39.5 -15t14.5 -40
q0 -33 -22.5 -68.5t-45 -57t-62.5 -54.5l-35 40q55 52 55 72q0 8 -5 24t-5 29z" />
    <glyph glyph-name="dotlessj" unicode="&#x237;" horiz-adv-x="264" 
d="M126 450l-81 -485q-12 -70 -35.5 -100t-72.5 -30l-60 5l-20 -65q40 -15 80 -15q86 0 137 51t66 144l96 575l-186 -5l-10 -55z" />
    <glyph glyph-name="circumflex" unicode="&#x2c6;" horiz-adv-x="343" 
d="M33 617l-33 45l162 130l59 5l122 -135l-46 -45l-115 98z" />
    <glyph glyph-name="caron" unicode="&#x2c7;" horiz-adv-x="339" 
d="M413 735l-159 -130l-58 -5l-122 135l48 45l111 -105l153 105z" />
    <glyph glyph-name="firsttonechinese" unicode="&#x2c9;" horiz-adv-x="275" 
d="M275 735l-11 -75h-264l11 75h264z" />
    <glyph glyph-name="breve" unicode="&#x2d8;" horiz-adv-x="440" 
d="M309 760l59 5q-10 -66 -57.5 -108t-107.5 -42q-48 0 -79.5 34.5t-31.5 84.5l2 26l59 5q0 -32 18 -53.5t49 -21.5q32 0 54.5 17.5t28.5 34.5z" />
    <glyph glyph-name="dotaccent" unicode="&#x2d9;" horiz-adv-x="108" 
d="M68 686q0 28 18 51t47 23q21 0 33 -12t12 -34q0 -33 -19.5 -53.5t-45.5 -20.5q-45 0 -45 46z" />
    <glyph glyph-name="ring" unicode="&#x2da;" horiz-adv-x="390" 
d="M80 686q0 53 40 93.5t92 40.5q40 0 68.5 -24.5t28.5 -66.5q0 -53 -40 -93.5t-92 -40.5q-42 0 -69.5 25t-27.5 66zM205 770q-29 0 -47.5 -23.5t-18.5 -54.5q0 -47 46 -47q29 0 47 23.5t18 54.5q0 47 -45 47z" />
    <glyph glyph-name="ogonek" unicode="&#x2db;" horiz-adv-x="310" 
d="M187 0h78q-5 -3 -13 -7.5t-28 -19.5t-35.5 -29t-28.5 -33t-13 -35q0 -17 10.5 -26.5t27.5 -9.5l46 7l2 -47q-42 -20 -81 -20q-37 0 -61 20t-24 55q0 40 30 76t60 53z" />
    <glyph glyph-name="tilde" unicode="&#x2dc;" horiz-adv-x="381" 
d="M28 635l-28 35q2 4 6 10t17 22.5t27 29t34 22.5t39 10q35 0 82.5 -23t75.5 -23q17 0 35 10.5t27 21.5l9 10l29 -35q-2 -4 -5.5 -10t-16 -21.5t-25.5 -27.5t-32.5 -21.5t-38.5 -9.5q-35 0 -83 22t-76 22q-18 0 -37 -11t-29 -22z" />
    <glyph glyph-name="hungarumlaut" unicode="&#x2dd;" horiz-adv-x="580" 
d="M82 685l186 165l48 -65l-198 -150zM277 685l185 165l49 -65l-198 -150z" />
    <glyph glyph-name="commaaccent" unicode="&#x326;" horiz-adv-x="0" 
d="M75 -120q0 30 19.5 50t46.5 20q25 0 39.5 -15t14.5 -40q0 -33 -22.5 -68.5t-45 -57t-62.5 -54.5l-35 40q55 52 55 72q0 8 -5 24t-5 29z" />
    <glyph glyph-name="Gamma" unicode="&#x393;" horiz-adv-x="519" 
d="M196 80l100 -20l-9 -60h-287l9 60l86 20l84 540l-80 20l9 55l189 5h284l-27 -180h-64l-9 100h-201z" />
    <glyph glyph-name="Delta" unicode="&#x394;" horiz-adv-x="640" 
d="M439 720l156 -650l-12 -70h-613l12 71l361 649h96zM491 80l-122 527l-290 -527h412z" />
    <glyph glyph-name="Pi" unicode="&#x3a0;" horiz-adv-x="711" 
d="M644 620l-75 -486q-5 -31 4.5 -46t24.5 -15q12 0 27.5 3t24.5 6l9 3l15 -55q-59 -40 -122 -40q-106 0 -84 155l75 475h-249l-86 -540l83 -20l-10 -60h-271l10 60l89 20l84 540l-82 20l8 55l187 5h434l-9 -60z" />
    <glyph glyph-name="Omega" unicode="&#x3a9;" horiz-adv-x="775" 
d="M30 0l13 80h130q-3 3 -9 9.5t-20.5 28t-26 45t-20.5 60.5t-9 75q0 106 41.5 198t127.5 153t200 61q119 0 183.5 -67.5t64.5 -188.5q0 -66 -18.5 -129t-45.5 -105t-53.5 -75t-45.5 -49l-18 -15l133 4l-14 -85h-250l11 65q8 4 21 12.5t47 40.5t60 72t47 109.5t21 149.5
t-42.5 128t-116.5 48q-65 0 -114.5 -28.5t-78.5 -77.5t-43.5 -109t-14.5 -128q0 -46 10.5 -85.5t25 -63t30 -39.5t25 -22.5t10.5 -6.5l-11 -65h-250z" />
    <glyph glyph-name="mu" unicode="&#x3bc;" horiz-adv-x="634" 
d="M110 -230l40 230q20 -10 41 -10q42 0 82.5 20.5t66.5 47t48.5 60t31 50t12.5 26.5l-41 -194l181 5l10 55l-86 20l74 450h-95l-33 -180q-3 -11 -9.5 -29.5t-27.5 -66t-44 -84t-58.5 -66t-71.5 -29.5q-53 0 -53 67q0 18 64 388l-185 -5l-10 -55l87 -20l-116 -680h92z" />
    <glyph glyph-name="pi" unicode="&#x3c0;" horiz-adv-x="662" 
d="M228 450l-72 -450h-95l72 450l-80 20l8 55l181 5h375l-10 -60l-84 -15l-50 -326q-2 -14 -2 -19q0 -42 41 -42q12 0 27 3t24 6l9 3l17 -50q-56 -40 -124 -40q-39 0 -65 24.5t-26 78.5q0 21 4 42l50 315h-200z" />
    <glyph glyph-name="Iegravecy" unicode="&#x400;" 
d="M244 842l37 79l218 -122l-27 -55zM110 640l9 55l186 5h301l-27 -170h-56l-10 90h-221l-35 -215h228l-12 -80h-228l-39 -245h227l37 102h66l-31 -182h-497l10 60l88 20l86 540z" />
    <glyph glyph-name="Iocy" unicode="&#x401;" 
d="M240 810q0 31 18 53t46 22q46 0 46 -46q0 -30 -19 -52t-46 -22q-21 0 -33 12t-12 33zM441 810q0 31 18 53t46 22q46 0 46 -46q0 -30 -19 -52t-46 -22q-21 0 -33 12t-12 33zM110 640l9 55l186 5h301l-27 -170h-56l-10 90h-221l-35 -215h228l-12 -80h-228l-39 -245h227
l37 102h66l-31 -182h-497l10 60l88 20l86 540z" />
    <glyph glyph-name="Djecy" unicode="&#x402;" horiz-adv-x="708" 
d="M532 435q69 0 103.5 -40.5t34.5 -110.5q0 -129 -48 -209t-153 -80q-20 0 -42.5 3.5t-34.5 7.5l-13 4l21 70q38 -5 60 -5q32 0 54 15t32 43.5t14 58t4 68.5q0 85 -82 85q-30 0 -67.5 -16.5t-56.5 -29.5t-31 -23l-44 -276h-201l11 60l102 20l86 540h-131l-40 -100h-65
l30 180h545l-29 -180h-64l-8 100h-138l-40 -252q34 20 51.5 29.5t60 23.5t79.5 14z" />
    <glyph glyph-name="Gjecy" unicode="&#x403;" horiz-adv-x="519" 
d="M317 746l-26 53l217 121l37 -79zM196 80l100 -20l-9 -60h-287l9 60l86 20l84 540l-80 20l9 55l189 5h284l-27 -180h-64l-9 100h-201z" />
    <glyph glyph-name="Ecy" unicode="&#x404;" horiz-adv-x="639" 
d="M418 625q-83 0 -141 -58t-87 -168h294l-14 -80h-295q-4 -38 -4 -54q0 -89 44 -137t120 -48q100 0 206 68l32 -60q-39 -34 -109 -66t-146 -32q-121 0 -189.5 66t-68.5 185q0 209 109 339t273 130q44 0 95.5 -12.5t80.5 -25.5l29 -12l-30 -160h-73l-6 105q-63 20 -120 20z
" />
    <glyph glyph-name="Dzecy" unicode="&#x405;" horiz-adv-x="578" 
d="M61 205l-28 -175q88 -40 187 -40q73 0 135 26.5t103.5 85t41.5 137.5q0 52 -29 88t-70.5 55t-83 35.5t-70.5 41.5t-29 61q0 44 37.5 74.5t99.5 30.5q21 0 45.5 -4.5t38.5 -8.5l14 -5l14 -107h56l32 170q-98 40 -184 40q-106 0 -183 -57.5t-77 -167.5q0 -41 15.5 -72
t40.5 -50t55 -34t60 -27t55 -25.5t40.5 -33.5t15.5 -47q0 -55 -49 -88t-109 -33q-26 0 -52.5 5.5t-39.5 10.5l-13 5l-3 109h-66z" />
    <glyph glyph-name="Icy" unicode="&#x406;" horiz-adv-x="363" 
d="M105 640l9 55l273 5l-10 -60l-88 -20l-87 -540l84 -20l-10 -60h-273l10 60l90 20l86 540z" />
    <glyph glyph-name="Yicy" unicode="&#x407;" horiz-adv-x="363" 
d="M125 810q0 31 18 53t46 22q46 0 46 -46q0 -30 -19 -52t-46 -22q-21 0 -33 12t-12 33zM326 810q0 31 18 53t46 22q46 0 46 -46q0 -30 -19 -52t-46 -22q-21 0 -33 12t-12 33zM105 640l9 55l273 5l-10 -60l-88 -20l-87 -540l84 -20l-10 -60h-273l10 60l90 20l86 540z" />
    <glyph glyph-name="Jecy" unicode="&#x408;" horiz-adv-x="347" 
d="M99 640l9 55l273 5l-10 -60l-87 -20l-92 -575q-14 -91 -71 -143t-144 -52l-62 5l21 75h49q88 0 104 95l95 595z" />
    <glyph glyph-name="Ljecy" unicode="&#x409;" horiz-adv-x="918" 
d="M579 410h89q224 0 224 -154q0 -125 -77.5 -190.5t-202.5 -65.5h-287l9 60l95 20l86 540h-191q-46 -236 -77 -354q-16 -60 -26.5 -94.5t-28 -73t-37 -58t-49 -32.5t-67.5 -13q-34 0 -75 13l33 107q20 -5 42 -5q45 0 75.5 39.5t53.5 125.5q41 156 78 345l-120 20l9 60h588
l-10 -60l-101 -20zM525 80h104q70 0 114 41t44 113q0 101 -138 101h-84z" />
    <glyph glyph-name="Njecy" unicode="&#x40a;" horiz-adv-x="999" 
d="M669 405h89q224 0 225 -149q1 -125 -77 -190.5t-203 -65.5h-278l9 60l86 20l39 245h-326l-39 -245l87 -20l-10 -60h-273l10 60l86 19l87 541l-82 20l9 55l275 5l-10 -60l-92 -20l-35 -215h326l34 215l-91 20l9 55l290 5l-10 -60l-101 -20zM616 80h104q70 0 114.5 41
t43.5 113q-1 96 -139 96h-84z" />
    <glyph glyph-name="Tshecy" unicode="&#x40b;" horiz-adv-x="755" 
d="M710 55l-9 -55h-249l9 55l77 24l27 166q17 105 -73 105q-42 0 -83.5 -19t-58.5 -33t-28 -26l-31 -192l75 -20l-9 -60h-277l10 60l101 20l86 540h-127l-41 -100h-64l29 180h551l-28 -180h-64l-8 100h-148l-42 -261q29 22 47.5 34.5t63.5 29.5t91 17q82 0 115.5 -47.5
t18.5 -132.5l-31 -180z" />
    <glyph glyph-name="Kjecy" unicode="&#x40c;" horiz-adv-x="649" 
d="M378 746l-26 53l217 121l37 -79zM471 79l-130 241h-102l-38 -240l85 -20l-10 -60h-273l10 60l88 20l87 540l-84 20l9 55l274 5l-10 -60l-89 -20l-36 -220h92l216 295l148 5l-10 -60l-85 -20l-189 -253l157 -287l71 -20l-10 -60h-260l10 60z" />
    <glyph glyph-name="Iigravecy" unicode="&#x40d;" horiz-adv-x="791" 
d="M560 744l-228 98l37 79l218 -122zM819 700l-10 -60l-87 -20l-87 -540l84 -20l-10 -60h-278l10 60l94 19l64 395l-399 -356l-6 -38l87 -20l-10 -60h-273l10 60l86 19l87 541l-82 20l9 55l275 5l-10 -60l-92 -20l-64 -396l399 358l6 38l-91 20l9 55z" />
    <glyph glyph-name="Ushortcy" unicode="&#x40e;" horiz-adv-x="635" 
d="M374 760q-61 0 -99 32t-46 95l96 23q15 -82 80 -82q62 0 108 82l39 -26q-28 -54 -74.5 -89t-103.5 -35zM696 700l-9 -60l-67 -20l-225 -410q-64 -115 -122.5 -167.5t-126.5 -52.5q-47 0 -107 26l30 74q49 -13 79 -13q70 0 117 65l-155 478l-65 20l8 55l259 5l-9 -60
l-88 -20l100 -322l10 -50l202 372l-87 20l10 55z" />
    <glyph glyph-name="Dzhecy" unicode="&#x40f;" horiz-adv-x="732" 
d="M761 700l-11 -60l-86 -20l-87 -540l80 -20l-10 -60h-277l-49 -175h-59l5 175h-269l10 60l86 20l87 540l-80 20l11 55l278 5l-11 -60l-96 -20l-86 -540h278l86 540l-89 20l10 55z" />
    <glyph glyph-name="Acy" unicode="&#x410;" horiz-adv-x="712" 
d="M210 190l-55 -111l84 -19l-10 -60h-265l9 60l85 20l320 615l99 5l120 -623l68 -17l-10 -60h-265l9 60l86 20l-20 110h-255zM451 270l-51 301l-151 -301h202z" />
    <glyph glyph-name="Becy" unicode="&#x411;" horiz-adv-x="605" 
d="M244 390h90q111 0 169.5 -34.5t58.5 -115.5q0 -120 -75.5 -179t-199.5 -61h-287l9 60l86 20l84 540l-80 20l9 55l189 5h289l-27 -180h-64l-9 100h-206zM196 80h103q70 0 113.5 34.5t43.5 103.5q0 53 -36.5 74t-103.5 21h-84z" />
    <glyph glyph-name="Vecy" unicode="&#x412;" horiz-adv-x="629" 
d="M101 640l9 55l185 5h104q84 0 139.5 -39t55.5 -114q0 -77 -47 -123.5t-109 -60.5q132 -30 132 -135q0 -108 -75.5 -168t-194.5 -60h-302l10 60l89 20l85 540zM247 400h73q27 0 53.5 6.5t54 20.5t44 42.5t16.5 67.5t-27.5 61t-71.5 22h-107zM197 80h93q82 0 127.5 40
t45.5 98q0 59 -37.5 83t-115.5 24h-75z" />
    <glyph glyph-name="Gecy" unicode="&#x413;" horiz-adv-x="519" 
d="M196 80l100 -20l-9 -60h-287l9 60l86 20l84 540l-80 20l9 55l189 5h284l-27 -180h-64l-9 100h-201z" />
    <glyph glyph-name="Decy" unicode="&#x414;" horiz-adv-x="695" 
d="M615 620l-84 -540l110 -18l-36 -237h-59l-17 175h-461l-75 -175h-58l42 240q45 12 72 26.5t46.5 44.5t30 59t28.5 92q35 122 76 333l-100 20l11 60h567l-8 -60zM512 620h-195q-27 -138 -77 -335q-42 -156 -94 -205h282z" />
    <glyph glyph-name="Iecy" unicode="&#x415;" 
d="M110 640l9 55l186 5h301l-27 -170h-56l-10 90h-221l-35 -215h228l-12 -80h-228l-39 -245h227l37 102h66l-31 -182h-497l10 60l88 20l86 540z" />
    <glyph glyph-name="Zhecy" unicode="&#x416;" horiz-adv-x="941" 
d="M897 620l-183 -253l152 -287l77 -20l-9 -60h-274l9 60l88 20l-127 240h-101l-38 -240l77 -20l-9 -60h-245l9 60l73 20l49 309l-11 -69h-99l-194 -240l82 -20l-9 -60h-285l9 60l88 20l236 287l-100 253l-96 20l9 60l161 -5l114 -295h97l35 220l-82 20l9 55l275 5l-9 -60
l-98 -20l-35 -220h96l211 295l159 5l-9 -60z" />
    <glyph glyph-name="Zecy" unicode="&#x417;" horiz-adv-x="568" 
d="M89 510l21 164q112 36 222 36q101 0 157.5 -37.5t56.5 -108.5q0 -155 -169 -196q68 -13 100.5 -49.5t32.5 -87.5q0 -105 -85 -173t-220 -68q-102 0 -197 46l36 81q119 -42 177 -42q77 0 128.5 40t51.5 104q0 106 -149 106h-94l13 80h88q93 0 136.5 40t43.5 97
q0 83 -126 83q-32 0 -62 -4t-44 -8l-14 -4l-24 -99h-80z" />
    <glyph glyph-name="Iicy" unicode="&#x418;" horiz-adv-x="791" 
d="M819 700l-10 -60l-87 -20l-87 -540l84 -20l-10 -60h-278l10 60l94 19l64 395l-399 -356l-6 -38l87 -20l-10 -60h-273l10 60l86 19l87 541l-82 20l9 55l275 5l-10 -60l-92 -20l-64 -396l399 358l6 38l-91 20l9 55z" />
    <glyph glyph-name="Iishortcy" unicode="&#x419;" horiz-adv-x="791" 
d="M487 765q-61 0 -99 32t-46 95l96 23q15 -82 80 -82q62 0 108 82l39 -26q-28 -54 -74.5 -89t-103.5 -35zM819 700l-10 -60l-87 -20l-87 -540l84 -20l-10 -60h-278l10 60l94 19l64 395l-399 -356l-6 -38l87 -20l-10 -60h-273l10 60l86 19l87 541l-82 20l9 55l275 5l-10 -60
l-92 -20l-64 -396l399 358l6 38l-91 20l9 55z" />
    <glyph glyph-name="Kacy" unicode="&#x41a;" horiz-adv-x="649" 
d="M471 79l-130 241h-102l-38 -240l85 -20l-10 -60h-273l10 60l88 20l87 540l-84 20l9 55l274 5l-10 -60l-89 -20l-36 -220h92l216 295l148 5l-10 -60l-85 -20l-189 -253l157 -287l71 -20l-10 -60h-260l10 60z" />
    <glyph glyph-name="Elcy" unicode="&#x41b;" horiz-adv-x="678" 
d="M697 640l-85 -20l-87 -540l80 -20l-11 -60h-275l9 60l95 20l87 540h-196q-46 -236 -77 -354q-16 -60 -26.5 -94.5t-28 -73t-37 -58t-49 -32.5t-67.5 -13q-34 0 -75 13l33 107q20 -5 42 -5q45 0 75.5 39.5t53.5 125.5q41 156 78 345l-120 20l9 60h581z" />
    <glyph glyph-name="Emcy" unicode="&#x41c;" horiz-adv-x="870" 
d="M718 80l85 540l85 20l10 60l-209 -5l-244 -396l-119 401l-217 -5l-9 -55l83 -20l-87 -540l-88 -20l-10 -60h269l10 60l-88 20l77 480l113 -385l82 5l234 376l-76 -476l-84 -20l-10 -60h263l10 60z" />
    <glyph glyph-name="Ency" unicode="&#x41d;" horiz-adv-x="775" 
d="M519 79l39 241h-326l-38 -240l87 -20l-10 -60h-273l10 60l86 19l87 541l-82 20l9 55l275 5l-10 -60l-92 -20l-36 -220h326l35 220l-91 20l9 55l279 5l-10 -60l-87 -20l-87 -540l84 -20l-10 -60h-278l10 60z" />
    <glyph glyph-name="Ocy" unicode="&#x41e;" horiz-adv-x="735" 
d="M299 -10q175 0 289.5 130t114.5 345q0 110 -67 177.5t-186 67.5q-169 0 -280.5 -133t-111.5 -343q0 -113 64.5 -178.5t176.5 -65.5zM593 452q0 -162 -76.5 -269.5t-195.5 -107.5q-72 0 -112.5 43t-40.5 126q0 158 74 269.5t191 111.5q75 0 117.5 -42.5t42.5 -130.5z" />
    <glyph glyph-name="Pecy" unicode="&#x41f;" horiz-adv-x="741" 
d="M-2 0l10 60l86 20l87 540l-80 20l9 55l185 5h479l-8 -60l-85 -20l-87 -540l80 -20l-11 -60h-278l11 60l95 20l87 540h-294l-87 -540l89 -20l-10 -60h-278z" />
    <glyph glyph-name="Ercy" unicode="&#x420;" horiz-adv-x="571" 
d="M294 700h105q80 0 138 -37.5t58 -122.5q0 -79 -27.5 -136t-74.5 -87t-97 -43.5t-106 -13.5h-66l-29 -181l86 -19l-10 -60h-273l10 60l87 20l86 540l-81 20l9 55zM236 340h67q100 0 143.5 50.5t43.5 128.5q0 30 -11 51t-29 31t-35 14.5t-34 4.5h-100z" />
    <glyph glyph-name="Escy" unicode="&#x421;" horiz-adv-x="638" 
d="M636 490l27 170q-11 6 -31 14t-75.5 22t-104.5 14q-170 0 -281 -131t-111 -335q0 -117 66 -185.5t182 -68.5q145 0 278 107l-36 59q-103 -76 -222 -76q-71 0 -114.5 50t-43.5 133q0 94 31.5 176t92.5 134t138 52q73 0 134 -25l12 -110h58z" />
    <glyph glyph-name="Tecy" unicode="&#x422;" horiz-adv-x="549" 
d="M584 520h-64l-10 100h-129l-86 -540l96 -20l-10 -60h-299l10 60l103 20l86 540h-130l-41 -100h-65l30 180h538z" />
    <glyph glyph-name="Ucy" unicode="&#x423;" horiz-adv-x="635" 
d="M696 700l-9 -60l-67 -20l-225 -410q-64 -115 -122.5 -167.5t-126.5 -52.5q-47 0 -107 26l30 74q49 -13 79 -13q70 0 117 65l-155 478l-65 20l8 55l259 5l-9 -60l-88 -20l100 -322l10 -50l202 372l-87 20l10 55z" />
    <glyph glyph-name="Efcy" unicode="&#x424;" horiz-adv-x="860" 
d="M823 399q0 -133 -102 -214.5t-277 -92.5l-5 -33l80 -19l-8 -60h-254l9 60l86 19l5 32q-150 5 -223 56.5t-73 163.5q0 135 99 218t279 94l5 35l-80 19l7 55l255 5l-9 -60l-86 -19l-5 -34q297 -9 297 -225zM714 376q0 89 -47 128.5t-153 44.5l-59 -383q76 4 128.5 22.5
t80 48.5t39 63.5t11.5 75.5zM169 333q0 -87 47.5 -124.5t151.5 -42.5l59 383q-130 -8 -194 -59.5t-64 -156.5z" />
    <glyph glyph-name="Hacy" unicode="&#x425;" horiz-adv-x="626" 
d="M521 80l-138 282l206 256l107 22l10 60l-265 -5l-10 -55l53 -14l-149 -189l-87 187l63 16l10 60l-267 -5l-10 -55l84 -19l133 -270l-213 -272l-93 -19l-10 -60h265l10 60l-63 18l154 197l94 -202l-64 -13l-10 -60h267l10 60z" />
    <glyph glyph-name="Tsecy" unicode="&#x426;" horiz-adv-x="750" 
d="M601 -175l-16 175h-583l6 60l86 20l87 540l-80 20l9 55l278 5l-9 -60l-96 -20l-86 -540h288l86 540l-89 20l8 55l278 5l-8 -60l-86 -20l-87 -540l110 -18l-37 -237h-59z" />
    <glyph glyph-name="Checy" unicode="&#x427;" horiz-adv-x="667" 
d="M696 700l-10 -60l-88 -20l-87 -540l84 -20l-10 -60h-295l10 60l112 20l32 199q-90 -29 -172 -29q-196 0 -161 225l23 145l-70 20l9 55l253 5l-8 -60l-81 -19l-22 -136q-13 -79 10 -112t80 -33q81 0 152 25l41 255l-78 20l9 55z" />
    <glyph glyph-name="Shacy" unicode="&#x428;" horiz-adv-x="1015" 
d="M-2 0l11 60l86 20l87 540l-80 20l10 55l259 5l-11 -60l-76 -20l-87 -540h229l87 540l-70 20l11 55l249 5l-11 -60l-76 -20l-87 -540h229l87 540l-70 20l10 55l259 5l-11 -60l-86 -20l-87 -540l80 -20l-10 -60h-932z" />
    <glyph glyph-name="Shchacy" unicode="&#x429;" horiz-adv-x="1035" 
d="M887 -175l-23 175h-866l10 60l86 20l87 540l-80 20l10 55l259 5l-11 -60l-76 -20l-87 -540h229l87 540l-70 20l11 55l249 5l-11 -60l-76 -20l-87 -540h229l87 540l-70 20l10 55l259 5l-11 -60l-86 -20l-87 -540l119 -20l-33 -235h-58z" />
    <glyph glyph-name="Hardsigncy" unicode="&#x42a;" horiz-adv-x="675" 
d="M328 410h91q225 0 225 -155q0 -124 -78.5 -189.5t-202.5 -65.5h-294l10 60l95 20l87 540h-110l-42 -100h-64l30 180h398l-11 -60l-100 -20zM275 80h104q71 0 115 41t44 114q0 100 -137 100h-85z" />
    <glyph glyph-name="Yerucy" unicode="&#x42b;" horiz-adv-x="895" 
d="M244 410h89q224 0 224 -154q0 -125 -77.5 -190.5t-202.5 -65.5h-278l9 60l86 20l86 540l-80 20l10 60h278l-10 -60l-101 -20zM642 640l9 55l273 5l-10 -60l-88 -20l-87 -540l84 -20l-10 -60h-273l10 60l90 20l86 540zM190 80h104q70 0 114 41t44 113q0 101 -138 101h-84z
" />
    <glyph glyph-name="Softsigncy" unicode="&#x42c;" horiz-adv-x="573" 
d="M244 410h89q224 0 224 -154q0 -125 -77.5 -190.5t-202.5 -65.5h-278l9 60l86 20l86 540l-80 20l10 60h278l-10 -60l-101 -20zM190 80h104q70 0 114 41t44 113q0 101 -138 101h-84z" />
    <glyph glyph-name="Ereversedcy" unicode="&#x42d;" horiz-adv-x="639" 
d="M354 710q124 0 188 -64t64 -190q0 -206 -111.5 -336t-269.5 -130q-26 0 -50.5 4t-44.5 12t-36 15.5t-31.5 19.5t-23 18.5t-19.5 17.5l-11 11l54 59q1 -1 10.5 -8.5t14 -10.5t16 -10.5t20 -11.5t23 -10t28 -8.5t31.5 -5t37 -2.5q92 0 154 67.5t85 171.5h-287l14 80h285
q1 11 1 32q0 96 -44.5 145.5t-120.5 49.5q-60 0 -122 -20l-36 -106h-74l21 159l33 12q34 12 93 25.5t109 13.5z" />
    <glyph glyph-name="Iucy" unicode="&#x42e;" horiz-adv-x="1028" 
d="M738 710q119 0 186 -67.5t67 -177.5q0 -215 -114.5 -345t-289.5 -130q-112 0 -176.5 65.5t-64.5 178.5q0 39 5 86h-119l-38 -240l87 -20l-10 -60h-273l10 60l86 19l87 541l-82 20l9 55l275 5l-10 -60l-92 -20l-36 -220h123q39 142 138.5 226t231.5 84zM609 75
q119 0 195.5 107.5t76.5 269.5q0 88 -42.5 130.5t-117.5 42.5q-117 0 -191 -111.5t-74 -269.5q0 -83 40.5 -126t112.5 -43z" />
    <glyph glyph-name="Iacy" unicode="&#x42f;" horiz-adv-x="631" 
d="M549 0h-271l9 60l88 20l33 210h-55q-35 0 -65 -24.5t-76 -95.5l-110 -170h-149l9 60l80 16l99 139q52 72 98 92q-129 37 -129 162q0 114 71 172.5t187 58.5h291l-10 -60l-87 -20l-86 -540l82 -20zM460 620h-104q-63 0 -103 -38.5t-40 -109.5q0 -107 152 -107h55z" />
    <glyph glyph-name="acy" unicode="&#x430;" horiz-adv-x="593" 
d="M532 10l-186 -10l40 184q-7 -14 -13.5 -26t-30 -46.5t-47 -58t-60 -43.5t-73.5 -20q-56 0 -93.5 50t-37.5 125q0 174 88.5 274.5t209.5 100.5q29 0 57 -7.5t42 -14.5l13 -8l30 20h55l-72 -450l87 -15zM399 345l20 105q-38 15 -90 15q-80 0 -139 -72.5t-59 -212.5
q0 -51 17 -78t44 -27q34 0 67.5 28t57.5 67.5t43.5 79t29.5 67.5z" />
    <glyph glyph-name="becy" unicode="&#x431;" horiz-adv-x="585" 
d="M581 779l21 -78q-16 -4 -62.5 -15.5t-85.5 -22t-80 -24.5q-65 -22 -115.5 -74t-78.5 -128q77 88 182 88q90 0 139 -52.5t49 -142.5q0 -145 -85.5 -242.5t-207.5 -97.5q-90 0 -138.5 51t-48.5 145q0 59 8 118.5t28 125.5t50.5 120.5t81 100t113.5 67.5q29 10 70.5 21
t90.5 23t69 17zM274 70q78 0 125.5 66.5t47.5 184.5q0 124 -107 124q-176 0 -176 -240q0 -135 110 -135z" />
    <glyph glyph-name="vecy" unicode="&#x432;" horiz-adv-x="504" 
d="M364 276q79 -21 79 -100t-67.5 -132.5t-152.5 -53.5q-91 0 -140.5 56t-49.5 149q0 84 35 162t105.5 130.5t158.5 52.5q71 0 107.5 -32t36.5 -80q0 -88 -112 -152zM307 466q-62 0 -105 -50t-60 -137q117 1 178 37t61 84q0 31 -19 48.5t-55 17.5zM242 60q45 0 76.5 30.5
t31.5 75.5q0 38 -29 55q-24 7 -38.5 6t-62 -6t-86.5 -5q-1 -14 -1 -42q0 -53 28 -83.5t81 -30.5z" />
    <glyph glyph-name="gecy" unicode="&#x433;" horiz-adv-x="477" 
d="M370 117l29 -50q-104 -77 -213 -77q-68 0 -111.5 35t-43.5 90q0 41 31 77.5t75 63.5t88 51.5t75 53.5t31 58q0 23 -15 37t-41 14q-56 0 -156 -57l-29 50q119 77 214 77q61 0 99 -33t38 -86q0 -43 -31 -80t-75 -63t-88 -50.5t-75 -53t-31 -58.5q0 -25 17.5 -40t47.5 -15
q58 0 164 56z" />
    <glyph glyph-name="decy" unicode="&#x434;" horiz-adv-x="547" 
d="M204 693l-2 70q70 13 114 13q102 0 159.5 -74.5t57.5 -229.5q0 -65 -9.5 -129t-33.5 -129t-59.5 -113.5t-93 -79.5t-129.5 -31q-76 0 -123.5 52t-47.5 149q0 57 17.5 116.5t50 111t85.5 84t116 32.5q97 0 142 -82q1 127 -34 188t-117 61q-28 0 -93 -9zM234 70
q83 0 134.5 78t51.5 174q0 70 -29.5 103t-79.5 33q-59 0 -100 -45t-57 -103t-16 -118q0 -122 96 -122z" />
    <glyph glyph-name="iecy" unicode="&#x435;" horiz-adv-x="496" 
d="M484 410q0 -86 -97.5 -139.5t-253.5 -53.5q-3 -22 -3 -43q0 -104 110 -104q32 0 73 11t66 23l25 11l30 -51q-12 -8 -33 -20.5t-80 -33t-111 -20.5q-82 0 -131 49t-49 131q0 155 84.5 262.5t204.5 107.5q76 0 120.5 -35.5t44.5 -94.5zM142 287q107 0 177 32t70 81
q0 32 -19 49t-50 17q-53 0 -106.5 -47.5t-71.5 -131.5z" />
    <glyph glyph-name="zhecy" unicode="&#x436;" horiz-adv-x="864" 
d="M784 462q-38 0 -71.5 -44t-52.5 -112t-19 -140q1 -102 60 -102q36 0 96 36l26 -47q-90 -63 -157 -63q-52 0 -80.5 41t-28.5 123q0 54 7 96h-93l-41 -250h-88l41 250h-87q-23 -118 -85 -189t-148 -71q-45 0 -93 21l23 129h57l2 -67q12 -5 28 -5q58 0 100.5 92t42.5 204
q0 102 -59 102q-38 0 -96 -36l-26 47q88 63 156 63q52 0 81 -41t29 -123q0 -17 -2 -51h90l33 200l87 5l-33 -205h97q28 99 86.5 157t135.5 58q44 0 93 -21l-23 -129h-57l-2 67q-12 5 -29 5z" />
    <glyph glyph-name="zecy" unicode="&#x437;" horiz-adv-x="463" 
d="M125 315h69q132 0 132 94q0 28 -27 42t-67 14q-48 0 -91 -16l-16 -69h-57l8 121q97 38 182 38q77 0 122 -31.5t45 -81.5q0 -57 -34 -94.5t-97 -51.5q52 -10 80 -37t28 -65q0 -62 -37.5 -105t-91.5 -61t-118 -18q-100 0 -160 40l34 68q59 -32 133 -32q60 0 99 25t39 73
q0 77 -120 77h-66z" />
    <glyph glyph-name="iicy" unicode="&#x438;" horiz-adv-x="636" 
d="M391 0l41 194q-4 -10 -12 -26.5t-31 -50t-48.5 -60t-66 -47t-82.5 -20.5q-111 0 -111 122q0 23 5 58l46 280l-85 20l9 55l183 5l-55 -345q-4 -32 -4 -44q0 -66 52 -66q37 0 73 28.5t60 69t43 80.5t28 69l9 28l30 180h95l-72 -450l86 -15l-9 -55z" />
    <glyph glyph-name="iishortcy" unicode="&#x439;" horiz-adv-x="636" 
d="M509 770l39 -26q-28 -54 -74.5 -89t-103.5 -35q-61 0 -99 32t-46 95l96 23q15 -82 80 -82q62 0 108 82zM391 0l41 194q-4 -10 -12 -26.5t-31 -50t-48.5 -60t-66 -47t-82.5 -20.5q-111 0 -111 122q0 23 5 58l46 280l-85 20l9 55l183 5l-55 -345q-4 -32 -4 -44
q0 -66 52 -66q37 0 73 28.5t60 69t43 80.5t28 69l9 28l30 180h95l-72 -450l86 -15l-9 -55z" />
    <glyph glyph-name="kacy" unicode="&#x43a;" horiz-adv-x="551" 
d="M295 329l98 130l-43 11l8 55l215 5l-10 -60l-75 -13l-128 -157l92 -220l81 -25l-10 -55h-138l-100 255h-85l-40 -255h-95l72 450l-85 20l9 55l183 5l-33 -201h84z" />
    <glyph glyph-name="elcy" unicode="&#x43b;" horiz-adv-x="553" 
d="M429 80l71 -25l-11 -55h-170l73 450h-134q-14 -68 -43 -192q-33 -136 -78.5 -202t-120.5 -66q-27 0 -63 8l24 93q13 -3 27 -3q49 0 81 40.5t57 136.5q24 96 42 185l-95 20l11 60h403z" />
    <glyph glyph-name="emcy" unicode="&#x43c;" horiz-adv-x="811" 
d="M748 55l-9 -55h-175l71 427l-255 -427l-50 -5l-94 397q-3 -16 -9 -47q-10 -54 -15.5 -80.5t-16.5 -71.5t-20 -68t-24.5 -53.5t-32.5 -45t-40.5 -25.5t-51.5 -11q-27 0 -63 8l24 93q14 -3 31 -3q59 0 90 76q21 51 56 235q6 31 10 51l-95 20l10 55l210 5l90 -381l216 376
l139 5l-75 -450z" />
    <glyph glyph-name="ency" unicode="&#x43d;" horiz-adv-x="629" 
d="M577 65l-9 -55l-180 -10l37 240h-229l-37 -240h-98l71 450l-80 20l9 55l182 5l-34 -215h229l31 210l100 5l-72 -450z" />
    <glyph glyph-name="ocy" unicode="&#x43e;" horiz-adv-x="550" 
d="M218 -10q131 0 214.5 96t83.5 257q0 88 -49 142.5t-139 54.5q-130 0 -212 -97.5t-82 -254.5q0 -90 49.5 -144t134.5 -54zM417 345q0 -123 -48 -199t-133 -76q-47 0 -74.5 28.5t-27.5 86.5q0 116 46 195.5t130 79.5q107 0 107 -115z" />
    <glyph glyph-name="pecy" unicode="&#x43f;" horiz-adv-x="634" 
d="M394 0l56 345q4 30 4 44q0 66 -52 66q-36 0 -71.5 -28.5t-60 -68.5t-44 -80.5t-28.5 -69.5l-10 -28l-29 -180h-95l72 450l-84 20l9 55l183 5l-45 -194q6 13 13 26.5t31 49t49.5 61t66 46.5t83.5 21q111 0 111 -123q0 -24 -5 -57l-46 -280l85 -15l-9 -55z" />
    <glyph glyph-name="ercy" unicode="&#x440;" horiz-adv-x="590" 
d="M237 530l-40 -184q5 13 17.5 36.5t40.5 63t72.5 67t94.5 27.5q63 0 97.5 -52t34.5 -128q0 -165 -89 -267.5t-213 -102.5q-54 0 -98 24l-26 -164l76 -25l-10 -55h-174l109 680l-82 20l9 55zM185 185l-20 -105q42 -15 92 -15q72 0 134.5 74t62.5 206q0 46 -16.5 78
t-50.5 32q-35 0 -68.5 -28t-56.5 -67.5t-41.5 -79t-26.5 -67.5z" />
    <glyph glyph-name="escy" unicode="&#x441;" horiz-adv-x="455" 
d="M446 365l22 135q-60 40 -140 40q-129 0 -212 -101t-83 -264q0 -87 48.5 -136t126.5 -49q44 0 94 18.5t78 37.5l28 19l-30 50q-80 -45 -150 -45q-95 0 -95 110q0 115 49 197.5t131 82.5q18 0 34.5 -2.5t23.5 -5.5l7 -2l3 -85h65z" />
    <glyph glyph-name="tecy" unicode="&#x442;" horiz-adv-x="942" 
d="M383 0l56 345q4 30 4 44q0 66 -52 66q-35 0 -69 -28.5t-57 -68.5t-41.5 -80.5t-27.5 -69.5l-8 -28l-29 -180h-95l72 450l-84 20l9 55l182 5l-43 -194q4 10 11 26t28 50t46 60t64 47t82 21q107 0 107 -122q0 -25 -5 -62q12 29 28 55.5t42.5 58.5t65 51t82.5 19
q110 0 110 -123q0 -24 -5 -57l-46 -280l85 -15l-9 -55l-184 -10l57 345q4 30 4 43q0 67 -52 67q-36 0 -70.5 -29t-58 -70.5t-41.5 -83t-27 -70.5l-9 -29l-27 -173h-95z" />
    <glyph glyph-name="ucy" unicode="&#x443;" horiz-adv-x="527" 
d="M505 454l-185 -421q-30 -67 -49.5 -106.5t-42 -75.5t-43 -53.5t-46 -27.5t-57.5 -10q-25 0 -53.5 4t-44.5 8l-15 4l21 64q40 -5 75 -5q51 0 79 27t61 99l-122 490l-69 19l12 55l151 5l78 -367l8 -68l154 357l-75 18l10 55l220 5l-11 -60z" />
    <glyph glyph-name="efcy" unicode="&#x444;" horiz-adv-x="684" 
d="M666 327q0 -136 -90 -223t-232 -102l-24 -154l82 -23l-9 -55h-260l9 55l88 23l24 153q-111 8 -173 62.5t-62 150.5q0 143 88.5 226.5t231.5 96.5l25 155l-82 18l8 60h176l-37 -231q112 -8 174.5 -63t62.5 -149zM559 318q0 128 -142 142l-60 -377q92 11 147 69t55 166z
M126 230q0 -131 141 -147l60 376q-201 -23 -201 -229z" />
    <glyph glyph-name="hacy" unicode="&#x445;" horiz-adv-x="545" 
d="M354 0l154 10l9 55l-87 15l-96 197l140 172l86 21l10 60l-142 -5l-142 -185l-85 190l-157 -5l-9 -55l85 -20l94 -188l-139 -179l-91 -28l-9 -55h141l145 198z" />
    <glyph glyph-name="tsecy" unicode="&#x446;" horiz-adv-x="673" 
d="M613 83l12 -18l-54 -225h-105l99 186q-59 -31 -91 -31q-56 0 -56 85q0 42 14 114q-41 -84 -102.5 -144t-137.5 -60q-111 0 -111 122q0 43 51 338l-85 20l9 55l183 5q-59 -356 -59 -389q0 -66 52 -66q37 0 73 28.5t60 69t43 80.5t28 69l9 28l30 180h95l-74 -461z" />
    <glyph glyph-name="checy" unicode="&#x447;" horiz-adv-x="549" 
d="M484 10l-180 -10l47 273q-89 -93 -191 -93q-138 0 -109 180l15 91l-63 19l8 55l166 5l-27 -160q-9 -53 4.5 -79t54.5 -26t87.5 31.5t64.5 60.5l30 168l92 5l-70 -450l79 -15z" />
    <glyph glyph-name="shacy" unicode="&#x448;" horiz-adv-x="925" 
d="M873 65l-9 -55l-184 -10l41 194q-4 -10 -12 -26.5t-30 -50t-45.5 -60t-59.5 -47t-73 -20.5q-55 0 -83 38t-28 104l1 19q-91 -161 -199 -161q-111 0 -111 122q0 43 51 338l-85 20l9 55l183 5q-59 -356 -59 -389q0 -66 52 -66q34 0 68 32t58.5 81.5t39 84.5t23.5 65l33 187
l94 5q-59 -356 -59 -389q0 -66 52 -66q32 0 63.5 28.5t53.5 69t40 80.5t27 69l9 28l30 180h95l-72 -450z" />
    <glyph glyph-name="shchacy" unicode="&#x449;" horiz-adv-x="959" 
d="M754 -160h105l54 224l-12 19l-117 -15l75 462h-95l-30 -180q-3 -11 -9 -29.5t-26 -66t-41.5 -84t-53 -66t-63.5 -29.5q-52 0 -52 66q0 33 59 389l-94 -5l-33 -187q-9 -30 -23.5 -65t-39 -84.5t-58.5 -81.5t-68 -32q-52 0 -52 66q0 33 59 389l-183 -5l-9 -55l85 -20
q-51 -295 -51 -338q0 -122 111 -122q108 0 199 161l-1 -19q0 -66 28 -104t83 -38q136 0 220 204q-15 -72 -15 -117q0 -81 54 -81q35 0 93 29z" />
    <glyph glyph-name="hardsigncy" unicode="&#x44a;" horiz-adv-x="529" 
d="M397 345q47 0 76 -27t29 -78q0 -108 -77.5 -179t-172.5 -71q-69 0 -107 39t-38 101q0 109 137 320h-112l-25 -85h-70l15 165h308l-15 -65q-72 -111 -113 -199q75 79 165 79zM267 65q55 0 95 42t40 107q0 22 -16 36.5t-39 14.5q-41 0 -82 -30t-48 -52q-10 -30 -10 -53
q0 -32 16.5 -48.5t43.5 -16.5z" />
    <glyph glyph-name="yerucy" unicode="&#x44b;" horiz-adv-x="756" 
d="M59 470l8 60h181l-34 -203l-17 -55q25 27 65.5 49t87.5 22q53 0 87 -35.5t34 -94.5q0 -102 -70 -162.5t-166 -60.5q-84 0 -120.5 50t-19.5 150l44 260zM695 10l9 55l-85 15l72 450h-95l-85 -530zM259 65q47 0 77.5 42t30.5 100q0 28 -14.5 44.5t-43.5 16.5
q-64 0 -119 -76q-11 -62 8 -94.5t61 -32.5z" />
    <glyph glyph-name="softsigncy" unicode="&#x44c;" horiz-adv-x="502" 
d="M59 470l8 60h181l-34 -203l-17 -55q25 27 65.5 49t87.5 22q53 0 87 -35.5t34 -94.5q0 -102 -70 -162.5t-166 -60.5q-84 0 -120.5 50t-19.5 150l44 260zM259 65q47 0 77.5 42t30.5 100q0 28 -14.5 44.5t-43.5 16.5q-64 0 -119 -76q-11 -62 8 -94.5t61 -32.5z" />
    <glyph glyph-name="ereversedcy" unicode="&#x44d;" horiz-adv-x="506" 
d="M267 540q101 0 153 -53.5t52 -151.5q0 -148 -84.5 -246.5t-217.5 -98.5q-44 0 -88 19t-66 38l-23 19l46 62q75 -58 149 -58q65 0 111 42t61 123h-213l15 75h205v5q0 71 -32 108t-90 37q-24 0 -46 -2.5t-31 -5.5l-10 -2l-26 -75h-64l15 125q87 40 184 40z" />
    <glyph glyph-name="iucy" unicode="&#x44e;" horiz-adv-x="810" 
d="M588 540q90 0 139 -54.5t49 -142.5q0 -161 -83.5 -257t-214.5 -96q-85 0 -134.5 54t-49.5 144q0 17 2 47h-98l-38 -235h-95l72 450l-85 20l10 55l183 5l-35 -220h99q29 107 103 168.5t176 61.5zM496 70q85 0 133 76t48 199q0 115 -107 115q-84 0 -130 -79.5t-46 -195.5
q0 -58 27.5 -86.5t74.5 -28.5z" />
    <glyph glyph-name="iacy" unicode="&#x44f;" horiz-adv-x="558" 
d="M511 65l-9 -55l-185 -10l34 207q-40 -10 -78 -10h-13q-74 -140 -162 -197h-135l9 55l73 24q49 33 77 61.5t56 74.5q-79 34 -79 119q0 88 69.5 146.5t179.5 58.5q72 0 152 -26l-74 -434zM362 277l29 177q-42 11 -86 6t-78 -37t-34 -80q0 -75 89 -75q42 0 80 9z" />
    <glyph glyph-name="iegravecy" unicode="&#x450;" horiz-adv-x="496" 
d="M225 803l206 -147l-31 -53l-218 125zM484 410q0 -86 -97.5 -139.5t-253.5 -53.5q-3 -22 -3 -43q0 -104 110 -104q32 0 73 11t66 23l25 11l30 -51q-12 -8 -33 -20.5t-80 -33t-111 -20.5q-82 0 -131 49t-49 131q0 155 84.5 262.5t204.5 107.5q76 0 120.5 -35.5t44.5 -94.5z
M142 287q107 0 177 32t70 81q0 32 -19 49t-50 17q-53 0 -106.5 -47.5t-71.5 -131.5z" />
    <glyph glyph-name="iocy" unicode="&#x451;" horiz-adv-x="496" 
d="M187 685q0 31 18 53t46 22q46 0 46 -46q0 -30 -19 -52t-46 -22q-21 0 -33 12t-12 33zM388 685q0 31 18 53t46 22q46 0 46 -46q0 -30 -19 -52t-46 -22q-21 0 -33 12t-12 33zM484 410q0 -86 -97.5 -139.5t-253.5 -53.5q-3 -22 -3 -43q0 -104 110 -104q32 0 73 11t66 23
l25 11l30 -51q-12 -8 -33 -20.5t-80 -33t-111 -20.5q-82 0 -131 49t-49 131q0 155 84.5 262.5t204.5 107.5q76 0 120.5 -35.5t44.5 -94.5zM142 287q107 0 177 32t70 81q0 32 -19 49t-50 17q-53 0 -106.5 -47.5t-71.5 -131.5z" />
    <glyph glyph-name="djecy" unicode="&#x452;" horiz-adv-x="600" 
d="M433 520q109 0 109 -121q0 -89 -34 -263q-19 -100 -42 -170t-43.5 -108t-48 -58t-49 -25t-53.5 -5q-18 0 -38 4t-31 8l-11 3l20 65q25 -5 60 -5q21 0 33 3.5t27 19t26.5 47.5t25.5 88t31 143q30 155 30 223q0 66 -52 66q-36 0 -71 -28.5t-59 -68.5t-42.5 -80.5
t-27.5 -69.5l-9 -28l-30 -160h-95l91 570h-85l9 60h85l10 60l-84 20l9 55l183 5l-25 -140h183l-9 -60h-184l-45 -254q3 9 11.5 26t30 50t47 60t65 47.5t82.5 20.5z" />
    <glyph glyph-name="gjecy" unicode="&#x453;" horiz-adv-x="477" 
d="M211 648l206 147l43 -75l-218 -125zM370 117l29 -50q-104 -77 -213 -77q-68 0 -111.5 35t-43.5 90q0 41 31 77.5t75 63.5t88 51.5t75 53.5t31 58q0 23 -15 37t-41 14q-56 0 -156 -57l-29 50q119 77 214 77q61 0 99 -33t38 -86q0 -43 -31 -80t-75 -63t-88 -50.5t-75 -53
t-31 -58.5q0 -25 17.5 -40t47.5 -15q58 0 164 56z" />
    <glyph glyph-name="ecy" unicode="&#x454;" horiz-adv-x="503" 
d="M322 460q-62 0 -108 -38t-64 -112h212l-12 -75h-210v-19q0 -72 31.5 -109t90.5 -37q41 0 81.5 15t60.5 30l19 15l24 -60q-4 -3 -11.5 -8.5t-30.5 -19.5t-46 -24.5t-56 -19t-63 -8.5q-102 0 -153.5 53.5t-51.5 152.5q0 147 85.5 245.5t218.5 98.5q39 0 79 -10t60 -20
l20 -10l-19 -125h-64l-7 75q-38 10 -86 10z" />
    <glyph glyph-name="dzecy" unicode="&#x455;" horiz-adv-x="460" 
d="M45 160l-24 -145q70 -25 150 -25q102 0 163.5 46t61.5 124q0 39 -23 68t-56 47t-66.5 34t-56.5 37.5t-23 48.5q0 36 26 54t69 18q19 0 35.5 -2.5t22.5 -4.5l7 -2l6 -78h65l24 135q-75 25 -148 25q-88 0 -145 -40.5t-57 -119.5q0 -42 22.5 -72.5t55 -48.5t65 -33t55 -35
t22.5 -46q0 -40 -30 -61t-80 -21q-20 0 -39 3t-27 6l-9 3l-1 85h-65z" />
    <glyph glyph-name="icy" unicode="&#x456;" horiz-adv-x="310" 
d="M205 625q33 0 51.5 26t18.5 64q0 23 -15 36.5t-40 13.5q-33 0 -51.5 -26t-18.5 -64q0 -23 15 -36.5t40 -13.5zM249 10l9 55l-85 15l72 450l-183 -5l-10 -55l85 -20l-72 -450z" />
    <glyph glyph-name="yicy" unicode="&#x457;" horiz-adv-x="313" 
d="M62 685q0 31 18 53t46 22q46 0 46 -46q0 -30 -19 -52t-46 -22q-21 0 -33 12t-12 33zM253 685q0 31 18 53t46 22q46 0 46 -46q0 -30 -19 -52t-46 -22q-21 0 -33 12t-12 33zM252 10l9 55l-85 15l72 450l-183 -5l-10 -55l85 -20l-72 -450z" />
    <glyph glyph-name="jecy" unicode="&#x458;" horiz-adv-x="295" 
d="M200 625q33 0 51.5 26t18.5 64q0 23 -15 36.5t-40 13.5q-33 0 -51.5 -26t-18.5 -64q0 -23 15 -36.5t40 -13.5zM132 450l-78 -485q-12 -70 -36 -100t-76 -30l-60 5l-20 -65q40 -15 80 -15q86 0 138 51.5t67 143.5l94 575l-185 -5l-10 -55z" />
    <glyph glyph-name="ljecy" unicode="&#x459;" horiz-adv-x="760" 
d="M594 343q53 0 87 -35.5t34 -94.5q0 -102 -70 -162.5t-166 -60.5q-171 0 -140 200l41 260h-122q-14 -68 -43 -192q-33 -136 -78.5 -202t-120.5 -66q-27 0 -63 8l24 93q13 -3 27 -3q49 0 81 40.5t57 136.5q24 96 42 185l-95 20l11 60h392l-34 -203l-17 -55q25 27 65.5 49
t87.5 22zM503 65q47 0 77.5 42t30.5 100q0 28 -14.5 44.5t-43.5 16.5q-64 0 -119 -76q-11 -62 8 -94.5t61 -32.5z" />
    <glyph glyph-name="njecy" unicode="&#x45a;" horiz-adv-x="802" 
d="M650 343q53 0 87 -35.5t34 -94.5q0 -102 -70 -162.5t-166 -60.5q-171 0 -140 200l8 50h-207l-37 -240h-98l71 450l-80 20l9 55l182 5l-34 -215h206l34 215h99l-34 -203l-17 -55q25 27 65.5 49t87.5 22zM559 65q47 0 77.5 42t30.5 100q0 28 -14.5 44.5t-43.5 16.5
q-64 0 -119 -76q-11 -62 8 -94.5t61 -32.5z" />
    <glyph glyph-name="tshecy" unicode="&#x45b;" horiz-adv-x="626" 
d="M579 65l-9 -55l-183 -10l54 325q4 20 4 44q0 66 -52 66q-36 0 -71 -28.5t-59 -68.5t-42.5 -80.5t-27.5 -69.5l-9 -28l-30 -160h-95l91 570h-85l9 60h85l10 60l-84 20l9 55l183 5l-25 -140h183l-9 -60h-184l-45 -254q3 9 11.5 26t30 50t47 60t65 47.5t82.5 20.5
q109 0 109 -121q0 -24 -5 -59l-42 -260z" />
    <glyph glyph-name="kjecy" unicode="&#x45c;" horiz-adv-x="551" 
d="M241 648l206 147l43 -75l-218 -125zM295 329l98 130l-43 11l8 55l215 5l-10 -60l-75 -13l-128 -157l92 -220l81 -25l-10 -55h-138l-100 255h-85l-40 -255h-95l72 450l-85 20l9 55l183 5l-33 -201h84z" />
    <glyph glyph-name="iigravecy" unicode="&#x45d;" horiz-adv-x="636" 
d="M243 803l206 -147l-31 -53l-218 125zM391 0l41 194q-4 -10 -12 -26.5t-31 -50t-48.5 -60t-66 -47t-82.5 -20.5q-111 0 -111 122q0 23 5 58l46 280l-85 20l9 55l183 5l-55 -345q-4 -32 -4 -44q0 -66 52 -66q37 0 73 28.5t60 69t43 80.5t28 69l9 28l30 180h95l-72 -450
l86 -15l-9 -55z" />
    <glyph glyph-name="ushortcy" unicode="&#x45e;" horiz-adv-x="527" 
d="M444 770l39 -26q-28 -54 -74.5 -89t-103.5 -35q-61 0 -99 32t-46 95l96 23q15 -82 80 -82q62 0 108 82zM505 454l-185 -421q-30 -67 -49.5 -106.5t-42 -75.5t-43 -53.5t-46 -27.5t-57.5 -10q-25 0 -53.5 4t-44.5 8l-15 4l21 64q40 -5 75 -5q51 0 79 27t61 99l-122 490
l-69 19l12 55l151 5l78 -367l8 -68l154 357l-75 18l10 55l220 5l-11 -60z" />
    <glyph glyph-name="dzhecy" unicode="&#x45f;" horiz-adv-x="636" 
d="M391 0l41 194q-4 -10 -12 -26.5t-31 -50t-48.5 -60t-66 -47t-82.5 -20.5q-111 0 -111 122q0 43 51 338l-85 20l9 55l183 5q-59 -356 -59 -389q0 -66 52 -66q37 0 73 28.5t60 69t43 80.5t28 69l9 28l30 180h95l-72 -450l86 -15l-9 -55zM261 -45h64l-39 -160h-99z" />
    <glyph glyph-name="Gheupturncy" unicode="&#x490;" horiz-adv-x="502" 
d="M563 620h-283l-84 -540l110 -20l-9 -60h-297l9 60l86 20l84 540l-80 20l9 55l189 5h175l72 175h59z" />
    <glyph glyph-name="gheupturncy" unicode="&#x491;" horiz-adv-x="450" 
d="M243 450l-60 -370l94 -25l-11 -55h-278l10 55l87 25l61 370l-80 20l9 55l181 5h141l43 135h68l-36 -215h-229z" />
    <glyph glyph-name="Ustraitstrokecy" unicode="&#x4b0;" horiz-adv-x="611" 
d="M670 700l-10 -60l-80 -20l-225 -355h137l-14 -75h-152l-17 -110l83 -20l-10 -60h-273l10 60l90 20l17 110h-133l14 75h129l-103 355l-84 20l9 55l155 5l100 -366l168 287l-90 19l10 55z" />
    <glyph glyph-name="ustraitstrokecy" unicode="&#x4b1;" horiz-adv-x="556" 
d="M588 530l-11 -60l-54 -10l-210 -390h104l-11 -70h-128l-25 -150l78 -25l-9 -55h-263l9 55l88 25l24 150h-127l11 70h104l-79 385l-57 15l10 55l129 5l79 -433l174 358l-65 15l10 55z" />
    <glyph glyph-name="Wgrave" unicode="&#x1e80;" horiz-adv-x="967" 
d="M374 842l37 79l218 -122l-27 -55zM44 640l9 55l177 5v-1l1 1l75 -515l222 510l63 5l80 -522l188 442l-86 20l10 55l268 5l-10 -60l-77 -19l-287 -621h-63l-87 485l-42 -102l-182 -383h-65l-110 620z" />
    <glyph glyph-name="wgrave" unicode="&#x1e81;" horiz-adv-x="776" 
d="M358 803l206 -147l-31 -53l-218 125zM553 0h-115l-46 340l-13 -50l-112 -290h-113l-72 455l-70 15l9 55l157 5l50 -435l163 430l71 5l51 -435l147 356l-85 19l9 55l229 5l-10 -60l-49 -12z" />
    <glyph glyph-name="Wacute" unicode="&#x1e82;" horiz-adv-x="967" 
d="M445 746l-26 53l217 121l37 -79zM44 640l9 55l177 5v-1l1 1l75 -515l222 510l63 5l80 -522l188 442l-86 20l10 55l268 5l-10 -60l-77 -19l-287 -621h-63l-87 485l-42 -102l-182 -383h-65l-110 620z" />
    <glyph glyph-name="wacute" unicode="&#x1e83;" horiz-adv-x="776" 
d="M342 648l206 147l43 -75l-218 -125zM553 0h-115l-46 340l-13 -50l-112 -290h-113l-72 455l-70 15l9 55l157 5l50 -435l163 430l71 5l51 -435l147 356l-85 19l9 55l229 5l-10 -60l-49 -12z" />
    <glyph glyph-name="Wdieresis" unicode="&#x1e84;" horiz-adv-x="967" 
d="M410 810q0 31 18 53t46 22q46 0 46 -46q0 -30 -19 -52t-46 -22q-21 0 -33 12t-12 33zM611 810q0 31 18 53t46 22q46 0 46 -46q0 -30 -19 -52t-46 -22q-21 0 -33 12t-12 33zM44 640l9 55l177 5v-1l1 1l75 -515l222 510l63 5l80 -522l188 442l-86 20l10 55l268 5l-10 -60
l-77 -19l-287 -621h-63l-87 485l-42 -102l-182 -383h-65l-110 620z" />
    <glyph glyph-name="wdieresis" unicode="&#x1e85;" horiz-adv-x="776" 
d="M304 685q0 31 18 53t46 22q46 0 46 -46q0 -30 -19 -52t-46 -22q-21 0 -33 12t-12 33zM505 685q0 31 18 53t46 22q46 0 46 -46q0 -30 -19 -52t-46 -22q-21 0 -33 12t-12 33zM553 0h-115l-46 340l-13 -50l-112 -290h-113l-72 455l-70 15l9 55l157 5l50 -435l163 430l71 5
l51 -435l147 356l-85 19l9 55l229 5l-10 -60l-49 -12z" />
    <glyph glyph-name="Ygrave" unicode="&#x1ef2;" horiz-adv-x="606" 
d="M164 842l37 79l218 -122l-27 -55zM133 620l-84 20l9 55l155 5l100 -366l168 287l-90 19l10 55l269 5l-10 -60l-80 -20l-247 -389l-24 -151l83 -20l-10 -60h-273l10 60l90 20l28 182z" />
    <glyph glyph-name="ygrave" unicode="&#x1ef3;" horiz-adv-x="527" 
d="M143 803l206 -147l-31 -53l-218 125zM505 454l-185 -421q-30 -67 -49.5 -106.5t-42 -75.5t-43 -53.5t-46 -27.5t-57.5 -10q-25 0 -53.5 4t-44.5 8l-15 4l21 64q40 -5 75 -5q51 0 79 27t61 99l-122 490l-69 19l12 55l151 5l78 -367l8 -68l154 357l-75 18l10 55l220 5
l-11 -60z" />
    <glyph glyph-name="endash" unicode="&#x2013;" horiz-adv-x="502" 
d="M502 365l-13 -80h-489l12 80h490z" />
    <glyph glyph-name="emdash" unicode="&#x2014;" horiz-adv-x="947" 
d="M963 365l-13 -80h-950l13 80h950z" />
    <glyph glyph-name="horizontalbar" unicode="&#x2015;" horiz-adv-x="947" 
d="M963 365l-13 -80h-950l13 80h950z" />
    <glyph glyph-name="underscoredbl" unicode="&#x2017;" horiz-adv-x="515" 
d="M438 -80v-70h-504v70h504zM438 -220v-70h-504v70h504z" />
    <glyph glyph-name="quoteleft" unicode="&#x2018;" horiz-adv-x="205" 
d="M179 575q0 13 -7 31t-7 27q0 13 17.5 40t35.5 48l17 21l-38 38q-6 -5 -16 -15t-35 -38t-44.5 -54.5t-35.5 -60.5t-16 -61q0 -55 54 -55q33 0 54 24t21 55z" />
    <glyph glyph-name="quoteright" unicode="&#x2019;" horiz-adv-x="243" 
d="M131 701q0 -13 7 -31t7 -27q0 -13 -17.5 -40t-35.5 -48l-17 -21l38 -38q6 5 16 15t35 38t44.5 54.5t35.5 60.5t16 61q0 55 -54 55q-33 0 -54 -24t-21 -55z" />
    <glyph glyph-name="quotesinglbase" unicode="&#x201a;" horiz-adv-x="260" 
d="M56 31q0 -13 7 -31t7 -27q0 -13 -17.5 -40t-34.5 -48l-18 -21l38 -38q6 5 16 15t35 38t44.5 54.5t35.5 60.5t16 61q0 55 -54 55q-33 0 -54 -24t-21 -55z" />
    <glyph glyph-name="quotereversed" unicode="&#x201b;" horiz-adv-x="232" 
d="M243 713q1 4 1 12q0 24 -14.5 39.5t-39.5 15.5q-31 0 -53.5 -22.5t-22.5 -71.5q0 -84 82 -190l49 38q-37 62 -37 99q0 11 15.5 35.5t19.5 44.5z" />
    <glyph glyph-name="quotedblleft" unicode="&#x201c;" horiz-adv-x="396" 
d="M179 575q0 13 -7 31t-7 27q0 13 17.5 40t35.5 48l17 21l-38 38q-6 -5 -16 -15t-35 -38t-44.5 -54.5t-35.5 -60.5t-16 -61q0 -55 54 -55q33 0 54 24t21 55zM370 575q0 13 -7 31t-7 27q0 13 17.5 40t34.5 48l18 21l-38 38q-6 -5 -16 -15t-35 -38t-44.5 -54.5t-35.5 -60.5
t-16 -61q0 -55 54 -55q33 0 54 24t21 55z" />
    <glyph glyph-name="quotedblright" unicode="&#x201d;" horiz-adv-x="491" 
d="M131 701q0 -13 7 -31t7 -27q0 -13 -17.5 -40t-35.5 -48l-17 -21l38 -38q6 5 16 15t35 38t44.5 54.5t35.5 60.5t16 61q0 55 -54 55q-33 0 -54 -24t-21 -55zM322 701q0 -13 7 -31t7 -27q0 -13 -17.5 -40t-34.5 -48l-18 -21l38 -38q6 5 16 15t35 38t44.5 54.5t35.5 60.5
t16 61q0 55 -54 55q-33 0 -54 -24t-21 -55z" />
    <glyph glyph-name="quotedblbase" unicode="&#x201e;" horiz-adv-x="446" 
d="M56 31q0 -13 7 -31t7 -27q0 -13 -17.5 -40t-34.5 -48l-18 -21l38 -38q6 5 16 15t35 38t44.5 54.5t35.5 60.5t16 61q0 55 -54 55q-33 0 -54 -24t-21 -55zM247 31q0 -13 7 -31t7 -27q0 -13 -17.5 -40t-35.5 -48l-17 -21l38 -38q6 5 16 15t35 38t44.5 54.5t35.5 60.5t16 61
q0 55 -54 55q-33 0 -54 -24t-21 -55z" />
    <glyph glyph-name="dagger" unicode="&#x2020;" horiz-adv-x="488" 
d="M247 600l19 150l84 5l-29 -155h167l-11 -70l-211 -25l-196 25l11 70h166zM187 0l48 40l77 415l-54 -10l-49 10l-57 -415z" />
    <glyph glyph-name="daggerdbl" unicode="&#x2021;" horiz-adv-x="488" 
d="M247 600l19 150l84 5l-29 -155h167l-11 -70l-210 -25l-197 25l11 70h166zM257 445l164 24l-12 -73l-167 -42l-159 42l12 73zM187 0l48 40l48 263l-50 -10l-45 10l-36 -263z" />
    <glyph glyph-name="bullet" unicode="&#x2022;" horiz-adv-x="505" 
d="M75 310q0 82 53 131t122 49t117 -44t48 -126q0 -85 -52.5 -132.5t-122.5 -47.5t-117.5 42.5t-47.5 127.5z" />
    <glyph glyph-name="ellipsis" unicode="&#x2026;" horiz-adv-x="720" 
d="M58 45q0 35 20.5 60t56.5 25q55 0 55 -55q0 -34 -20.5 -59.5t-57.5 -25.5q-54 0 -54 55zM294 45q0 35 20.5 60t56.5 25q55 0 55 -55q0 -34 -20.5 -59.5t-57.5 -25.5q-54 0 -54 55zM529 45q0 35 20.5 60t56.5 25q55 0 55 -55q0 -34 -20.5 -59.5t-57.5 -25.5q-54 0 -54 55z
" />
    <glyph glyph-name="perthousand" unicode="&#x2030;" horiz-adv-x="1175" 
d="M277 710q60 0 93 -33.5t33 -93.5q0 -94 -52 -158.5t-139 -64.5q-132 0 -132 127q0 96 55.5 159.5t141.5 63.5zM704 700l-508 -700h-88l508 700h88zM258 646q-46 0 -74.5 -40t-28.5 -107q0 -37 19 -56t52 -19q45 0 73.5 39t28.5 102q0 81 -70 81zM605 340q60 0 93 -33.5
t33 -93.5q0 -94 -52 -158.5t-139 -64.5q-132 0 -132 127q0 96 55.5 159.5t141.5 63.5zM964 340q60 0 93 -33.5t33 -93.5q0 -94 -52 -158.5t-139 -64.5q-132 0 -132 127q0 96 55.5 159.5t141.5 63.5zM586 276q-46 0 -74.5 -40t-28.5 -107q0 -37 19 -56t52 -19q45 0 73.5 39
t28.5 102q0 81 -70 81zM945 276q-46 0 -74.5 -40t-28.5 -107q0 -37 19 -56t52 -19q45 0 73.5 39t28.5 102q0 81 -70 81z" />
    <glyph glyph-name="minute" unicode="&#x2032;" horiz-adv-x="183" 
d="M81 525l59 249l92 -9l-79 -247z" />
    <glyph glyph-name="second" unicode="&#x2033;" horiz-adv-x="343" 
d="M81 525l59 249l92 -9l-79 -247zM241 525l59 249l92 -9l-79 -247z" />
    <glyph glyph-name="guilsinglleft" unicode="&#x2039;" horiz-adv-x="335" 
d="M181 80l-121 163l9 60l165 145l51 -45l-132 -134l84 -149z" />
    <glyph glyph-name="guilsinglright" unicode="&#x203a;" horiz-adv-x="325" 
d="M159 448l116 -163l-9 -60l-160 -145l-51 44l127 135l-79 149z" />
    <glyph glyph-name="exclamdbl" unicode="&#x203c;" horiz-adv-x="556" 
d="M290 750l-96 -500l-83 -5l66 505h113zM508 750l-96 -500l-83 -5l66 505h113zM132 130q55 0 55 -55q0 -34 -20.5 -59.5t-57.5 -25.5q-54 0 -54 55q0 35 20.5 60t56.5 25zM350 130q55 0 55 -55q0 -34 -20.5 -59.5t-57.5 -25.5q-54 0 -54 55q0 35 20.5 60t56.5 25z" />
    <glyph glyph-name="overline" unicode="&#x203e;" horiz-adv-x="505" 
d="M478 695l-10 -65h-412l10 65h412z" />
    <glyph glyph-name="fraction" unicode="&#x2044;" horiz-adv-x="565" 
d="M624 705l-627 -750l-61 45l626 750z" />
    <glyph glyph-name="foursuperior" unicode="&#x2074;" horiz-adv-x="399" 
d="M362 700l-42 -264h71l-11 -65h-71l-14 -91h-84l14 91h-203l3 59l243 280zM237 436l28 179l-154 -179h126z" />
    <glyph glyph-name="nsuperior" unicode="&#x207f;" horiz-adv-x="506" 
d="M319 324l41 234q3 16 3 32q0 48 -38 48q-26 0 -50.5 -19.5t-40 -47t-27.5 -55.5t-17 -48l-6 -19l-21 -125h-78l53 314l-56 16l7 44l128 4l-32 -139q73 147 175 147q42 0 63 -24t21 -65q0 -21 -4 -42l-33 -194l65 -14l-6 -43z" />
    <glyph glyph-name="franc" unicode="&#x20a3;" horiz-adv-x="572" 
d="M601 700l-27 -170h-56l-10 90h-221l-36 -220h229l-12 -80h-228l-13 -81h126l-11 -75h-127l-14 -84l98 -20l-10 -60h-286l10 60l88 20l14 84h-81l11 75h82l61 381l-83 20l9 55l186 5h301z" />
    <glyph glyph-name="lira" unicode="&#x20a4;" horiz-adv-x="609" 
d="M413 710q52 0 101 -7.5t72 -14.5l23 -8l-27 -171h-56l-13 115q-54 6 -108 6q-102 0 -119 -100q-5 -32 -10 -75h158l-12 -70h-358l12 70h102q4 38 7 55q15 94 72 147t156 53zM470 182h66l-30 -182h-495l9 60l57 15q34 9 49 36.5t26 93.5q3 18 6 45h-114l12 70h358l-12 -70
h-146l-5 -35q-7 -44 -23.5 -78t-29.5 -45l-12 -12h247z" />
    <glyph glyph-name="peseta" unicode="&#x20a7;" horiz-adv-x="674" 
d="M662 440h-74q-19 -70 -69.5 -114.5t-105.5 -60t-119 -15.5h-66l-28 -171l86 -19l-10 -60h-273l10 60l87 20l57 360h-83l11 75h84l17 105l-81 20l9 55l185 5h105q50 0 91.5 -13t73 -52t31.5 -100v-20h73zM269 515h226q-1 58 -35 81.5t-74 23.5h-100zM240 330h67
q142 0 177 110h-227z" />
    <glyph glyph-name="euro" unicode="&#x20ac;" horiz-adv-x="651" 
d="M484 380l11 70h-245q29 80 78.5 127.5t112.5 47.5q54 0 112 -16l12 -100h51l30 158q-86 43 -185 43q-110 0 -195 -69.5t-126 -190.5h-66l-11 -70h421zM41 239h67q0 -112 57 -180.5t163 -68.5q38 0 77.5 11t68.5 26.5t52.5 31.5t35.5 27l12 11l-31 54q-11 -8 -29.5 -20
t-69 -32.5t-93.5 -20.5q-126 0 -133 162h244l11 70h-421z" />
    <glyph glyph-name="careof" unicode="&#x2105;" horiz-adv-x="1026" 
d="M361 565l-2 58q-26 7 -62 7q-56 0 -94 -44.5t-38 -124.5q0 -52 25 -80t68 -28q30 0 59 10.5t43 21.5l14 11l28 -56q-8 -7 -22.5 -17.5t-57 -28t-82.5 -17.5q-165 0 -165 160q0 118 65.5 193t172.5 75q33 0 65 -7.5t48 -15.5l15 -8l-20 -109h-60zM774 700l-500 -700h-87
l500 700h87zM793 423q148 0 148 -157q0 -120 -65.5 -195.5t-165.5 -75.5q-158 0 -158 154q0 123 68.5 198.5t172.5 75.5zM772 348q-60 0 -95.5 -47t-35.5 -135q0 -97 84 -97q56 0 91.5 48.5t35.5 135.5q0 95 -80 95z" />
    <glyph glyph-name="literSign" unicode="&#x2113;" horiz-adv-x="433" 
d="M32 190l-25 55q55 35 108 75l34 210q40 250 201 250q104 0 104 -110q0 -168 -249 -364q-18 -119 -18 -151q0 -90 68 -90q17 0 37 2.5t32 4.5l11 3v-65q-57 -20 -103 -20q-139 0 -139 155q0 39 9 86q-42 -27 -70 -41zM245 547l-22 -139q68 63 110 127t42 114q0 51 -44 51
q-65 0 -86 -153z" />
    <glyph glyph-name="numero" unicode="&#x2116;" horiz-adv-x="1237" 
d="M1040 710q72 0 111 -37t39 -106q0 -110 -60.5 -181t-162.5 -71q-75 0 -115 36.5t-40 107.5q0 111 63.5 181t164.5 70zM101 640l83 -20l-86 -540l-89 -20l-11 -60h260l11 60l-82 20l77 483l244 -563h113l98 620l85 20l10 60l-255 -5l-9 -55l80 -20l-76 -479l-234 559
l-210 -5zM1025 644q-60 0 -95.5 -45.5t-35.5 -125.5q0 -46 24.5 -69.5t66.5 -23.5q56 0 89.5 46.5t33.5 120.5q0 46 -21.5 71.5t-61.5 25.5zM1128 235l-11 -70h-343l11 70h343z" />
    <glyph glyph-name="trademark" unicode="&#x2122;" horiz-adv-x="952" 
d="M112 320l8 45l66 13l44 265h-73l-23 -68h-47l21 125h338l-21 -125h-47v68h-73l-44 -265l62 -13l-8 -45h-203zM774 378l36 218l-117 -168l-51 -6l-62 170l-35 -214l59 -13l-8 -45h-173l7 45l54 13l44 267l-50 7l7 45l137 3l63 -191l127 188l131 3l-7 -45l-52 -10l-44 -267
l47 -13l-8 -45h-171l8 45z" />
    <glyph glyph-name="Ohm" unicode="&#x2126;" horiz-adv-x="775" 
d="M30 0l13 80h130q-3 3 -9 9.5t-20.5 28t-26 45t-20.5 60.5t-9 75q0 106 41.5 198t127.5 153t200 61q119 0 183.5 -67.5t64.5 -188.5q0 -66 -18.5 -129t-45.5 -105t-53.5 -75t-45.5 -49l-18 -15l133 4l-14 -85h-250l11 65q8 4 21 12.5t47 40.5t60 72t47 109.5t21 149.5
t-42.5 128t-116.5 48q-65 0 -114.5 -28.5t-78.5 -77.5t-43.5 -109t-14.5 -128q0 -46 10.5 -85.5t25 -63t30 -39.5t25 -22.5t10.5 -6.5l-11 -65h-250z" />
    <glyph glyph-name="estimated" unicode="&#x212e;" horiz-adv-x="667" 
d="M170 360v-197q65 -62 164 -62q64 0 125 23t99 62l26 -26q-42 -45 -112 -72.5t-138 -27.5q-128 0 -206.5 77.5t-78.5 207.5q0 124 85.5 209.5t209.5 85.5q120 0 200 -80t80 -200h-454zM344 600q-100 0 -174 -74v-131h334v140q-70 65 -160 65z" />
    <glyph glyph-name="oneeighth" unicode="&#x215b;" horiz-adv-x="942" 
d="M80 280l10 65h91l42 265l-113 -65l-24 60l163 95h73l-56 -355h85l-11 -65h-260zM767 700l-508 -700h-92l508 700h92zM786 220q74 -30 74 -83q0 -60 -53.5 -101t-131.5 -41q-65 0 -100 25t-35 72q0 38 23 68t42.5 40.5t38.5 17.5q-54 25 -54 74q0 64 46 98.5t121 34.5
q60 0 92 -24.5t32 -67.5q0 -82 -95 -113zM669 301q0 -20 15 -33.5t46 -25.5q25 8 47.5 26t22.5 48q0 44 -59 44q-37 0 -54.5 -18t-17.5 -41zM775 131q0 17 -11.5 29.5t-23 17.5t-40.5 17q-48 -21 -63 -47q-10 -17 -10 -39q0 -48 64 -48q43 0 63.5 21t20.5 49z" />
    <glyph glyph-name="threeeighths" unicode="&#x215c;" horiz-adv-x="942" 
d="M393 613q0 -44 -28 -73.5t-74 -40.5q33 -3 56 -23.5t23 -52.5q0 -72 -54.5 -110t-135.5 -38q-31 0 -63.5 9.5t-49.5 19.5l-17 9l28 59q54 -30 115 -30q41 0 66.5 18.5t25.5 51.5q0 51 -80 51h-45l9 61h46q95 0 95 71q0 45 -63 45q-19 0 -36 -2t-25 -4l-7 -3l-12 -48h-57
l13 103q81 19 140 19q130 0 130 -92zM769 700l-508 -700h-92l508 700h92zM786 220q74 -30 74 -83q0 -60 -53.5 -101t-131.5 -41q-65 0 -100 25t-35 72q0 38 23 68t42.5 40.5t38.5 17.5q-54 25 -54 74q0 64 46 98.5t121 34.5q60 0 92 -24.5t32 -67.5q0 -82 -95 -113zM669 301
q0 -20 15 -33.5t46 -25.5q25 8 47.5 26t22.5 48q0 44 -59 44q-37 0 -54.5 -18t-17.5 -41zM775 131q0 17 -11.5 29.5t-23 17.5t-40.5 17q-48 -21 -63 -47q-10 -17 -10 -39q0 -48 64 -48q43 0 63.5 21t20.5 49z" />
    <glyph glyph-name="fiveeighths" unicode="&#x215d;" horiz-adv-x="932" 
d="M211 633l-19 -91h27q66 0 107 -24.5t41 -76.5q0 -73 -57.5 -120t-127.5 -47q-34 0 -66.5 7.5t-47.5 14.5l-15 8l27 62q52 -24 105 -24q42 0 69.5 21t27.5 59q0 55 -105 55h-71l41 223h240l-12 -67h-164zM759 700l-508 -700h-92l508 700h92zM776 220q74 -30 74 -83
q0 -60 -53.5 -101t-131.5 -41q-65 0 -100 25t-35 72q0 38 23 68t42.5 40.5t38.5 17.5q-54 25 -54 74q0 64 46 98.5t121 34.5q60 0 92 -24.5t32 -67.5q0 -82 -95 -113zM659 301q0 -20 15 -33.5t46 -25.5q25 8 47.5 26t22.5 48q0 44 -59 44q-37 0 -54.5 -18t-17.5 -41z
M765 131q0 17 -11.5 29.5t-23 17.5t-40.5 17q-48 -21 -63 -47q-10 -17 -10 -39q0 -48 64 -48q43 0 63.5 21t20.5 49z" />
    <glyph glyph-name="seveneighths" unicode="&#x215e;" horiz-adv-x="881" 
d="M397 650l-224 -376h-84l212 359h-141l-22 -51h-57l21 118h303zM708 700l-508 -700h-92l508 700h92zM725 220q74 -30 74 -83q0 -60 -53.5 -101t-131.5 -41q-65 0 -100 25t-35 72q0 38 23 68t42.5 40.5t38.5 17.5q-54 25 -54 74q0 64 46 98.5t121 34.5q60 0 92 -24.5
t32 -67.5q0 -82 -95 -113zM608 301q0 -20 15 -33.5t46 -25.5q25 8 47.5 26t22.5 48q0 44 -59 44q-37 0 -54.5 -18t-17.5 -41zM714 131q0 17 -11.5 29.5t-23 17.5t-40.5 17q-48 -21 -63 -47q-10 -17 -10 -39q0 -48 64 -48q43 0 63.5 21t20.5 49z" />
    <glyph glyph-name="arrowleft" unicode="&#x2190;" horiz-adv-x="624" 
d="M162 276l128 -178l-54 -40l-190 232l7 50l248 235l47 -53l-167 -166h449l-10 -80h-458z" />
    <glyph glyph-name="arrowup" unicode="&#x2191;" horiz-adv-x="580" 
d="M275 450l-198 -149l-38 55l266 219h50l208 -220l-57 -55l-151 149l-67 -449h-80z" />
    <glyph glyph-name="arrowright" unicode="&#x2192;" horiz-adv-x="624" 
d="M453 356l-120 168l61 50l183 -234l-7 -50l-253 -235l-50 45l176 176h-449l10 80h449z" />
    <glyph glyph-name="arrowdown" unicode="&#x2193;" horiz-adv-x="580" 
d="M309 115l195 155l38 -55l-263 -225h-50l-208 220l57 55l151 -149l69 449h80z" />
    <glyph glyph-name="arrowboth" unicode="&#x2194;" horiz-adv-x="685" 
d="M286 471l-41 44l-193 -177l-5 -42l144 -177l51 45l-85 116h363l-119 -119l41 -44l190 177l5 42l-141 177l-53 -45l84 -116h-363z" />
    <glyph glyph-name="arrowupdown" unicode="&#x2195;" horiz-adv-x="458" 
d="M67 204l-51 -47l157 -167h42l204 170l-39 46l-138 -106l55 363l103 -102l51 47l-157 167h-42l-198 -171l39 -46l132 107l-55 -363z" />
    <glyph glyph-name="arrowupdownbase" unicode="&#x21a8;" horiz-adv-x="458" 
d="M75 204l-50 -47l156 -167h42l198 171l-38 46l-132 -107l54 363l104 -102l51 47l-157 167h-42l-203 -170l38 -46l138 106l-55 -363zM390 -80l-13 -70h-392l12 70h393z" />
    <glyph glyph-name="partialdiff" unicode="&#x2202;" horiz-adv-x="635" 
d="M459 370q18 73 18 140q0 89 -37.5 139.5t-117.5 50.5q-14 0 -29 -1t-26.5 -2.5t-21 -3t-15.5 -2.5l-6 -1v70q65 20 121 20q112 0 171 -64.5t59 -195.5q0 -70 -13.5 -142.5t-42 -142.5t-69 -124t-99.5 -87.5t-128 -33.5q-79 0 -131 49t-52 127q0 108 72.5 191t184.5 83
q47 0 87.5 -17.5t57.5 -34.5zM438 285q-1 3 -4.5 8t-15.5 18.5t-26.5 23.5t-41 18t-56.5 8q-68 0 -108.5 -52t-40.5 -127q0 -48 26 -78.5t67 -30.5q40 0 75 22t57 53t38 62t23 53z" />
    <glyph glyph-name="increment" unicode="&#x2206;" horiz-adv-x="640" 
d="M439 720l156 -650l-12 -70h-613l12 71l361 649h96zM491 80l-122 527l-290 -527h412z" />
    <glyph glyph-name="product" unicode="&#x220f;" horiz-adv-x="720" 
d="M185 620l-80 20l8 55l181 5h456l-9 -60l-86 -20l-135 -850h-97l135 850h-275l-136 -850h-97z" />
    <glyph glyph-name="summation" unicode="&#x2211;" horiz-adv-x="611" 
d="M320 241l-218 384l12 75h497l-27 -170h-62l-12 90h-296l218 -377l-336 -393h297l37 103h72l-29 -183h-513l12 75z" />
    <glyph glyph-name="minus" unicode="&#x2212;" horiz-adv-x="582" 
d="M532 310l-12 -80h-470l12 80h470z" />
    <glyph glyph-name="divisionslash" unicode="&#x2215;" horiz-adv-x="536" 
d="M621 705l-621 -750l-61 45l621 750z" />
    <glyph glyph-name="bulletoperator" unicode="&#x2219;" horiz-adv-x="323" 
d="M85 315q0 33 23.5 56.5t56.5 23.5t56.5 -23.5t23.5 -56.5t-23.5 -56.5t-56.5 -23.5t-56.5 23.5t-23.5 56.5z" />
    <glyph glyph-name="radical" unicode="&#x221a;" horiz-adv-x="660" 
d="M45 525l134 5l67 -440l289 675l185 5l-9 -55l-113 -15l-313 -700h-108l-84 458l-58 15z" />
    <glyph glyph-name="infinity" unicode="&#x221e;" horiz-adv-x="880" 
d="M614 130q-55 0 -98.5 29t-89.5 81q-131 -110 -224 -110q-67 0 -104.5 35.5t-37.5 94.5q0 83 57 141.5t148 58.5q54 0 97 -29t90 -81q127 110 225 110q68 0 105.5 -34.5t37.5 -95.5q0 -84 -58.5 -142t-147.5 -58zM219 205q65 0 161 88q-38 45 -68.5 68.5t-63.5 23.5
q-49 0 -76 -32t-27 -80q0 -33 20 -50.5t54 -17.5zM659 385q-65 0 -161 -88q39 -46 69 -69t64 -23q48 0 76 32.5t28 79.5q0 32 -20.5 50t-55.5 18z" />
    <glyph glyph-name="orthogonal" unicode="&#x221f;" horiz-adv-x="600" 
d="M515 95l-15 -95h-466l84 540h101l-68 -445h364z" />
    <glyph glyph-name="intersection" unicode="&#x2229;" horiz-adv-x="600" 
d="M378 0l67 415q20 109 2 159.5t-91 50.5q-81 0 -115.5 -48t-53.5 -167l-66 -410h-97l65 405q13 79 30 131t48 93.5t80.5 61t121.5 19.5q123 0 160 -69t13 -221l-67 -420h-97z" />
    <glyph glyph-name="integral" unicode="&#x222b;" horiz-adv-x="351" 
d="M430 825l-19 -73q-32 8 -62 8q-47 0 -72 -27.5t-30 -87.5q-38 -518 -58 -730q-10 -99 -59.5 -157t-140.5 -58q-16 0 -37.5 4t-35.5 8l-14 3l16 70q38 -5 63 -5q47 0 72 27.5t30 87.5q38 518 58 730q10 98 58.5 156.5t141.5 58.5q13 0 35.5 -4t37.5 -8z" />
    <glyph glyph-name="approxequal" unicode="&#x2248;" horiz-adv-x="626" 
d="M113 279l-40 31q2 4 7 11t21 24t34 30t45.5 24t56.5 11q47 0 104.5 -35t95.5 -35q24 0 49 15t38 30l14 15l41 -31q-3 -4 -8 -11t-22 -25t-34.5 -32t-43.5 -25t-51 -11q-47 0 -110 35t-100 35q-24 0 -48 -14t-36 -28zM87 114l-40 31q2 4 7 11t21 24t34 30t45.5 24t56.5 11
q47 0 104.5 -35t95.5 -35q24 0 49 15t38 30l14 15l40 -31q-3 -4 -8 -11t-22 -25t-34 -32t-43 -25t-51 -11q-47 0 -110 35t-100 35q-24 0 -48.5 -14t-36.5 -28z" />
    <glyph glyph-name="notequal" unicode="&#x2260;" horiz-adv-x="638" 
d="M358 410l81 130h83l-82 -130h148l-13 -80h-185l-73 -115h240l-13 -80h-277l-85 -135h-82l84 135h-134l12 80h172l73 115h-226l13 80h264z" />
    <glyph glyph-name="equivalence" unicode="&#x2261;" horiz-adv-x="600" 
d="M562 410l-13 -80h-480l13 80h480zM535 246l-13 -80h-480l13 80h480zM509 80l-13 -80h-480l13 80h480z" />
    <glyph glyph-name="lessequal" unicode="&#x2264;" horiz-adv-x="615" 
d="M533 135l-467 175l11 70l523 170l-12 -80l-409 -125l367 -130zM16 0l11 78h497l-12 -78h-496z" />
    <glyph glyph-name="greaterequal" unicode="&#x2265;" horiz-adv-x="618" 
d="M89 470l12 80l467 -170l-11 -70l-522 -175l13 80l409 130zM14 0l12 78h495l-13 -78h-494z" />
    <glyph glyph-name="house" unicode="&#x2302;" horiz-adv-x="600" 
d="M520 305v-305h-450v305l205 225h40zM295 420l-135 -150v-190h270v190z" />
    <glyph glyph-name="logicalnotReversed" unicode="&#x2310;" horiz-adv-x="600" 
d="M90 355l-41 -270h80l30 190h408l13 80h-490z" />
    <glyph glyph-name="integraltp" unicode="&#x2320;" horiz-adv-x="373" 
d="M31 -300l144 915q16 104 62 159.5t136 55.5q16 0 36.5 -4t32.5 -8l13 -3l-17 -70q-33 5 -57 5q-82 0 -100 -115l-148 -935h-102z" />
    <glyph glyph-name="integralbt" unicode="&#x2321;" horiz-adv-x="342" 
d="M316 830l-144 -915q-16 -104 -62 -159.5t-136 -55.5q-16 0 -36.5 4t-33.5 8l-12 3l17 70q33 -5 57 -5q82 0 100 115l148 935h102z" />
    <glyph glyph-name="lozenge" unicode="&#x25ca;" horiz-adv-x="510" 
d="M272 770h88l125 -405l-251 -405h-88l-124 406zM201 49l192 315l-92 317l-191 -314z" />
    <glyph glyph-name="cyrbreve" unicode="&#xf6d4;" horiz-adv-x="324" 
d="M359 770l39 -26q-28 -54 -74.5 -89t-103.5 -35q-61 0 -99 32t-46 95l96 23q15 -82 80 -82q62 0 108 82z" />
    <glyph glyph-name="asterisk.alt" horiz-adv-x="385" 
d="M235 588l-20 31l4 117h79l-32 -117zM224 581l-40 -6l-107 51l49 69l89 -76zM245 581l21 38l113 76l28 -69l-123 -51zM222 570l-20 -38l-113 -76l-28 69l123 50zM284 575l107 -50l-49 -69l-89 75l-10 39zM231 563l22 -32l-4 -117h-79l32 118z" />
    <glyph glyph-name="acute.Cup" horiz-adv-x="249" 
d="M112 746l-26 53l217 121l37 -79z" />
    <glyph glyph-name="caron.Cup" horiz-adv-x="339" 
d="M407 912l27 -45l-159 -111l-58 -5l-122 116l48 45l115 -86z" />
    <glyph glyph-name="circumflex.Cup" horiz-adv-x="600" 
d="M181 833l-149 -83l-32 45l161 110l59 5l123 -115l-47 -45z" />
    <glyph glyph-name="grave.Cup" horiz-adv-x="600" 
d="M-18 842l37 79l218 -122l-27 -55z" />
    <glyph glyph-name="tilde.Cup" horiz-adv-x="600" 
d="M29 766l-29 30q2 4 6 10t17 22.5t27 29t34 22.5t39 10q35 0 85.5 -23t78.5 -23q18 0 35.5 10.5t25.5 21.5l9 10l30 -30q-2 -4 -5.5 -10t-16 -21.5t-25.5 -27.5t-32.5 -21.5t-38.5 -9.5q-35 0 -85.5 22t-78.5 22q-17 0 -36 -11t-29 -22z" />
    <glyph glyph-name="acute.x" horiz-adv-x="600" 
 />
    <glyph glyph-name="caron.x" horiz-adv-x="131" 
d="M102 552l-53 21q58 122 68 202l96 5q-14 -73 -111 -228z" />
    <glyph glyph-name="circumflex.x" horiz-adv-x="520" 
d="M108 635l-32 45l168 135l59 5l125 -140l-46 -45l-118 108z" />
    <glyph glyph-name="grave.x" horiz-adv-x="600" 
 />
    <glyph glyph-name="Igravecy" horiz-adv-x="791" 
d="M560 744l-228 98l37 79l218 -122zM819 700l-10 -60l-87 -20l-87 -540l84 -20l-10 -60h-278l10 60l94 19l64 395l-399 -356l-6 -38l87 -20l-10 -60h-273l10 60l86 19l87 541l-82 20l9 55l275 5l-10 -60l-92 -20l-64 -396l399 358l6 38l-91 20l9 55z" />
    <glyph glyph-name="NULL" horiz-adv-x="600" 
 />
    <glyph glyph-name="ShortIcy" horiz-adv-x="791" 
d="M479 760q-61 0 -99 32t-46 95l96 23q15 -82 80 -82q62 0 108 82l39 -26q-28 -54 -74.5 -89t-103.5 -35zM819 700l-10 -60l-87 -20l-87 -540l84 -20l-10 -60h-278l10 60l94 19l64 395l-399 -356l-6 -38l87 -20l-10 -60h-273l10 60l86 19l87 541l-82 20l9 55l275 5l-10 -60
l-92 -20l-64 -396l399 358l6 38l-91 20l9 55z" />
    <glyph glyph-name="foundryicon" horiz-adv-x="757" 
d="M635 0h-491q-92 0 -92 92v491q0 93 92 93h491q93 0 93 -93v-491q0 -92 -93 -92zM318 452l-56 -33q-9 -3 -11 -3q-6 0 -6 9v136h-86v-400h86v209q0 14 27 14q50 0 50 -65v-158h86v207q0 37 -25.5 60.5t-64.5 23.5zM442 403h29q13 0 13 -11v-153q0 -36 25.5 -60.5
t64.5 -24.5l73 43v29q-18 -5 -31 -5q-46 0 -46 67v104q0 11 11 11h67v42h-67q-11 0 -11 12v32h-25l-103 -65v-21z" />
    </font>
</defs>
</svg>
